<?xml version="1.0" encoding="UTF-8" standalone="no"?>
<!DOCTYPE svg PUBLIC "-//W3C//DTD SVG 1.1//EN"
 "http://www.w3.org/Graphics/SVG/1.1/DTD/svg11.dtd">
<!-- Generated by graphviz version 2.43.0 (0)
 -->
<!-- Title: undefined Pages: 1 -->
<svg width="1126pt" height="1129pt"
 viewBox="0.00 0.00 1125.60 1128.60" xmlns="http://www.w3.org/2000/svg" xmlns:xlink="http://www.w3.org/1999/xlink">
<g id="graph0" class="graph" transform="scale(1 1) rotate(0) translate(28.8 1078.8)">
<title>undefined</title>
<polygon fill="white" stroke="transparent" points="-28.8,49.8 -28.8,-1078.8 1096.8,-1078.8 1096.8,49.8 -28.8,49.8"/>
<text text-anchor="start" x="505.5" y="12.6" font-family="Helvetica,sans-Serif" font-weight="bold" font-size="12.00">nt.sqlite</text>
<!-- version -->
<g id="node1" class="node">
<title>version</title>
<path fill="none" stroke="black" d="M213.24,-871.64C213.24,-871.64 333.24,-871.64 333.24,-871.64 339.24,-871.64 345.24,-877.64 345.24,-883.64 345.24,-883.64 345.24,-963.64 345.24,-963.64 345.24,-969.64 339.24,-975.64 333.24,-975.64 333.24,-975.64 213.24,-975.64 213.24,-975.64 207.24,-975.64 201.24,-969.64 201.24,-963.64 201.24,-963.64 201.24,-883.64 201.24,-883.64 201.24,-877.64 207.24,-871.64 213.24,-871.64"/>
<text text-anchor="start" x="246.24" y="-955.24" font-family="Helvetica,sans-Serif" font-weight="bold" font-size="13.00">version</text>
<polyline fill="none" stroke="black" points="201.24,-945.64 345.24,-945.64 "/>
<text text-anchor="start" x="208.24" y="-932.04" font-family="Helvetica,sans-Serif" font-size="12.00">id* </text>
<text text-anchor="start" x="229.24" y="-932.04" font-family="Helvetica,sans-Serif" font-weight="bold" font-size="12.00">integer</text>
<text text-anchor="start" x="208.24" y="-915.04" font-family="Helvetica,sans-Serif" font-size="12.00">version </text>
<text text-anchor="start" x="256.24" y="-915.04" font-family="Helvetica,sans-Serif" font-weight="bold" font-size="12.00">text</text>
<text text-anchor="start" x="208.24" y="-898.04" font-family="Helvetica,sans-Serif" font-size="12.00">created </text>
<text text-anchor="start" x="258.24" y="-898.04" font-family="Helvetica,sans-Serif" font-weight="bold" font-size="12.00">date</text>
<text text-anchor="start" x="208.24" y="-881.04" font-family="Helvetica,sans-Serif" font-size="12.00">notes </text>
<text text-anchor="start" x="245.24" y="-881.04" font-family="Helvetica,sans-Serif" font-weight="bold" font-size="12.00">text</text>
</g>
<!-- bmr_eqs -->
<g id="node2" class="node">
<title>bmr_eqs</title>
<path fill="none" stroke="black" d="M296.01,-457.68C296.01,-457.68 416.01,-457.68 416.01,-457.68 422.01,-457.68 428.01,-463.68 428.01,-469.68 428.01,-469.68 428.01,-515.68 428.01,-515.68 428.01,-521.68 422.01,-527.68 416.01,-527.68 416.01,-527.68 296.01,-527.68 296.01,-527.68 290.01,-527.68 284.01,-521.68 284.01,-515.68 284.01,-515.68 284.01,-469.68 284.01,-469.68 284.01,-463.68 290.01,-457.68 296.01,-457.68"/>
<text text-anchor="start" x="325.01" y="-507.28" font-family="Helvetica,sans-Serif" font-weight="bold" font-size="13.00">bmr_eqs</text>
<polyline fill="none" stroke="black" points="284.01,-497.68 428.01,-497.68 "/>
<text text-anchor="start" x="291.01" y="-484.08" font-family="Helvetica,sans-Serif" font-size="12.00">id* </text>
<text text-anchor="start" x="312.01" y="-484.08" font-family="Helvetica,sans-Serif" font-weight="bold" font-size="12.00">integer</text>
<text text-anchor="start" x="291.01" y="-467.08" font-family="Helvetica,sans-Serif" font-size="12.00">bmr_eq </text>
<text text-anchor="start" x="341.01" y="-467.08" font-family="Helvetica,sans-Serif" font-weight="bold" font-size="12.00">text</text>
</g>
<!-- bf_eqs -->
<g id="node3" class="node">
<title>bf_eqs</title>
<path fill="none" stroke="black" d="M935.69,-512.95C935.69,-512.95 1055.69,-512.95 1055.69,-512.95 1061.69,-512.95 1067.69,-518.95 1067.69,-524.95 1067.69,-524.95 1067.69,-570.95 1067.69,-570.95 1067.69,-576.95 1061.69,-582.95 1055.69,-582.95 1055.69,-582.95 935.69,-582.95 935.69,-582.95 929.69,-582.95 923.69,-576.95 923.69,-570.95 923.69,-570.95 923.69,-524.95 923.69,-524.95 923.69,-518.95 929.69,-512.95 935.69,-512.95"/>
<text text-anchor="start" x="971.69" y="-562.55" font-family="Helvetica,sans-Serif" font-weight="bold" font-size="13.00">bf_eqs</text>
<polyline fill="none" stroke="black" points="923.69,-552.95 1067.69,-552.95 "/>
<text text-anchor="start" x="930.69" y="-539.35" font-family="Helvetica,sans-Serif" font-size="12.00">id* </text>
<text text-anchor="start" x="951.69" y="-539.35" font-family="Helvetica,sans-Serif" font-weight="bold" font-size="12.00">integer</text>
<text text-anchor="start" x="930.69" y="-522.35" font-family="Helvetica,sans-Serif" font-size="12.00">bf_eq </text>
<text text-anchor="start" x="967.69" y="-522.35" font-family="Helvetica,sans-Serif" font-weight="bold" font-size="12.00">text</text>
</g>
<!-- users -->
<g id="node4" class="node">
<title>users</title>
<path fill="none" stroke="black" d="M649.09,-415.75C649.09,-415.75 769.09,-415.75 769.09,-415.75 775.09,-415.75 781.09,-421.75 781.09,-427.75 781.09,-427.75 781.09,-643.75 781.09,-643.75 781.09,-649.75 775.09,-655.75 769.09,-655.75 769.09,-655.75 649.09,-655.75 649.09,-655.75 643.09,-655.75 637.09,-649.75 637.09,-643.75 637.09,-643.75 637.09,-427.75 637.09,-427.75 637.09,-421.75 643.09,-415.75 649.09,-415.75"/>
<text text-anchor="start" x="689.09" y="-635.35" font-family="Helvetica,sans-Serif" font-weight="bold" font-size="13.00">users</text>
<polyline fill="none" stroke="black" points="637.09,-625.75 781.09,-625.75 "/>
<text text-anchor="start" x="644.09" y="-612.15" font-family="Helvetica,sans-Serif" font-size="12.00">id* </text>
<text text-anchor="start" x="665.09" y="-612.15" font-family="Helvetica,sans-Serif" font-weight="bold" font-size="12.00">integer</text>
<text text-anchor="start" x="644.09" y="-595.15" font-family="Helvetica,sans-Serif" font-size="12.00">name </text>
<text text-anchor="start" x="683.09" y="-595.15" font-family="Helvetica,sans-Serif" font-weight="bold" font-size="12.00">text</text>
<text text-anchor="start" x="644.09" y="-578.15" font-family="Helvetica,sans-Serif" font-size="12.00">guid </text>
<text text-anchor="start" x="674.09" y="-578.15" font-family="Helvetica,sans-Serif" font-weight="bold" font-size="12.00">text</text>
<text text-anchor="start" x="644.09" y="-561.15" font-family="Helvetica,sans-Serif" font-size="12.00">created </text>
<text text-anchor="start" x="694.09" y="-561.15" font-family="Helvetica,sans-Serif" font-weight="bold" font-size="12.00">int</text>
<text text-anchor="start" x="644.09" y="-544.15" font-family="Helvetica,sans-Serif" font-size="12.00">eula </text>
<text text-anchor="start" x="674.09" y="-544.15" font-family="Helvetica,sans-Serif" font-weight="bold" font-size="12.00">int</text>
<text text-anchor="start" x="644.09" y="-527.15" font-family="Helvetica,sans-Serif" font-size="12.00">gender </text>
<text text-anchor="start" x="691.09" y="-527.15" font-family="Helvetica,sans-Serif" font-weight="bold" font-size="12.00">text</text>
<text text-anchor="start" x="644.09" y="-510.15" font-family="Helvetica,sans-Serif" font-size="12.00">dob </text>
<text text-anchor="start" x="671.09" y="-510.15" font-family="Helvetica,sans-Serif" font-weight="bold" font-size="12.00">date</text>
<text text-anchor="start" x="644.09" y="-493.15" font-family="Helvetica,sans-Serif" font-size="12.00">act_lvl </text>
<text text-anchor="start" x="686.09" y="-493.15" font-family="Helvetica,sans-Serif" font-weight="bold" font-size="12.00">int</text>
<text text-anchor="start" x="644.09" y="-476.15" font-family="Helvetica,sans-Serif" font-size="12.00">goal_wt </text>
<text text-anchor="start" x="694.09" y="-476.15" font-family="Helvetica,sans-Serif" font-weight="bold" font-size="12.00">real</text>
<text text-anchor="start" x="644.09" y="-459.15" font-family="Helvetica,sans-Serif" font-size="12.00">goal_bf </text>
<text text-anchor="start" x="692.09" y="-459.15" font-family="Helvetica,sans-Serif" font-weight="bold" font-size="12.00">real</text>
<text text-anchor="start" x="644.09" y="-442.15" font-family="Helvetica,sans-Serif" font-size="12.00">bmr_id </text>
<text text-anchor="start" x="690.09" y="-442.15" font-family="Helvetica,sans-Serif" font-weight="bold" font-size="12.00">int</text>
<text text-anchor="start" x="644.09" y="-425.15" font-family="Helvetica,sans-Serif" font-size="12.00">bf_id </text>
<text text-anchor="start" x="677.09" y="-425.15" font-family="Helvetica,sans-Serif" font-weight="bold" font-size="12.00">int</text>
</g>
<!-- users&#45;&gt;bmr_eqs -->
<g id="edge2" class="edge">
<title>users&#45;&gt;bmr_eqs</title>
<path fill="none" stroke="black" stroke-width="0.9" d="M636.79,-526.93C578.48,-519.82 496.52,-509.82 436.2,-502.46"/>
<polygon fill="black" stroke="black" stroke-width="0.9" points="436.49,-499.68 428.21,-501.49 435.82,-505.23 436.49,-499.68"/>
</g>
<!-- users&#45;&gt;bf_eqs -->
<g id="edge1" class="edge">
<title>users&#45;&gt;bf_eqs</title>
<path fill="none" stroke="black" stroke-width="0.9" d="M781.41,-538.83C822.23,-540.57 873.32,-542.74 915.38,-544.53"/>
<polygon fill="black" stroke="black" stroke-width="0.9" points="915.28,-547.33 923.4,-544.88 915.52,-541.74 915.28,-547.33"/>
</g>
<!-- biometrics -->
<g id="node5" class="node">
<title>biometrics</title>
<path fill="none" stroke="black" d="M454.77,-945.13C454.77,-945.13 574.77,-945.13 574.77,-945.13 580.77,-945.13 586.77,-951.13 586.77,-957.13 586.77,-957.13 586.77,-1037.13 586.77,-1037.13 586.77,-1043.13 580.77,-1049.13 574.77,-1049.13 574.77,-1049.13 454.77,-1049.13 454.77,-1049.13 448.77,-1049.13 442.77,-1043.13 442.77,-1037.13 442.77,-1037.13 442.77,-957.13 442.77,-957.13 442.77,-951.13 448.77,-945.13 454.77,-945.13"/>
<text text-anchor="start" x="475.77" y="-1028.73" font-family="Helvetica,sans-Serif" font-weight="bold" font-size="13.00">biometrics</text>
<polyline fill="none" stroke="black" points="442.77,-1019.13 586.77,-1019.13 "/>
<text text-anchor="start" x="449.77" y="-1005.53" font-family="Helvetica,sans-Serif" font-size="12.00">id* </text>
<text text-anchor="start" x="470.77" y="-1005.53" font-family="Helvetica,sans-Serif" font-weight="bold" font-size="12.00">integer</text>
<text text-anchor="start" x="449.77" y="-988.53" font-family="Helvetica,sans-Serif" font-size="12.00">name </text>
<text text-anchor="start" x="488.77" y="-988.53" font-family="Helvetica,sans-Serif" font-weight="bold" font-size="12.00">text</text>
<text text-anchor="start" x="449.77" y="-971.53" font-family="Helvetica,sans-Serif" font-size="12.00">unit </text>
<text text-anchor="start" x="476.77" y="-971.53" font-family="Helvetica,sans-Serif" font-weight="bold" font-size="12.00">text</text>
<text text-anchor="start" x="449.77" y="-954.53" font-family="Helvetica,sans-Serif" font-size="12.00">created </text>
<text text-anchor="start" x="499.77" y="-954.53" font-family="Helvetica,sans-Serif" font-weight="bold" font-size="12.00">int</text>
</g>
<!-- biometric_log -->
<g id="node6" class="node">
<title>biometric_log</title>
<path fill="none" stroke="black" d="M446.34,-722.99C446.34,-722.99 566.34,-722.99 566.34,-722.99 572.34,-722.99 578.34,-728.99 578.34,-734.99 578.34,-734.99 578.34,-848.99 578.34,-848.99 578.34,-854.99 572.34,-860.99 566.34,-860.99 566.34,-860.99 446.34,-860.99 446.34,-860.99 440.34,-860.99 434.34,-854.99 434.34,-848.99 434.34,-848.99 434.34,-734.99 434.34,-734.99 434.34,-728.99 440.34,-722.99 446.34,-722.99"/>
<text text-anchor="start" x="456.34" y="-840.59" font-family="Helvetica,sans-Serif" font-weight="bold" font-size="13.00">biometric_log</text>
<polyline fill="none" stroke="black" points="434.34,-830.99 578.34,-830.99 "/>
<text text-anchor="start" x="441.34" y="-817.39" font-family="Helvetica,sans-Serif" font-size="12.00">id* </text>
<text text-anchor="start" x="462.34" y="-817.39" font-family="Helvetica,sans-Serif" font-weight="bold" font-size="12.00">integer</text>
<text text-anchor="start" x="441.34" y="-800.39" font-family="Helvetica,sans-Serif" font-size="12.00">guid </text>
<text text-anchor="start" x="471.34" y="-800.39" font-family="Helvetica,sans-Serif" font-weight="bold" font-size="12.00">text</text>
<text text-anchor="start" x="441.34" y="-783.39" font-family="Helvetica,sans-Serif" font-size="12.00">user_id </text>
<text text-anchor="start" x="488.34" y="-783.39" font-family="Helvetica,sans-Serif" font-weight="bold" font-size="12.00">int</text>
<text text-anchor="start" x="441.34" y="-766.39" font-family="Helvetica,sans-Serif" font-size="12.00">date </text>
<text text-anchor="start" x="472.34" y="-766.39" font-family="Helvetica,sans-Serif" font-weight="bold" font-size="12.00">date</text>
<text text-anchor="start" x="441.34" y="-749.39" font-family="Helvetica,sans-Serif" font-size="12.00">biometric_id </text>
<text text-anchor="start" x="519.34" y="-749.39" font-family="Helvetica,sans-Serif" font-weight="bold" font-size="12.00">int</text>
<text text-anchor="start" x="441.34" y="-732.39" font-family="Helvetica,sans-Serif" font-size="12.00">value </text>
<text text-anchor="start" x="478.34" y="-732.39" font-family="Helvetica,sans-Serif" font-weight="bold" font-size="12.00">real</text>
</g>
<!-- biometric_log&#45;&gt;users -->
<g id="edge4" class="edge">
<title>biometric_log&#45;&gt;users</title>
<path fill="none" stroke="black" stroke-width="0.9" d="M560.94,-722.99C582.73,-695.45 608.21,-663.24 631.84,-633.38"/>
<polygon fill="black" stroke="black" stroke-width="0.9" points="634.08,-635.06 636.85,-627.05 629.69,-631.58 634.08,-635.06"/>
</g>
<!-- biometric_log&#45;&gt;biometrics -->
<g id="edge3" class="edge">
<title>biometric_log&#45;&gt;biometrics</title>
<path fill="none" stroke="black" stroke-width="0.9" d="M509.18,-861.16C510.19,-885.71 511.31,-913.14 512.29,-936.89"/>
<polygon fill="black" stroke="black" stroke-width="0.9" points="509.5,-937.25 512.63,-945.12 515.1,-937.02 509.5,-937.25"/>
</g>
<!-- recipes -->
<g id="node7" class="node">
<title>recipes</title>
<path fill="none" stroke="black" d="M271.25,-86.49C271.25,-86.49 391.25,-86.49 391.25,-86.49 397.25,-86.49 403.25,-92.49 403.25,-98.49 403.25,-98.49 403.25,-178.49 403.25,-178.49 403.25,-184.49 397.25,-190.49 391.25,-190.49 391.25,-190.49 271.25,-190.49 271.25,-190.49 265.25,-190.49 259.25,-184.49 259.25,-178.49 259.25,-178.49 259.25,-98.49 259.25,-98.49 259.25,-92.49 265.25,-86.49 271.25,-86.49"/>
<text text-anchor="start" x="304.25" y="-170.09" font-family="Helvetica,sans-Serif" font-weight="bold" font-size="13.00">recipes</text>
<polyline fill="none" stroke="black" points="259.25,-160.49 403.25,-160.49 "/>
<text text-anchor="start" x="266.25" y="-146.89" font-family="Helvetica,sans-Serif" font-size="12.00">id* </text>
<text text-anchor="start" x="287.25" y="-146.89" font-family="Helvetica,sans-Serif" font-weight="bold" font-size="12.00">integer</text>
<text text-anchor="start" x="266.25" y="-129.89" font-family="Helvetica,sans-Serif" font-size="12.00">guid </text>
<text text-anchor="start" x="296.25" y="-129.89" font-family="Helvetica,sans-Serif" font-weight="bold" font-size="12.00">text</text>
<text text-anchor="start" x="266.25" y="-112.89" font-family="Helvetica,sans-Serif" font-size="12.00">created </text>
<text text-anchor="start" x="316.25" y="-112.89" font-family="Helvetica,sans-Serif" font-weight="bold" font-size="12.00">int</text>
<text text-anchor="start" x="266.25" y="-95.89" font-family="Helvetica,sans-Serif" font-size="12.00">name </text>
<text text-anchor="start" x="305.25" y="-95.89" font-family="Helvetica,sans-Serif" font-weight="bold" font-size="12.00">text</text>
</g>
<!-- recipe_dat -->
<g id="node8" class="node">
<title>recipe_dat</title>
<path fill="none" stroke="black" d="M11.93,-229.65C11.93,-229.65 131.93,-229.65 131.93,-229.65 137.93,-229.65 143.93,-235.65 143.93,-241.65 143.93,-241.65 143.93,-321.65 143.93,-321.65 143.93,-327.65 137.93,-333.65 131.93,-333.65 131.93,-333.65 11.93,-333.65 11.93,-333.65 5.93,-333.65 -0.07,-327.65 -0.07,-321.65 -0.07,-321.65 -0.07,-241.65 -0.07,-241.65 -0.07,-235.65 5.93,-229.65 11.93,-229.65"/>
<text text-anchor="start" x="33.93" y="-313.25" font-family="Helvetica,sans-Serif" font-weight="bold" font-size="13.00">recipe_dat</text>
<polyline fill="none" stroke="black" points="-0.07,-303.65 143.93,-303.65 "/>
<text text-anchor="start" x="6.93" y="-290.05" font-family="Helvetica,sans-Serif" font-size="12.00">recipe_id </text>
<text text-anchor="start" x="64.93" y="-290.05" font-family="Helvetica,sans-Serif" font-weight="bold" font-size="12.00">int</text>
<text text-anchor="start" x="6.93" y="-273.05" font-family="Helvetica,sans-Serif" font-size="12.00">food_id </text>
<text text-anchor="start" x="54.93" y="-273.05" font-family="Helvetica,sans-Serif" font-weight="bold" font-size="12.00">int</text>
<text text-anchor="start" x="6.93" y="-256.05" font-family="Helvetica,sans-Serif" font-size="12.00">grams </text>
<text text-anchor="start" x="49.93" y="-256.05" font-family="Helvetica,sans-Serif" font-weight="bold" font-size="12.00">real</text>
<text text-anchor="start" x="6.93" y="-239.05" font-family="Helvetica,sans-Serif" font-size="12.00">notes </text>
<text text-anchor="start" x="43.93" y="-239.05" font-family="Helvetica,sans-Serif" font-weight="bold" font-size="12.00">text</text>
</g>
<!-- recipe_dat&#45;&gt;recipes -->
<g id="edge5" class="edge">
<title>recipe_dat&#45;&gt;recipes</title>
<path fill="none" stroke="black" stroke-width="0.9" d="M144.16,-241.77C177.6,-223.31 217.43,-201.32 251.72,-182.39"/>
<polygon fill="black" stroke="black" stroke-width="0.9" points="253.3,-184.72 258.95,-178.4 250.6,-179.82 253.3,-184.72"/>
</g>
<!-- meal_names -->
<g id="node9" class="node">
<title>meal_names</title>
<path fill="none" stroke="black" d="M654.32,-0.99C654.32,-0.99 774.32,-0.99 774.32,-0.99 780.32,-0.99 786.32,-6.99 786.32,-12.99 786.32,-12.99 786.32,-58.99 786.32,-58.99 786.32,-64.99 780.32,-70.99 774.32,-70.99 774.32,-70.99 654.32,-70.99 654.32,-70.99 648.32,-70.99 642.32,-64.99 642.32,-58.99 642.32,-58.99 642.32,-12.99 642.32,-12.99 642.32,-6.99 648.32,-0.99 654.32,-0.99"/>
<text text-anchor="start" x="669.32" y="-50.59" font-family="Helvetica,sans-Serif" font-weight="bold" font-size="13.00">meal_names</text>
<polyline fill="none" stroke="black" points="642.32,-40.99 786.32,-40.99 "/>
<text text-anchor="start" x="649.32" y="-27.39" font-family="Helvetica,sans-Serif" font-size="12.00">id* </text>
<text text-anchor="start" x="670.32" y="-27.39" font-family="Helvetica,sans-Serif" font-weight="bold" font-size="12.00">integer</text>
<text text-anchor="start" x="649.32" y="-10.39" font-family="Helvetica,sans-Serif" font-size="12.00">name </text>
<text text-anchor="start" x="688.32" y="-10.39" font-family="Helvetica,sans-Serif" font-weight="bold" font-size="12.00">text</text>
</g>
<!-- food_log -->
<g id="node10" class="node">
<title>food_log</title>
<path fill="none" stroke="black" d="M803.79,-227.73C803.79,-227.73 923.79,-227.73 923.79,-227.73 929.79,-227.73 935.79,-233.73 935.79,-239.73 935.79,-239.73 935.79,-370.73 935.79,-370.73 935.79,-376.73 929.79,-382.73 923.79,-382.73 923.79,-382.73 803.79,-382.73 803.79,-382.73 797.79,-382.73 791.79,-376.73 791.79,-370.73 791.79,-370.73 791.79,-239.73 791.79,-239.73 791.79,-233.73 797.79,-227.73 803.79,-227.73"/>
<text text-anchor="start" x="832.79" y="-362.33" font-family="Helvetica,sans-Serif" font-weight="bold" font-size="13.00">food_log</text>
<polyline fill="none" stroke="black" points="791.79,-352.73 935.79,-352.73 "/>
<text text-anchor="start" x="798.79" y="-338.63" font-family="Helvetica,sans-Serif" font-size="12.00">id* </text>
<text text-anchor="start" x="819.79" y="-338.63" font-family="Helvetica,sans-Serif" font-weight="bold" font-size="12.00">integer</text>
<text text-anchor="start" x="798.79" y="-321.63" font-family="Helvetica,sans-Serif" font-size="12.00">guid </text>
<text text-anchor="start" x="828.79" y="-321.63" font-family="Helvetica,sans-Serif" font-weight="bold" font-size="12.00">text</text>
<text text-anchor="start" x="798.79" y="-304.63" font-family="Helvetica,sans-Serif" font-size="12.00">user_id </text>
<text text-anchor="start" x="845.79" y="-304.63" font-family="Helvetica,sans-Serif" font-weight="bold" font-size="12.00">int</text>
<text text-anchor="start" x="798.79" y="-287.63" font-family="Helvetica,sans-Serif" font-size="12.00">date </text>
<text text-anchor="start" x="829.79" y="-287.63" font-family="Helvetica,sans-Serif" font-weight="bold" font-size="12.00">date</text>
<text text-anchor="start" x="798.79" y="-270.63" font-family="Helvetica,sans-Serif" font-size="12.00">meal_id </text>
<text text-anchor="start" x="849.79" y="-270.63" font-family="Helvetica,sans-Serif" font-weight="bold" font-size="12.00">int</text>
<text text-anchor="start" x="798.79" y="-253.63" font-family="Helvetica,sans-Serif" font-size="12.00">grams </text>
<text text-anchor="start" x="841.79" y="-253.63" font-family="Helvetica,sans-Serif" font-weight="bold" font-size="12.00">real</text>
<text text-anchor="start" x="798.79" y="-236.63" font-family="Helvetica,sans-Serif" font-size="12.00">food_id </text>
<text text-anchor="start" x="846.79" y="-236.63" font-family="Helvetica,sans-Serif" font-weight="bold" font-size="12.00">int</text>
</g>
<!-- food_log&#45;&gt;users -->
<g id="edge7" class="edge">
<title>food_log&#45;&gt;users</title>
<path fill="none" stroke="black" stroke-width="0.9" d="M811.63,-382.95C803.34,-395.31 794.61,-408.31 785.9,-421.29"/>
<polygon fill="black" stroke="black" stroke-width="0.9" points="783.48,-419.88 781.35,-428.08 788.13,-423 783.48,-419.88"/>
</g>
<!-- food_log&#45;&gt;meal_names -->
<g id="edge6" class="edge">
<title>food_log&#45;&gt;meal_names</title>
<path fill="none" stroke="black" stroke-width="0.9" d="M820.76,-227.71C793.8,-179.16 760.1,-118.44 737.92,-78.5"/>
<polygon fill="black" stroke="black" stroke-width="0.9" points="740.25,-76.93 733.92,-71.29 735.36,-79.64 740.25,-76.93"/>
</g>
<!-- recipe_log -->
<g id="node11" class="node">
<title>recipe_log</title>
<path fill="none" stroke="black" d="M463.65,-169.66C463.65,-169.66 583.65,-169.66 583.65,-169.66 589.65,-169.66 595.65,-175.66 595.65,-181.66 595.65,-181.66 595.65,-312.66 595.65,-312.66 595.65,-318.66 589.65,-324.66 583.65,-324.66 583.65,-324.66 463.65,-324.66 463.65,-324.66 457.65,-324.66 451.65,-318.66 451.65,-312.66 451.65,-312.66 451.65,-181.66 451.65,-181.66 451.65,-175.66 457.65,-169.66 463.65,-169.66"/>
<text text-anchor="start" x="485.65" y="-304.26" font-family="Helvetica,sans-Serif" font-weight="bold" font-size="13.00">recipe_log</text>
<polyline fill="none" stroke="black" points="451.65,-294.66 595.65,-294.66 "/>
<text text-anchor="start" x="458.65" y="-280.56" font-family="Helvetica,sans-Serif" font-size="12.00">id* </text>
<text text-anchor="start" x="479.65" y="-280.56" font-family="Helvetica,sans-Serif" font-weight="bold" font-size="12.00">integer</text>
<text text-anchor="start" x="458.65" y="-263.56" font-family="Helvetica,sans-Serif" font-size="12.00">guid </text>
<text text-anchor="start" x="488.65" y="-263.56" font-family="Helvetica,sans-Serif" font-weight="bold" font-size="12.00">text</text>
<text text-anchor="start" x="458.65" y="-246.56" font-family="Helvetica,sans-Serif" font-size="12.00">user_id </text>
<text text-anchor="start" x="505.65" y="-246.56" font-family="Helvetica,sans-Serif" font-weight="bold" font-size="12.00">int</text>
<text text-anchor="start" x="458.65" y="-229.56" font-family="Helvetica,sans-Serif" font-size="12.00">date </text>
<text text-anchor="start" x="489.65" y="-229.56" font-family="Helvetica,sans-Serif" font-weight="bold" font-size="12.00">date</text>
<text text-anchor="start" x="458.65" y="-212.56" font-family="Helvetica,sans-Serif" font-size="12.00">meal_id </text>
<text text-anchor="start" x="509.65" y="-212.56" font-family="Helvetica,sans-Serif" font-weight="bold" font-size="12.00">int</text>
<text text-anchor="start" x="458.65" y="-195.56" font-family="Helvetica,sans-Serif" font-size="12.00">grams </text>
<text text-anchor="start" x="501.65" y="-195.56" font-family="Helvetica,sans-Serif" font-weight="bold" font-size="12.00">real</text>
<text text-anchor="start" x="458.65" y="-178.56" font-family="Helvetica,sans-Serif" font-size="12.00">recipe_id </text>
<text text-anchor="start" x="516.65" y="-178.56" font-family="Helvetica,sans-Serif" font-weight="bold" font-size="12.00">int</text>
</g>
<!-- recipe_log&#45;&gt;users -->
<g id="edge10" class="edge">
<title>recipe_log&#45;&gt;users</title>
<path fill="none" stroke="black" stroke-width="0.9" d="M573.59,-324.88C591.69,-353.05 612.58,-385.55 632.45,-416.48"/>
<polygon fill="black" stroke="black" stroke-width="0.9" points="630.26,-418.25 636.94,-423.47 634.97,-415.22 630.26,-418.25"/>
</g>
<!-- recipe_log&#45;&gt;recipes -->
<g id="edge8" class="edge">
<title>recipe_log&#45;&gt;recipes</title>
<path fill="none" stroke="black" stroke-width="0.9" d="M451.46,-206.39C438.12,-198.85 424.11,-190.94 410.56,-183.29"/>
<polygon fill="black" stroke="black" stroke-width="0.9" points="411.87,-180.81 403.53,-179.31 409.12,-185.69 411.87,-180.81"/>
</g>
<!-- recipe_log&#45;&gt;meal_names -->
<g id="edge9" class="edge">
<title>recipe_log&#45;&gt;meal_names</title>
<path fill="none" stroke="black" stroke-width="0.9" d="M593.84,-169.43C622.05,-138.18 653.43,-103.43 677.09,-77.22"/>
<polygon fill="black" stroke="black" stroke-width="0.9" points="679.34,-78.91 682.63,-71.09 675.19,-75.15 679.34,-78.91"/>
</g>
<!-- rda -->
<g id="node12" class="node">
<title>rda</title>
<path fill="none" stroke="black" d="M742.02,-742.92C742.02,-742.92 862.02,-742.92 862.02,-742.92 868.02,-742.92 874.02,-748.92 874.02,-754.92 874.02,-754.92 874.02,-834.92 874.02,-834.92 874.02,-840.92 868.02,-846.92 862.02,-846.92 862.02,-846.92 742.02,-846.92 742.02,-846.92 736.02,-846.92 730.02,-840.92 730.02,-834.92 730.02,-834.92 730.02,-754.92 730.02,-754.92 730.02,-748.92 736.02,-742.92 742.02,-742.92"/>
<text text-anchor="start" x="790.02" y="-826.52" font-family="Helvetica,sans-Serif" font-weight="bold" font-size="13.00">rda</text>
<polyline fill="none" stroke="black" points="730.02,-816.92 874.02,-816.92 "/>
<text text-anchor="start" x="737.02" y="-803.32" font-family="Helvetica,sans-Serif" font-size="12.00">user_id </text>
<text text-anchor="start" x="784.02" y="-803.32" font-family="Helvetica,sans-Serif" font-weight="bold" font-size="12.00">int</text>
<text text-anchor="start" x="737.02" y="-786.32" font-family="Helvetica,sans-Serif" font-size="12.00">nutr_id </text>
<text text-anchor="start" x="783.02" y="-786.32" font-family="Helvetica,sans-Serif" font-weight="bold" font-size="12.00">int</text>
<text text-anchor="start" x="737.02" y="-769.32" font-family="Helvetica,sans-Serif" font-size="12.00">rda </text>
<text text-anchor="start" x="761.02" y="-769.32" font-family="Helvetica,sans-Serif" font-weight="bold" font-size="12.00">real</text>
<text text-anchor="start" x="737.02" y="-752.32" font-family="Helvetica,sans-Serif" font-size="12.00">synced </text>
<text text-anchor="start" x="783.02" y="-752.32" font-family="Helvetica,sans-Serif" font-weight="bold" font-size="12.00">int</text>
</g>
<!-- rda&#45;&gt;users -->
<g id="edge11" class="edge">
<title>rda&#45;&gt;users</title>
<path fill="none" stroke="black" stroke-width="0.9" d="M783.33,-742.79C775.06,-719.72 764.93,-691.48 754.85,-663.37"/>
<polygon fill="black" stroke="black" stroke-width="0.9" points="757.49,-662.42 752.15,-655.83 752.21,-664.31 757.49,-662.42"/>
</g>
<!-- sync_data -->
<g id="node13" class="node">
<title>sync_data</title>
<path fill="none" stroke="black" d="M213.24,-670.14C213.24,-670.14 333.24,-670.14 333.24,-670.14 339.24,-670.14 345.24,-676.14 345.24,-682.14 345.24,-682.14 345.24,-779.14 345.24,-779.14 345.24,-785.14 339.24,-791.14 333.24,-791.14 333.24,-791.14 213.24,-791.14 213.24,-791.14 207.24,-791.14 201.24,-785.14 201.24,-779.14 201.24,-779.14 201.24,-682.14 201.24,-682.14 201.24,-676.14 207.24,-670.14 213.24,-670.14"/>
<text text-anchor="start" x="237.24" y="-770.74" font-family="Helvetica,sans-Serif" font-weight="bold" font-size="13.00">sync_data</text>
<polyline fill="none" stroke="black" points="201.24,-761.14 345.24,-761.14 "/>
<text text-anchor="start" x="208.24" y="-747.04" font-family="Helvetica,sans-Serif" font-size="12.00">id* </text>
<text text-anchor="start" x="229.24" y="-747.04" font-family="Helvetica,sans-Serif" font-weight="bold" font-size="12.00">integer</text>
<text text-anchor="start" x="208.24" y="-730.04" font-family="Helvetica,sans-Serif" font-size="12.00">tablename </text>
<text text-anchor="start" x="277.24" y="-730.04" font-family="Helvetica,sans-Serif" font-weight="bold" font-size="12.00">text</text>
<text text-anchor="start" x="208.24" y="-713.04" font-family="Helvetica,sans-Serif" font-size="12.00">guid </text>
<text text-anchor="start" x="238.24" y="-713.04" font-family="Helvetica,sans-Serif" font-weight="bold" font-size="12.00">text</text>
<text text-anchor="start" x="208.24" y="-696.04" font-family="Helvetica,sans-Serif" font-size="12.00">constraint </text>
<text text-anchor="start" x="272.24" y="-696.04" font-family="Helvetica,sans-Serif" font-weight="bold" font-size="12.00">text</text>
<text text-anchor="start" x="208.24" y="-679.04" font-family="Helvetica,sans-Serif" font-size="12.00">action </text>
<text text-anchor="start" x="249.24" y="-679.04" font-family="Helvetica,sans-Serif" font-weight="bold" font-size="12.00">text</text>
</g>
</g>
</svg>
