<?xml version="1.0" encoding="UTF-8" standalone="no"?>
<!DOCTYPE svg PUBLIC "-//W3C//DTD SVG 1.1//EN"
 "http://www.w3.org/Graphics/SVG/1.1/DTD/svg11.dtd">
<!-- Generated by graphviz version 2.43.0 (0)
 -->
<!-- Title: undefined Pages: 1 -->
<svg width="787pt" height="1516pt"
 viewBox="0.00 0.00 786.60 1515.60" xmlns="http://www.w3.org/2000/svg" xmlns:xlink="http://www.w3.org/1999/xlink">
<g id="graph0" class="graph" transform="scale(1 1) rotate(0) translate(28.8 1465.8)">
<title>undefined</title>
<polygon fill="white" stroke="transparent" points="-28.8,49.8 -28.8,-1465.8 757.8,-1465.8 757.8,49.8 -28.8,49.8"/>
<text text-anchor="start" x="336" y="12.6" font-family="Helvetica,sans-Serif" font-weight="bold" font-size="12.00">nt.sqlite</text>
<!-- version -->
<g id="node1" class="node">
<title>version</title>
<path fill="none" stroke="black" d="M597.24,-715.64C597.24,-715.64 717.24,-715.64 717.24,-715.64 723.24,-715.64 729.24,-721.64 729.24,-727.64 729.24,-727.64 729.24,-807.64 729.24,-807.64 729.24,-813.64 723.24,-819.64 717.24,-819.64 717.24,-819.64 597.24,-819.64 597.24,-819.64 591.24,-819.64 585.24,-813.64 585.24,-807.64 585.24,-807.64 585.24,-727.64 585.24,-727.64 585.24,-721.64 591.24,-715.64 597.24,-715.64"/>
<text text-anchor="start" x="630.24" y="-799.24" font-family="Helvetica,sans-Serif" font-weight="bold" font-size="13.00">version</text>
<polyline fill="none" stroke="black" points="585.24,-789.64 729.24,-789.64 "/>
<text text-anchor="start" x="592.24" y="-776.04" font-family="Helvetica,sans-Serif" font-size="12.00">id* </text>
<text text-anchor="start" x="613.24" y="-776.04" font-family="Helvetica,sans-Serif" font-weight="bold" font-size="12.00">integer</text>
<text text-anchor="start" x="592.24" y="-759.04" font-family="Helvetica,sans-Serif" font-size="12.00">version </text>
<text text-anchor="start" x="640.24" y="-759.04" font-family="Helvetica,sans-Serif" font-weight="bold" font-size="12.00">text</text>
<text text-anchor="start" x="592.24" y="-742.04" font-family="Helvetica,sans-Serif" font-size="12.00">created </text>
<text text-anchor="start" x="642.24" y="-742.04" font-family="Helvetica,sans-Serif" font-weight="bold" font-size="12.00">date</text>
<text text-anchor="start" x="592.24" y="-725.04" font-family="Helvetica,sans-Serif" font-size="12.00">notes </text>
<text text-anchor="start" x="629.24" y="-725.04" font-family="Helvetica,sans-Serif" font-weight="bold" font-size="12.00">text</text>
</g>
<!-- bmr_eqs -->
<g id="node2" class="node">
<title>bmr_eqs</title>
<path fill="none" stroke="black" d="M12.26,-812.54C12.26,-812.54 132.26,-812.54 132.26,-812.54 138.26,-812.54 144.26,-818.54 144.26,-824.54 144.26,-824.54 144.26,-870.54 144.26,-870.54 144.26,-876.54 138.26,-882.54 132.26,-882.54 132.26,-882.54 12.26,-882.54 12.26,-882.54 6.26,-882.54 0.26,-876.54 0.26,-870.54 0.26,-870.54 0.26,-824.54 0.26,-824.54 0.26,-818.54 6.26,-812.54 12.26,-812.54"/>
<text text-anchor="start" x="41.26" y="-862.14" font-family="Helvetica,sans-Serif" font-weight="bold" font-size="13.00">bmr_eqs</text>
<polyline fill="none" stroke="black" points="0.26,-852.54 144.26,-852.54 "/>
<text text-anchor="start" x="7.26" y="-838.94" font-family="Helvetica,sans-Serif" font-size="12.00">id* </text>
<text text-anchor="start" x="28.26" y="-838.94" font-family="Helvetica,sans-Serif" font-weight="bold" font-size="12.00">integer</text>
<text text-anchor="start" x="7.26" y="-821.94" font-family="Helvetica,sans-Serif" font-size="12.00">bmr_eq </text>
<text text-anchor="start" x="57.26" y="-821.94" font-family="Helvetica,sans-Serif" font-weight="bold" font-size="12.00">text</text>
</g>
<!-- bf_eqs -->
<g id="node3" class="node">
<title>bf_eqs</title>
<path fill="none" stroke="black" d="M592.22,-535.74C592.22,-535.74 712.22,-535.74 712.22,-535.74 718.22,-535.74 724.22,-541.74 724.22,-547.74 724.22,-547.74 724.22,-593.74 724.22,-593.74 724.22,-599.74 718.22,-605.74 712.22,-605.74 712.22,-605.74 592.22,-605.74 592.22,-605.74 586.22,-605.74 580.22,-599.74 580.22,-593.74 580.22,-593.74 580.22,-547.74 580.22,-547.74 580.22,-541.74 586.22,-535.74 592.22,-535.74"/>
<text text-anchor="start" x="628.22" y="-585.34" font-family="Helvetica,sans-Serif" font-weight="bold" font-size="13.00">bf_eqs</text>
<polyline fill="none" stroke="black" points="580.22,-575.74 724.22,-575.74 "/>
<text text-anchor="start" x="587.22" y="-562.14" font-family="Helvetica,sans-Serif" font-size="12.00">id* </text>
<text text-anchor="start" x="608.22" y="-562.14" font-family="Helvetica,sans-Serif" font-weight="bold" font-size="12.00">integer</text>
<text text-anchor="start" x="587.22" y="-545.14" font-family="Helvetica,sans-Serif" font-size="12.00">bf_eq </text>
<text text-anchor="start" x="624.22" y="-545.14" font-family="Helvetica,sans-Serif" font-weight="bold" font-size="12.00">text</text>
</g>
<!-- users -->
<g id="node4" class="node">
<title>users</title>
<path fill="none" stroke="black" d="M279.12,-619.16C279.12,-619.16 399.12,-619.16 399.12,-619.16 405.12,-619.16 411.12,-625.16 411.12,-631.16 411.12,-631.16 411.12,-847.16 411.12,-847.16 411.12,-853.16 405.12,-859.16 399.12,-859.16 399.12,-859.16 279.12,-859.16 279.12,-859.16 273.12,-859.16 267.12,-853.16 267.12,-847.16 267.12,-847.16 267.12,-631.16 267.12,-631.16 267.12,-625.16 273.12,-619.16 279.12,-619.16"/>
<text text-anchor="start" x="319.12" y="-838.76" font-family="Helvetica,sans-Serif" font-weight="bold" font-size="13.00">users</text>
<polyline fill="none" stroke="black" points="267.12,-829.16 411.12,-829.16 "/>
<text text-anchor="start" x="274.12" y="-815.56" font-family="Helvetica,sans-Serif" font-size="12.00">id* </text>
<text text-anchor="start" x="295.12" y="-815.56" font-family="Helvetica,sans-Serif" font-weight="bold" font-size="12.00">integer</text>
<text text-anchor="start" x="274.12" y="-798.56" font-family="Helvetica,sans-Serif" font-size="12.00">name </text>
<text text-anchor="start" x="313.12" y="-798.56" font-family="Helvetica,sans-Serif" font-weight="bold" font-size="12.00">text</text>
<text text-anchor="start" x="274.12" y="-781.56" font-family="Helvetica,sans-Serif" font-size="12.00">guid </text>
<text text-anchor="start" x="304.12" y="-781.56" font-family="Helvetica,sans-Serif" font-weight="bold" font-size="12.00">text</text>
<text text-anchor="start" x="274.12" y="-764.56" font-family="Helvetica,sans-Serif" font-size="12.00">created </text>
<text text-anchor="start" x="324.12" y="-764.56" font-family="Helvetica,sans-Serif" font-weight="bold" font-size="12.00">int</text>
<text text-anchor="start" x="274.12" y="-747.56" font-family="Helvetica,sans-Serif" font-size="12.00">eula </text>
<text text-anchor="start" x="304.12" y="-747.56" font-family="Helvetica,sans-Serif" font-weight="bold" font-size="12.00">int</text>
<text text-anchor="start" x="274.12" y="-730.56" font-family="Helvetica,sans-Serif" font-size="12.00">gender </text>
<text text-anchor="start" x="321.12" y="-730.56" font-family="Helvetica,sans-Serif" font-weight="bold" font-size="12.00">text</text>
<text text-anchor="start" x="274.12" y="-713.56" font-family="Helvetica,sans-Serif" font-size="12.00">dob </text>
<text text-anchor="start" x="301.12" y="-713.56" font-family="Helvetica,sans-Serif" font-weight="bold" font-size="12.00">date</text>
<text text-anchor="start" x="274.12" y="-696.56" font-family="Helvetica,sans-Serif" font-size="12.00">act_lvl </text>
<text text-anchor="start" x="316.12" y="-696.56" font-family="Helvetica,sans-Serif" font-weight="bold" font-size="12.00">int</text>
<text text-anchor="start" x="274.12" y="-679.56" font-family="Helvetica,sans-Serif" font-size="12.00">goal_wt </text>
<text text-anchor="start" x="324.12" y="-679.56" font-family="Helvetica,sans-Serif" font-weight="bold" font-size="12.00">real</text>
<text text-anchor="start" x="274.12" y="-662.56" font-family="Helvetica,sans-Serif" font-size="12.00">goal_bf </text>
<text text-anchor="start" x="322.12" y="-662.56" font-family="Helvetica,sans-Serif" font-weight="bold" font-size="12.00">real</text>
<text text-anchor="start" x="274.12" y="-645.56" font-family="Helvetica,sans-Serif" font-size="12.00">bmr_id </text>
<text text-anchor="start" x="320.12" y="-645.56" font-family="Helvetica,sans-Serif" font-weight="bold" font-size="12.00">int</text>
<text text-anchor="start" x="274.12" y="-628.56" font-family="Helvetica,sans-Serif" font-size="12.00">bf_id </text>
<text text-anchor="start" x="307.12" y="-628.56" font-family="Helvetica,sans-Serif" font-weight="bold" font-size="12.00">int</text>
</g>
<!-- users&#45;&gt;bmr_eqs -->
<g id="edge2" class="edge">
<title>users&#45;&gt;bmr_eqs</title>
<path fill="none" stroke="black" stroke-width="0.9" d="M266.91,-768.49C231.46,-782.89 188.64,-800.27 152.21,-815.07"/>
<polygon fill="black" stroke="black" stroke-width="0.9" points="150.89,-812.58 144.53,-818.19 153,-817.77 150.89,-812.58"/>
</g>
<!-- users&#45;&gt;bf_eqs -->
<g id="edge1" class="edge">
<title>users&#45;&gt;bf_eqs</title>
<path fill="none" stroke="black" stroke-width="0.9" d="M411.35,-700.31C461.87,-673.13 529.09,-636.97 579.68,-609.76"/>
<polygon fill="black" stroke="black" stroke-width="0.9" points="581.3,-612.07 587.02,-605.81 578.64,-607.13 581.3,-612.07"/>
</g>
<!-- biometrics -->
<g id="node5" class="node">
<title>biometrics</title>
<path fill="none" stroke="black" d="M357.21,-1332.17C357.21,-1332.17 477.21,-1332.17 477.21,-1332.17 483.21,-1332.17 489.21,-1338.17 489.21,-1344.17 489.21,-1344.17 489.21,-1424.17 489.21,-1424.17 489.21,-1430.17 483.21,-1436.17 477.21,-1436.17 477.21,-1436.17 357.21,-1436.17 357.21,-1436.17 351.21,-1436.17 345.21,-1430.17 345.21,-1424.17 345.21,-1424.17 345.21,-1344.17 345.21,-1344.17 345.21,-1338.17 351.21,-1332.17 357.21,-1332.17"/>
<text text-anchor="start" x="378.21" y="-1415.77" font-family="Helvetica,sans-Serif" font-weight="bold" font-size="13.00">biometrics</text>
<polyline fill="none" stroke="black" points="345.21,-1406.17 489.21,-1406.17 "/>
<text text-anchor="start" x="352.21" y="-1392.57" font-family="Helvetica,sans-Serif" font-size="12.00">id* </text>
<text text-anchor="start" x="373.21" y="-1392.57" font-family="Helvetica,sans-Serif" font-weight="bold" font-size="12.00">integer</text>
<text text-anchor="start" x="352.21" y="-1375.57" font-family="Helvetica,sans-Serif" font-size="12.00">name </text>
<text text-anchor="start" x="391.21" y="-1375.57" font-family="Helvetica,sans-Serif" font-weight="bold" font-size="12.00">text</text>
<text text-anchor="start" x="352.21" y="-1358.57" font-family="Helvetica,sans-Serif" font-size="12.00">unit </text>
<text text-anchor="start" x="379.21" y="-1358.57" font-family="Helvetica,sans-Serif" font-weight="bold" font-size="12.00">text</text>
<text text-anchor="start" x="352.21" y="-1341.57" font-family="Helvetica,sans-Serif" font-size="12.00">created </text>
<text text-anchor="start" x="402.21" y="-1341.57" font-family="Helvetica,sans-Serif" font-weight="bold" font-size="12.00">int</text>
</g>
<!-- biometric_log -->
<g id="node6" class="node">
<title>biometric_log</title>
<path fill="none" stroke="black" d="M539.76,-886.43C539.76,-886.43 659.76,-886.43 659.76,-886.43 665.76,-886.43 671.76,-892.43 671.76,-898.43 671.76,-898.43 671.76,-995.43 671.76,-995.43 671.76,-1001.43 665.76,-1007.43 659.76,-1007.43 659.76,-1007.43 539.76,-1007.43 539.76,-1007.43 533.76,-1007.43 527.76,-1001.43 527.76,-995.43 527.76,-995.43 527.76,-898.43 527.76,-898.43 527.76,-892.43 533.76,-886.43 539.76,-886.43"/>
<text text-anchor="start" x="549.76" y="-987.03" font-family="Helvetica,sans-Serif" font-weight="bold" font-size="13.00">biometric_log</text>
<polyline fill="none" stroke="black" points="527.76,-977.43 671.76,-977.43 "/>
<text text-anchor="start" x="534.76" y="-963.33" font-family="Helvetica,sans-Serif" font-size="12.00">id* </text>
<text text-anchor="start" x="555.76" y="-963.33" font-family="Helvetica,sans-Serif" font-weight="bold" font-size="12.00">integer</text>
<text text-anchor="start" x="534.76" y="-946.33" font-family="Helvetica,sans-Serif" font-size="12.00">guid </text>
<text text-anchor="start" x="564.76" y="-946.33" font-family="Helvetica,sans-Serif" font-weight="bold" font-size="12.00">text</text>
<text text-anchor="start" x="534.76" y="-929.33" font-family="Helvetica,sans-Serif" font-size="12.00">user_id </text>
<text text-anchor="start" x="581.76" y="-929.33" font-family="Helvetica,sans-Serif" font-weight="bold" font-size="12.00">int</text>
<text text-anchor="start" x="534.76" y="-912.33" font-family="Helvetica,sans-Serif" font-size="12.00">date </text>
<text text-anchor="start" x="565.76" y="-912.33" font-family="Helvetica,sans-Serif" font-weight="bold" font-size="12.00">int</text>
<text text-anchor="start" x="534.76" y="-895.33" font-family="Helvetica,sans-Serif" font-size="12.00">notes </text>
<text text-anchor="start" x="571.76" y="-895.33" font-family="Helvetica,sans-Serif" font-weight="bold" font-size="12.00">text</text>
</g>
<!-- biometric_log&#45;&gt;users -->
<g id="edge3" class="edge">
<title>biometric_log&#45;&gt;users</title>
<path fill="none" stroke="black" stroke-width="0.9" d="M527.51,-889.33C493.47,-862.2 452.79,-829.77 417.95,-802"/>
<polygon fill="black" stroke="black" stroke-width="0.9" points="419.52,-799.67 411.52,-796.87 416.03,-804.05 419.52,-799.67"/>
</g>
<!-- bio_log_entry -->
<g id="node7" class="node">
<title>bio_log_entry</title>
<path fill="none" stroke="black" d="M553.35,-1148.21C553.35,-1148.21 673.35,-1148.21 673.35,-1148.21 679.35,-1148.21 685.35,-1154.21 685.35,-1160.21 685.35,-1160.21 685.35,-1223.21 685.35,-1223.21 685.35,-1229.21 679.35,-1235.21 673.35,-1235.21 673.35,-1235.21 553.35,-1235.21 553.35,-1235.21 547.35,-1235.21 541.35,-1229.21 541.35,-1223.21 541.35,-1223.21 541.35,-1160.21 541.35,-1160.21 541.35,-1154.21 547.35,-1148.21 553.35,-1148.21"/>
<text text-anchor="start" x="564.35" y="-1214.81" font-family="Helvetica,sans-Serif" font-weight="bold" font-size="13.00">bio_log_entry</text>
<polyline fill="none" stroke="black" points="541.35,-1205.21 685.35,-1205.21 "/>
<text text-anchor="start" x="548.35" y="-1191.11" font-family="Helvetica,sans-Serif" font-size="12.00">log_id* </text>
<text text-anchor="start" x="593.35" y="-1191.11" font-family="Helvetica,sans-Serif" font-weight="bold" font-size="12.00">int</text>
<text text-anchor="start" x="548.35" y="-1174.11" font-family="Helvetica,sans-Serif" font-size="12.00">biometric_id* </text>
<text text-anchor="start" x="632.35" y="-1174.11" font-family="Helvetica,sans-Serif" font-weight="bold" font-size="12.00">int</text>
<text text-anchor="start" x="548.35" y="-1157.11" font-family="Helvetica,sans-Serif" font-size="12.00">value </text>
<text text-anchor="start" x="585.35" y="-1157.11" font-family="Helvetica,sans-Serif" font-weight="bold" font-size="12.00">real</text>
</g>
<!-- bio_log_entry&#45;&gt;biometrics -->
<g id="edge4" class="edge">
<title>bio_log_entry&#45;&gt;biometrics</title>
<path fill="none" stroke="black" stroke-width="0.9" d="M568.84,-1235.39C541.4,-1262.31 505.88,-1297.16 476.12,-1326.36"/>
<polygon fill="black" stroke="black" stroke-width="0.9" points="474,-1324.52 470.25,-1332.12 477.92,-1328.52 474,-1324.52"/>
</g>
<!-- bio_log_entry&#45;&gt;biometric_log -->
<g id="edge5" class="edge">
<title>bio_log_entry&#45;&gt;biometric_log</title>
<path fill="none" stroke="black" stroke-width="0.9" d="M610.92,-1147.95C608.88,-1111.26 605.94,-1058.22 603.59,-1015.84"/>
<polygon fill="black" stroke="black" stroke-width="0.9" points="606.38,-1015.61 603.14,-1007.78 600.79,-1015.92 606.38,-1015.61"/>
</g>
<!-- recipes -->
<g id="node8" class="node">
<title>recipes</title>
<path fill="none" stroke="black" d="M367.25,-137.08C367.25,-137.08 487.25,-137.08 487.25,-137.08 493.25,-137.08 499.25,-143.08 499.25,-149.08 499.25,-149.08 499.25,-229.08 499.25,-229.08 499.25,-235.08 493.25,-241.08 487.25,-241.08 487.25,-241.08 367.25,-241.08 367.25,-241.08 361.25,-241.08 355.25,-235.08 355.25,-229.08 355.25,-229.08 355.25,-149.08 355.25,-149.08 355.25,-143.08 361.25,-137.08 367.25,-137.08"/>
<text text-anchor="start" x="400.25" y="-220.68" font-family="Helvetica,sans-Serif" font-weight="bold" font-size="13.00">recipes</text>
<polyline fill="none" stroke="black" points="355.25,-211.08 499.25,-211.08 "/>
<text text-anchor="start" x="362.25" y="-197.48" font-family="Helvetica,sans-Serif" font-size="12.00">id* </text>
<text text-anchor="start" x="383.25" y="-197.48" font-family="Helvetica,sans-Serif" font-weight="bold" font-size="12.00">integer</text>
<text text-anchor="start" x="362.25" y="-180.48" font-family="Helvetica,sans-Serif" font-size="12.00">guid </text>
<text text-anchor="start" x="392.25" y="-180.48" font-family="Helvetica,sans-Serif" font-weight="bold" font-size="12.00">text</text>
<text text-anchor="start" x="362.25" y="-163.48" font-family="Helvetica,sans-Serif" font-size="12.00">created </text>
<text text-anchor="start" x="412.25" y="-163.48" font-family="Helvetica,sans-Serif" font-weight="bold" font-size="12.00">int</text>
<text text-anchor="start" x="362.25" y="-146.48" font-family="Helvetica,sans-Serif" font-size="12.00">name </text>
<text text-anchor="start" x="401.25" y="-146.48" font-family="Helvetica,sans-Serif" font-weight="bold" font-size="12.00">text</text>
</g>
<!-- recipe_dat -->
<g id="node9" class="node">
<title>recipe_dat</title>
<path fill="none" stroke="black" d="M520.17,-0.07C520.17,-0.07 640.17,-0.07 640.17,-0.07 646.17,-0.07 652.17,-6.07 652.17,-12.07 652.17,-12.07 652.17,-92.07 652.17,-92.07 652.17,-98.07 646.17,-104.07 640.17,-104.07 640.17,-104.07 520.17,-104.07 520.17,-104.07 514.17,-104.07 508.17,-98.07 508.17,-92.07 508.17,-92.07 508.17,-12.07 508.17,-12.07 508.17,-6.07 514.17,-0.07 520.17,-0.07"/>
<text text-anchor="start" x="542.17" y="-83.67" font-family="Helvetica,sans-Serif" font-weight="bold" font-size="13.00">recipe_dat</text>
<polyline fill="none" stroke="black" points="508.17,-74.07 652.17,-74.07 "/>
<text text-anchor="start" x="515.17" y="-60.47" font-family="Helvetica,sans-Serif" font-size="12.00">recipe_id* </text>
<text text-anchor="start" x="579.17" y="-60.47" font-family="Helvetica,sans-Serif" font-weight="bold" font-size="12.00">int</text>
<text text-anchor="start" x="515.17" y="-43.47" font-family="Helvetica,sans-Serif" font-size="12.00">food_id* </text>
<text text-anchor="start" x="569.17" y="-43.47" font-family="Helvetica,sans-Serif" font-weight="bold" font-size="12.00">int</text>
<text text-anchor="start" x="515.17" y="-26.47" font-family="Helvetica,sans-Serif" font-size="12.00">grams </text>
<text text-anchor="start" x="558.17" y="-26.47" font-family="Helvetica,sans-Serif" font-weight="bold" font-size="12.00">real</text>
<text text-anchor="start" x="515.17" y="-9.47" font-family="Helvetica,sans-Serif" font-size="12.00">notes </text>
<text text-anchor="start" x="552.17" y="-9.47" font-family="Helvetica,sans-Serif" font-weight="bold" font-size="12.00">text</text>
</g>
<!-- recipe_dat&#45;&gt;recipes -->
<g id="edge6" class="edge">
<title>recipe_dat&#45;&gt;recipes</title>
<path fill="none" stroke="black" stroke-width="0.9" d="M521.92,-104.26C511.99,-113.15 501.63,-122.43 491.56,-131.46"/>
<polygon fill="black" stroke="black" stroke-width="0.9" points="489.43,-129.61 485.34,-137.04 493.16,-133.78 489.43,-129.61"/>
</g>
<!-- meal_names -->
<g id="node10" class="node">
<title>meal_names</title>
<path fill="none" stroke="black" d="M15.94,-277.55C15.94,-277.55 135.94,-277.55 135.94,-277.55 141.94,-277.55 147.94,-283.55 147.94,-289.55 147.94,-289.55 147.94,-335.55 147.94,-335.55 147.94,-341.55 141.94,-347.55 135.94,-347.55 135.94,-347.55 15.94,-347.55 15.94,-347.55 9.94,-347.55 3.94,-341.55 3.94,-335.55 3.94,-335.55 3.94,-289.55 3.94,-289.55 3.94,-283.55 9.94,-277.55 15.94,-277.55"/>
<text text-anchor="start" x="30.94" y="-327.15" font-family="Helvetica,sans-Serif" font-weight="bold" font-size="13.00">meal_names</text>
<polyline fill="none" stroke="black" points="3.94,-317.55 147.94,-317.55 "/>
<text text-anchor="start" x="10.94" y="-303.95" font-family="Helvetica,sans-Serif" font-size="12.00">id* </text>
<text text-anchor="start" x="31.94" y="-303.95" font-family="Helvetica,sans-Serif" font-weight="bold" font-size="12.00">integer</text>
<text text-anchor="start" x="10.94" y="-286.95" font-family="Helvetica,sans-Serif" font-size="12.00">name </text>
<text text-anchor="start" x="49.94" y="-286.95" font-family="Helvetica,sans-Serif" font-weight="bold" font-size="12.00">text</text>
</g>
<!-- food_log -->
<g id="node11" class="node">
<title>food_log</title>
<path fill="none" stroke="black" d="M31.32,-459.08C31.32,-459.08 151.32,-459.08 151.32,-459.08 157.32,-459.08 163.32,-465.08 163.32,-471.08 163.32,-471.08 163.32,-602.08 163.32,-602.08 163.32,-608.08 157.32,-614.08 151.32,-614.08 151.32,-614.08 31.32,-614.08 31.32,-614.08 25.32,-614.08 19.32,-608.08 19.32,-602.08 19.32,-602.08 19.32,-471.08 19.32,-471.08 19.32,-465.08 25.32,-459.08 31.32,-459.08"/>
<text text-anchor="start" x="60.32" y="-593.68" font-family="Helvetica,sans-Serif" font-weight="bold" font-size="13.00">food_log</text>
<polyline fill="none" stroke="black" points="19.32,-584.08 163.32,-584.08 "/>
<text text-anchor="start" x="26.32" y="-569.98" font-family="Helvetica,sans-Serif" font-size="12.00">id* </text>
<text text-anchor="start" x="47.32" y="-569.98" font-family="Helvetica,sans-Serif" font-weight="bold" font-size="12.00">integer</text>
<text text-anchor="start" x="26.32" y="-552.98" font-family="Helvetica,sans-Serif" font-size="12.00">guid </text>
<text text-anchor="start" x="56.32" y="-552.98" font-family="Helvetica,sans-Serif" font-weight="bold" font-size="12.00">text</text>
<text text-anchor="start" x="26.32" y="-535.98" font-family="Helvetica,sans-Serif" font-size="12.00">user_id </text>
<text text-anchor="start" x="73.32" y="-535.98" font-family="Helvetica,sans-Serif" font-weight="bold" font-size="12.00">int</text>
<text text-anchor="start" x="26.32" y="-518.98" font-family="Helvetica,sans-Serif" font-size="12.00">date </text>
<text text-anchor="start" x="57.32" y="-518.98" font-family="Helvetica,sans-Serif" font-weight="bold" font-size="12.00">date</text>
<text text-anchor="start" x="26.32" y="-501.98" font-family="Helvetica,sans-Serif" font-size="12.00">meal_id </text>
<text text-anchor="start" x="77.32" y="-501.98" font-family="Helvetica,sans-Serif" font-weight="bold" font-size="12.00">int</text>
<text text-anchor="start" x="26.32" y="-484.98" font-family="Helvetica,sans-Serif" font-size="12.00">grams </text>
<text text-anchor="start" x="69.32" y="-484.98" font-family="Helvetica,sans-Serif" font-weight="bold" font-size="12.00">real</text>
<text text-anchor="start" x="26.32" y="-467.98" font-family="Helvetica,sans-Serif" font-size="12.00">food_id </text>
<text text-anchor="start" x="74.32" y="-467.98" font-family="Helvetica,sans-Serif" font-weight="bold" font-size="12.00">int</text>
</g>
<!-- food_log&#45;&gt;users -->
<g id="edge8" class="edge">
<title>food_log&#45;&gt;users</title>
<path fill="none" stroke="black" stroke-width="0.9" d="M163.33,-595.45C193.74,-620.31 229.25,-649.34 260.37,-674.78"/>
<polygon fill="black" stroke="black" stroke-width="0.9" points="258.97,-677.25 266.93,-680.15 262.51,-672.92 258.97,-677.25"/>
</g>
<!-- food_log&#45;&gt;meal_names -->
<g id="edge7" class="edge">
<title>food_log&#45;&gt;meal_names</title>
<path fill="none" stroke="black" stroke-width="0.9" d="M85.98,-458.85C83.62,-424.46 80.93,-385.3 78.93,-356.15"/>
<polygon fill="black" stroke="black" stroke-width="0.9" points="81.7,-355.61 78.36,-347.82 76.12,-356 81.7,-355.61"/>
</g>
<!-- recipe_log -->
<g id="node12" class="node">
<title>recipe_log</title>
<path fill="none" stroke="black" d="M246.24,-347.65C246.24,-347.65 366.24,-347.65 366.24,-347.65 372.24,-347.65 378.24,-353.65 378.24,-359.65 378.24,-359.65 378.24,-490.65 378.24,-490.65 378.24,-496.65 372.24,-502.65 366.24,-502.65 366.24,-502.65 246.24,-502.65 246.24,-502.65 240.24,-502.65 234.24,-496.65 234.24,-490.65 234.24,-490.65 234.24,-359.65 234.24,-359.65 234.24,-353.65 240.24,-347.65 246.24,-347.65"/>
<text text-anchor="start" x="268.24" y="-482.25" font-family="Helvetica,sans-Serif" font-weight="bold" font-size="13.00">recipe_log</text>
<polyline fill="none" stroke="black" points="234.24,-472.65 378.24,-472.65 "/>
<text text-anchor="start" x="241.24" y="-458.55" font-family="Helvetica,sans-Serif" font-size="12.00">id* </text>
<text text-anchor="start" x="262.24" y="-458.55" font-family="Helvetica,sans-Serif" font-weight="bold" font-size="12.00">integer</text>
<text text-anchor="start" x="241.24" y="-441.55" font-family="Helvetica,sans-Serif" font-size="12.00">guid </text>
<text text-anchor="start" x="271.24" y="-441.55" font-family="Helvetica,sans-Serif" font-weight="bold" font-size="12.00">text</text>
<text text-anchor="start" x="241.24" y="-424.55" font-family="Helvetica,sans-Serif" font-size="12.00">user_id </text>
<text text-anchor="start" x="288.24" y="-424.55" font-family="Helvetica,sans-Serif" font-weight="bold" font-size="12.00">int</text>
<text text-anchor="start" x="241.24" y="-407.55" font-family="Helvetica,sans-Serif" font-size="12.00">date </text>
<text text-anchor="start" x="272.24" y="-407.55" font-family="Helvetica,sans-Serif" font-weight="bold" font-size="12.00">date</text>
<text text-anchor="start" x="241.24" y="-390.55" font-family="Helvetica,sans-Serif" font-size="12.00">meal_id </text>
<text text-anchor="start" x="292.24" y="-390.55" font-family="Helvetica,sans-Serif" font-weight="bold" font-size="12.00">int</text>
<text text-anchor="start" x="241.24" y="-373.55" font-family="Helvetica,sans-Serif" font-size="12.00">grams </text>
<text text-anchor="start" x="284.24" y="-373.55" font-family="Helvetica,sans-Serif" font-weight="bold" font-size="12.00">real</text>
<text text-anchor="start" x="241.24" y="-356.55" font-family="Helvetica,sans-Serif" font-size="12.00">recipe_id </text>
<text text-anchor="start" x="299.24" y="-356.55" font-family="Helvetica,sans-Serif" font-weight="bold" font-size="12.00">int</text>
</g>
<!-- recipe_log&#45;&gt;users -->
<g id="edge11" class="edge">
<title>recipe_log&#45;&gt;users</title>
<path fill="none" stroke="black" stroke-width="0.9" d="M314.37,-502.77C317.78,-535.36 321.84,-574.13 325.68,-610.76"/>
<polygon fill="black" stroke="black" stroke-width="0.9" points="322.92,-611.37 326.54,-619.03 328.49,-610.79 322.92,-611.37"/>
</g>
<!-- recipe_log&#45;&gt;recipes -->
<g id="edge9" class="edge">
<title>recipe_log&#45;&gt;recipes</title>
<path fill="none" stroke="black" stroke-width="0.9" d="M346.03,-347.52C362.48,-315.44 381.25,-278.82 396.6,-248.88"/>
<polygon fill="black" stroke="black" stroke-width="0.9" points="399.27,-249.81 400.42,-241.41 394.28,-247.26 399.27,-249.81"/>
</g>
<!-- recipe_log&#45;&gt;meal_names -->
<g id="edge10" class="edge">
<title>recipe_log&#45;&gt;meal_names</title>
<path fill="none" stroke="black" stroke-width="0.9" d="M234,-389.83C209.03,-377.62 180.91,-363.87 155.39,-351.4"/>
<polygon fill="black" stroke="black" stroke-width="0.9" points="156.34,-348.74 147.92,-347.74 153.88,-353.77 156.34,-348.74"/>
</g>
<!-- rda -->
<g id="node13" class="node">
<title>rda</title>
<path fill="none" stroke="black" d="M252.93,-960.97C252.93,-960.97 372.93,-960.97 372.93,-960.97 378.93,-960.97 384.93,-966.97 384.93,-972.97 384.93,-972.97 384.93,-1052.97 384.93,-1052.97 384.93,-1058.97 378.93,-1064.97 372.93,-1064.97 372.93,-1064.97 252.93,-1064.97 252.93,-1064.97 246.93,-1064.97 240.93,-1058.97 240.93,-1052.97 240.93,-1052.97 240.93,-972.97 240.93,-972.97 240.93,-966.97 246.93,-960.97 252.93,-960.97"/>
<text text-anchor="start" x="300.93" y="-1044.57" font-family="Helvetica,sans-Serif" font-weight="bold" font-size="13.00">rda</text>
<polyline fill="none" stroke="black" points="240.93,-1034.97 384.93,-1034.97 "/>
<text text-anchor="start" x="247.93" y="-1021.37" font-family="Helvetica,sans-Serif" font-size="12.00">user_id* </text>
<text text-anchor="start" x="300.93" y="-1021.37" font-family="Helvetica,sans-Serif" font-weight="bold" font-size="12.00">int</text>
<text text-anchor="start" x="247.93" y="-1004.37" font-family="Helvetica,sans-Serif" font-size="12.00">nutr_id* </text>
<text text-anchor="start" x="299.93" y="-1004.37" font-family="Helvetica,sans-Serif" font-weight="bold" font-size="12.00">int</text>
<text text-anchor="start" x="247.93" y="-987.37" font-family="Helvetica,sans-Serif" font-size="12.00">rda </text>
<text text-anchor="start" x="271.93" y="-987.37" font-family="Helvetica,sans-Serif" font-weight="bold" font-size="12.00">real</text>
<text text-anchor="start" x="247.93" y="-970.37" font-family="Helvetica,sans-Serif" font-size="12.00">synced </text>
<text text-anchor="start" x="293.93" y="-970.37" font-family="Helvetica,sans-Serif" font-weight="bold" font-size="12.00">int</text>
</g>
<!-- rda&#45;&gt;users -->
<g id="edge12" class="edge">
<title>rda&#45;&gt;users</title>
<path fill="none" stroke="black" stroke-width="0.9" d="M317.92,-960.82C320.46,-934.22 323.68,-900.57 326.84,-867.58"/>
<polygon fill="black" stroke="black" stroke-width="0.9" points="329.66,-867.45 327.64,-859.22 324.09,-866.91 329.66,-867.45"/>
</g>
<!-- sync_data -->
<g id="node14" class="node">
<title>sync_data</title>
<path fill="none" stroke="black" d="M467.24,-390.14C467.24,-390.14 587.24,-390.14 587.24,-390.14 593.24,-390.14 599.24,-396.14 599.24,-402.14 599.24,-402.14 599.24,-499.14 599.24,-499.14 599.24,-505.14 593.24,-511.14 587.24,-511.14 587.24,-511.14 467.24,-511.14 467.24,-511.14 461.24,-511.14 455.24,-505.14 455.24,-499.14 455.24,-499.14 455.24,-402.14 455.24,-402.14 455.24,-396.14 461.24,-390.14 467.24,-390.14"/>
<text text-anchor="start" x="491.24" y="-490.74" font-family="Helvetica,sans-Serif" font-weight="bold" font-size="13.00">sync_data</text>
<polyline fill="none" stroke="black" points="455.24,-481.14 599.24,-481.14 "/>
<text text-anchor="start" x="462.24" y="-467.04" font-family="Helvetica,sans-Serif" font-size="12.00">id* </text>
<text text-anchor="start" x="483.24" y="-467.04" font-family="Helvetica,sans-Serif" font-weight="bold" font-size="12.00">integer</text>
<text text-anchor="start" x="462.24" y="-450.04" font-family="Helvetica,sans-Serif" font-size="12.00">tablename </text>
<text text-anchor="start" x="531.24" y="-450.04" font-family="Helvetica,sans-Serif" font-weight="bold" font-size="12.00">text</text>
<text text-anchor="start" x="462.24" y="-433.04" font-family="Helvetica,sans-Serif" font-size="12.00">guid </text>
<text text-anchor="start" x="492.24" y="-433.04" font-family="Helvetica,sans-Serif" font-weight="bold" font-size="12.00">text</text>
<text text-anchor="start" x="462.24" y="-416.04" font-family="Helvetica,sans-Serif" font-size="12.00">constraint </text>
<text text-anchor="start" x="526.24" y="-416.04" font-family="Helvetica,sans-Serif" font-weight="bold" font-size="12.00">text</text>
<text text-anchor="start" x="462.24" y="-399.04" font-family="Helvetica,sans-Serif" font-size="12.00">action </text>
<text text-anchor="start" x="503.24" y="-399.04" font-family="Helvetica,sans-Serif" font-weight="bold" font-size="12.00">text</text>
</g>
</g>
</svg>
