<?xml version="1.0" encoding="UTF-8" standalone="no"?>
<!DOCTYPE svg PUBLIC "-//W3C//DTD SVG 1.1//EN"
 "http://www.w3.org/Graphics/SVG/1.1/DTD/svg11.dtd">
<!-- Generated by graphviz version 2.43.0 (0)
 -->
<!-- Title: undefined Pages: 1 -->
<svg width="1422pt" height="1617pt"
 viewBox="0.00 0.00 1421.60 1616.60" xmlns="http://www.w3.org/2000/svg" xmlns:xlink="http://www.w3.org/1999/xlink">
<g id="graph0" class="graph" transform="scale(1 1) rotate(0) translate(28.8 1566.8)">
<title>undefined</title>
<polygon fill="white" stroke="transparent" points="-28.8,49.8 -28.8,-1566.8 1392.8,-1566.8 1392.8,49.8 -28.8,49.8"/>
<text text-anchor="start" x="637.5" y="12.6" font-family="Helvetica,sans-Serif" font-weight="bold" font-size="12.00">sql/nt.sqlite3</text>
<!-- version -->
<g id="node1" class="node">
<title>version</title>
<path fill="none" stroke="black" d="M186.24,-522.64C186.24,-522.64 306.24,-522.64 306.24,-522.64 312.24,-522.64 318.24,-528.64 318.24,-534.64 318.24,-534.64 318.24,-614.64 318.24,-614.64 318.24,-620.64 312.24,-626.64 306.24,-626.64 306.24,-626.64 186.24,-626.64 186.24,-626.64 180.24,-626.64 174.24,-620.64 174.24,-614.64 174.24,-614.64 174.24,-534.64 174.24,-534.64 174.24,-528.64 180.24,-522.64 186.24,-522.64"/>
<text text-anchor="start" x="219.24" y="-606.24" font-family="Helvetica,sans-Serif" font-weight="bold" font-size="13.00">version</text>
<polyline fill="none" stroke="black" points="174.24,-596.64 318.24,-596.64 "/>
<text text-anchor="start" x="181.24" y="-583.04" font-family="Helvetica,sans-Serif" font-size="12.00">id* </text>
<text text-anchor="start" x="202.24" y="-583.04" font-family="Helvetica,sans-Serif" font-weight="bold" font-size="12.00">integer</text>
<text text-anchor="start" x="181.24" y="-566.04" font-family="Helvetica,sans-Serif" font-size="12.00">version </text>
<text text-anchor="start" x="229.24" y="-566.04" font-family="Helvetica,sans-Serif" font-weight="bold" font-size="12.00">text</text>
<text text-anchor="start" x="181.24" y="-549.04" font-family="Helvetica,sans-Serif" font-size="12.00">created </text>
<text text-anchor="start" x="231.24" y="-549.04" font-family="Helvetica,sans-Serif" font-weight="bold" font-size="12.00">date</text>
<text text-anchor="start" x="181.24" y="-532.04" font-family="Helvetica,sans-Serif" font-size="12.00">notes </text>
<text text-anchor="start" x="218.24" y="-532.04" font-family="Helvetica,sans-Serif" font-weight="bold" font-size="12.00">text</text>
</g>
<!-- bmr_eqs -->
<g id="node2" class="node">
<title>bmr_eqs</title>
<path fill="none" stroke="black" d="M449.52,-524.47C449.52,-524.47 569.52,-524.47 569.52,-524.47 575.52,-524.47 581.52,-530.47 581.52,-536.47 581.52,-536.47 581.52,-582.47 581.52,-582.47 581.52,-588.47 575.52,-594.47 569.52,-594.47 569.52,-594.47 449.52,-594.47 449.52,-594.47 443.52,-594.47 437.52,-588.47 437.52,-582.47 437.52,-582.47 437.52,-536.47 437.52,-536.47 437.52,-530.47 443.52,-524.47 449.52,-524.47"/>
<text text-anchor="start" x="478.52" y="-574.07" font-family="Helvetica,sans-Serif" font-weight="bold" font-size="13.00">bmr_eqs</text>
<polyline fill="none" stroke="black" points="437.52,-564.47 581.52,-564.47 "/>
<text text-anchor="start" x="444.52" y="-550.87" font-family="Helvetica,sans-Serif" font-size="12.00">id* </text>
<text text-anchor="start" x="465.52" y="-550.87" font-family="Helvetica,sans-Serif" font-weight="bold" font-size="12.00">integer</text>
<text text-anchor="start" x="444.52" y="-533.87" font-family="Helvetica,sans-Serif" font-size="12.00">name </text>
<text text-anchor="start" x="483.52" y="-533.87" font-family="Helvetica,sans-Serif" font-weight="bold" font-size="12.00">text</text>
</g>
<!-- bf_eqs -->
<g id="node3" class="node">
<title>bf_eqs</title>
<path fill="none" stroke="black" d="M1084.35,-954.89C1084.35,-954.89 1204.35,-954.89 1204.35,-954.89 1210.35,-954.89 1216.35,-960.89 1216.35,-966.89 1216.35,-966.89 1216.35,-1012.89 1216.35,-1012.89 1216.35,-1018.89 1210.35,-1024.89 1204.35,-1024.89 1204.35,-1024.89 1084.35,-1024.89 1084.35,-1024.89 1078.35,-1024.89 1072.35,-1018.89 1072.35,-1012.89 1072.35,-1012.89 1072.35,-966.89 1072.35,-966.89 1072.35,-960.89 1078.35,-954.89 1084.35,-954.89"/>
<text text-anchor="start" x="1120.35" y="-1004.49" font-family="Helvetica,sans-Serif" font-weight="bold" font-size="13.00">bf_eqs</text>
<polyline fill="none" stroke="black" points="1072.35,-994.89 1216.35,-994.89 "/>
<text text-anchor="start" x="1079.35" y="-981.29" font-family="Helvetica,sans-Serif" font-size="12.00">id* </text>
<text text-anchor="start" x="1100.35" y="-981.29" font-family="Helvetica,sans-Serif" font-weight="bold" font-size="12.00">integer</text>
<text text-anchor="start" x="1079.35" y="-964.29" font-family="Helvetica,sans-Serif" font-size="12.00">name </text>
<text text-anchor="start" x="1118.35" y="-964.29" font-family="Helvetica,sans-Serif" font-weight="bold" font-size="12.00">text</text>
</g>
<!-- profiles -->
<g id="node4" class="node">
<title>profiles</title>
<path fill="none" stroke="black" d="M576.37,-800.23C576.37,-800.23 696.37,-800.23 696.37,-800.23 702.37,-800.23 708.37,-806.23 708.37,-812.23 708.37,-812.23 708.37,-994.23 708.37,-994.23 708.37,-1000.23 702.37,-1006.23 696.37,-1006.23 696.37,-1006.23 576.37,-1006.23 576.37,-1006.23 570.37,-1006.23 564.37,-1000.23 564.37,-994.23 564.37,-994.23 564.37,-812.23 564.37,-812.23 564.37,-806.23 570.37,-800.23 576.37,-800.23"/>
<text text-anchor="start" x="608.37" y="-985.83" font-family="Helvetica,sans-Serif" font-weight="bold" font-size="13.00">profiles</text>
<polyline fill="none" stroke="black" points="564.37,-976.23 708.37,-976.23 "/>
<text text-anchor="start" x="571.37" y="-962.63" font-family="Helvetica,sans-Serif" font-size="12.00">id* </text>
<text text-anchor="start" x="592.37" y="-962.63" font-family="Helvetica,sans-Serif" font-weight="bold" font-size="12.00">integer</text>
<text text-anchor="start" x="571.37" y="-945.63" font-family="Helvetica,sans-Serif" font-size="12.00">name </text>
<text text-anchor="start" x="610.37" y="-945.63" font-family="Helvetica,sans-Serif" font-weight="bold" font-size="12.00">text</text>
<text text-anchor="start" x="571.37" y="-928.63" font-family="Helvetica,sans-Serif" font-size="12.00">gender </text>
<text text-anchor="start" x="618.37" y="-928.63" font-family="Helvetica,sans-Serif" font-weight="bold" font-size="12.00">text</text>
<text text-anchor="start" x="571.37" y="-911.63" font-family="Helvetica,sans-Serif" font-size="12.00">dob </text>
<text text-anchor="start" x="598.37" y="-911.63" font-family="Helvetica,sans-Serif" font-weight="bold" font-size="12.00">date</text>
<text text-anchor="start" x="571.37" y="-894.63" font-family="Helvetica,sans-Serif" font-size="12.00">act_lvl </text>
<text text-anchor="start" x="613.37" y="-894.63" font-family="Helvetica,sans-Serif" font-weight="bold" font-size="12.00">int</text>
<text text-anchor="start" x="571.37" y="-877.63" font-family="Helvetica,sans-Serif" font-size="12.00">goal_wt </text>
<text text-anchor="start" x="621.37" y="-877.63" font-family="Helvetica,sans-Serif" font-weight="bold" font-size="12.00">real</text>
<text text-anchor="start" x="571.37" y="-860.63" font-family="Helvetica,sans-Serif" font-size="12.00">goal_bf </text>
<text text-anchor="start" x="619.37" y="-860.63" font-family="Helvetica,sans-Serif" font-weight="bold" font-size="12.00">real</text>
<text text-anchor="start" x="571.37" y="-843.63" font-family="Helvetica,sans-Serif" font-size="12.00">bmr_eq_id </text>
<text text-anchor="start" x="638.37" y="-843.63" font-family="Helvetica,sans-Serif" font-weight="bold" font-size="12.00">int</text>
<text text-anchor="start" x="571.37" y="-826.63" font-family="Helvetica,sans-Serif" font-size="12.00">bf_eq_id </text>
<text text-anchor="start" x="625.37" y="-826.63" font-family="Helvetica,sans-Serif" font-weight="bold" font-size="12.00">int</text>
<text text-anchor="start" x="571.37" y="-809.63" font-family="Helvetica,sans-Serif" font-size="12.00">created </text>
<text text-anchor="start" x="621.37" y="-809.63" font-family="Helvetica,sans-Serif" font-weight="bold" font-size="12.00">int</text>
</g>
<!-- profiles&#45;&gt;bmr_eqs -->
<g id="edge2" class="edge">
<title>profiles&#45;&gt;bmr_eqs</title>
<path fill="none" stroke="black" stroke-width="0.9" d="M598.31,-800.09C573.86,-733.82 543.38,-651.23 525.24,-602.07"/>
<polygon fill="black" stroke="black" stroke-width="0.9" points="527.84,-601.01 522.44,-594.47 522.58,-602.95 527.84,-601.01"/>
</g>
<!-- profiles&#45;&gt;bf_eqs -->
<g id="edge1" class="edge">
<title>profiles&#45;&gt;bf_eqs</title>
<path fill="none" stroke="black" stroke-width="0.9" d="M708.61,-915.56C802.53,-931.58 966.06,-959.48 1063.85,-976.16"/>
<polygon fill="black" stroke="black" stroke-width="0.9" points="1063.59,-978.96 1071.94,-977.54 1064.53,-973.43 1063.59,-978.96"/>
</g>
<!-- biometrics -->
<g id="node5" class="node">
<title>biometrics</title>
<path fill="none" stroke="black" d="M43.19,-1433.71C43.19,-1433.71 163.19,-1433.71 163.19,-1433.71 169.19,-1433.71 175.19,-1439.71 175.19,-1445.71 175.19,-1445.71 175.19,-1525.71 175.19,-1525.71 175.19,-1531.71 169.19,-1537.71 163.19,-1537.71 163.19,-1537.71 43.19,-1537.71 43.19,-1537.71 37.19,-1537.71 31.19,-1531.71 31.19,-1525.71 31.19,-1525.71 31.19,-1445.71 31.19,-1445.71 31.19,-1439.71 37.19,-1433.71 43.19,-1433.71"/>
<text text-anchor="start" x="64.19" y="-1517.31" font-family="Helvetica,sans-Serif" font-weight="bold" font-size="13.00">biometrics</text>
<polyline fill="none" stroke="black" points="31.19,-1507.71 175.19,-1507.71 "/>
<text text-anchor="start" x="38.19" y="-1494.11" font-family="Helvetica,sans-Serif" font-size="12.00">id* </text>
<text text-anchor="start" x="59.19" y="-1494.11" font-family="Helvetica,sans-Serif" font-weight="bold" font-size="12.00">integer</text>
<text text-anchor="start" x="38.19" y="-1477.11" font-family="Helvetica,sans-Serif" font-size="12.00">name </text>
<text text-anchor="start" x="77.19" y="-1477.11" font-family="Helvetica,sans-Serif" font-weight="bold" font-size="12.00">text</text>
<text text-anchor="start" x="38.19" y="-1460.11" font-family="Helvetica,sans-Serif" font-size="12.00">unit </text>
<text text-anchor="start" x="65.19" y="-1460.11" font-family="Helvetica,sans-Serif" font-weight="bold" font-size="12.00">text</text>
<text text-anchor="start" x="38.19" y="-1443.11" font-family="Helvetica,sans-Serif" font-size="12.00">created </text>
<text text-anchor="start" x="88.19" y="-1443.11" font-family="Helvetica,sans-Serif" font-weight="bold" font-size="12.00">int</text>
</g>
<!-- biometric_log -->
<g id="node6" class="node">
<title>biometric_log</title>
<path fill="none" stroke="black" d="M334.26,-958.4C334.26,-958.4 454.26,-958.4 454.26,-958.4 460.26,-958.4 466.26,-964.4 466.26,-970.4 466.26,-970.4 466.26,-1084.4 466.26,-1084.4 466.26,-1090.4 460.26,-1096.4 454.26,-1096.4 454.26,-1096.4 334.26,-1096.4 334.26,-1096.4 328.26,-1096.4 322.26,-1090.4 322.26,-1084.4 322.26,-1084.4 322.26,-970.4 322.26,-970.4 322.26,-964.4 328.26,-958.4 334.26,-958.4"/>
<text text-anchor="start" x="344.26" y="-1076" font-family="Helvetica,sans-Serif" font-weight="bold" font-size="13.00">biometric_log</text>
<polyline fill="none" stroke="black" points="322.26,-1066.4 466.26,-1066.4 "/>
<text text-anchor="start" x="329.26" y="-1052.8" font-family="Helvetica,sans-Serif" font-size="12.00">id* </text>
<text text-anchor="start" x="350.26" y="-1052.8" font-family="Helvetica,sans-Serif" font-weight="bold" font-size="12.00">integer</text>
<text text-anchor="start" x="329.26" y="-1035.8" font-family="Helvetica,sans-Serif" font-size="12.00">profile_id </text>
<text text-anchor="start" x="387.26" y="-1035.8" font-family="Helvetica,sans-Serif" font-weight="bold" font-size="12.00">int</text>
<text text-anchor="start" x="329.26" y="-1018.8" font-family="Helvetica,sans-Serif" font-size="12.00">date </text>
<text text-anchor="start" x="360.26" y="-1018.8" font-family="Helvetica,sans-Serif" font-weight="bold" font-size="12.00">int</text>
<text text-anchor="start" x="329.26" y="-1001.8" font-family="Helvetica,sans-Serif" font-size="12.00">tags </text>
<text text-anchor="start" x="359.26" y="-1001.8" font-family="Helvetica,sans-Serif" font-weight="bold" font-size="12.00">text</text>
<text text-anchor="start" x="329.26" y="-984.8" font-family="Helvetica,sans-Serif" font-size="12.00">notes </text>
<text text-anchor="start" x="366.26" y="-984.8" font-family="Helvetica,sans-Serif" font-weight="bold" font-size="12.00">text</text>
<text text-anchor="start" x="329.26" y="-967.8" font-family="Helvetica,sans-Serif" font-size="12.00">created </text>
<text text-anchor="start" x="379.26" y="-967.8" font-family="Helvetica,sans-Serif" font-weight="bold" font-size="12.00">int</text>
</g>
<!-- biometric_log&#45;&gt;profiles -->
<g id="edge3" class="edge">
<title>biometric_log&#45;&gt;profiles</title>
<path fill="none" stroke="black" stroke-width="0.9" d="M466.57,-990.32C494.96,-975.76 527.64,-959 556.7,-944.09"/>
<polygon fill="black" stroke="black" stroke-width="0.9" points="558.17,-946.49 564.01,-940.34 555.61,-941.5 558.17,-946.49"/>
</g>
<!-- bio_log_entry -->
<g id="node7" class="node">
<title>bio_log_entry</title>
<path fill="none" stroke="black" d="M12.42,-1161.99C12.42,-1161.99 132.42,-1161.99 132.42,-1161.99 138.42,-1161.99 144.42,-1167.99 144.42,-1173.99 144.42,-1173.99 144.42,-1236.99 144.42,-1236.99 144.42,-1242.99 138.42,-1248.99 132.42,-1248.99 132.42,-1248.99 12.42,-1248.99 12.42,-1248.99 6.42,-1248.99 0.42,-1242.99 0.42,-1236.99 0.42,-1236.99 0.42,-1173.99 0.42,-1173.99 0.42,-1167.99 6.42,-1161.99 12.42,-1161.99"/>
<text text-anchor="start" x="23.42" y="-1228.59" font-family="Helvetica,sans-Serif" font-weight="bold" font-size="13.00">bio_log_entry</text>
<polyline fill="none" stroke="black" points="0.42,-1218.99 144.42,-1218.99 "/>
<text text-anchor="start" x="7.42" y="-1204.89" font-family="Helvetica,sans-Serif" font-size="12.00">log_id* </text>
<text text-anchor="start" x="52.42" y="-1204.89" font-family="Helvetica,sans-Serif" font-weight="bold" font-size="12.00">int</text>
<text text-anchor="start" x="7.42" y="-1187.89" font-family="Helvetica,sans-Serif" font-size="12.00">biometric_id* </text>
<text text-anchor="start" x="91.42" y="-1187.89" font-family="Helvetica,sans-Serif" font-weight="bold" font-size="12.00">int</text>
<text text-anchor="start" x="7.42" y="-1170.89" font-family="Helvetica,sans-Serif" font-size="12.00">value </text>
<text text-anchor="start" x="44.42" y="-1170.89" font-family="Helvetica,sans-Serif" font-weight="bold" font-size="12.00">real</text>
</g>
<!-- bio_log_entry&#45;&gt;biometrics -->
<g id="edge4" class="edge">
<title>bio_log_entry&#45;&gt;biometrics</title>
<path fill="none" stroke="black" stroke-width="0.9" d="M77.23,-1249.28C82.44,-1296.71 90.78,-1372.71 96.6,-1425.69"/>
<polygon fill="black" stroke="black" stroke-width="0.9" points="93.82,-1426.02 97.47,-1433.66 99.38,-1425.4 93.82,-1426.02"/>
</g>
<!-- bio_log_entry&#45;&gt;biometric_log -->
<g id="edge5" class="edge">
<title>bio_log_entry&#45;&gt;biometric_log</title>
<path fill="none" stroke="black" stroke-width="0.9" d="M144.65,-1165.53C195.18,-1137.56 262.69,-1100.21 314.75,-1071.4"/>
<polygon fill="black" stroke="black" stroke-width="0.9" points="316.35,-1073.71 321.99,-1067.39 313.64,-1068.81 316.35,-1073.71"/>
</g>
<!-- recipes -->
<g id="node8" class="node">
<title>recipes</title>
<path fill="none" stroke="black" d="M840.04,-108.2C840.04,-108.2 960.04,-108.2 960.04,-108.2 966.04,-108.2 972.04,-114.2 972.04,-120.2 972.04,-120.2 972.04,-200.2 972.04,-200.2 972.04,-206.2 966.04,-212.2 960.04,-212.2 960.04,-212.2 840.04,-212.2 840.04,-212.2 834.04,-212.2 828.04,-206.2 828.04,-200.2 828.04,-200.2 828.04,-120.2 828.04,-120.2 828.04,-114.2 834.04,-108.2 840.04,-108.2"/>
<text text-anchor="start" x="873.04" y="-191.8" font-family="Helvetica,sans-Serif" font-weight="bold" font-size="13.00">recipes</text>
<polyline fill="none" stroke="black" points="828.04,-182.2 972.04,-182.2 "/>
<text text-anchor="start" x="835.04" y="-168.6" font-family="Helvetica,sans-Serif" font-size="12.00">id* </text>
<text text-anchor="start" x="856.04" y="-168.6" font-family="Helvetica,sans-Serif" font-weight="bold" font-size="12.00">integer</text>
<text text-anchor="start" x="835.04" y="-151.6" font-family="Helvetica,sans-Serif" font-size="12.00">tagname </text>
<text text-anchor="start" x="893.04" y="-151.6" font-family="Helvetica,sans-Serif" font-weight="bold" font-size="12.00">text</text>
<text text-anchor="start" x="835.04" y="-134.6" font-family="Helvetica,sans-Serif" font-size="12.00">name </text>
<text text-anchor="start" x="874.04" y="-134.6" font-family="Helvetica,sans-Serif" font-weight="bold" font-size="12.00">text</text>
<text text-anchor="start" x="835.04" y="-117.6" font-family="Helvetica,sans-Serif" font-size="12.00">created </text>
<text text-anchor="start" x="885.04" y="-117.6" font-family="Helvetica,sans-Serif" font-weight="bold" font-size="12.00">int</text>
</g>
<!-- recipe_dat -->
<g id="node9" class="node">
<title>recipe_dat</title>
<path fill="none" stroke="black" d="M604.85,-0.48C604.85,-0.48 724.85,-0.48 724.85,-0.48 730.85,-0.48 736.85,-6.48 736.85,-12.48 736.85,-12.48 736.85,-109.48 736.85,-109.48 736.85,-115.48 730.85,-121.48 724.85,-121.48 724.85,-121.48 604.85,-121.48 604.85,-121.48 598.85,-121.48 592.85,-115.48 592.85,-109.48 592.85,-109.48 592.85,-12.48 592.85,-12.48 592.85,-6.48 598.85,-0.48 604.85,-0.48"/>
<text text-anchor="start" x="626.85" y="-101.08" font-family="Helvetica,sans-Serif" font-weight="bold" font-size="13.00">recipe_dat</text>
<polyline fill="none" stroke="black" points="592.85,-91.48 736.85,-91.48 "/>
<text text-anchor="start" x="599.85" y="-77.38" font-family="Helvetica,sans-Serif" font-size="12.00">recipe_id* </text>
<text text-anchor="start" x="663.85" y="-77.38" font-family="Helvetica,sans-Serif" font-weight="bold" font-size="12.00">int</text>
<text text-anchor="start" x="599.85" y="-60.38" font-family="Helvetica,sans-Serif" font-size="12.00">food_id* </text>
<text text-anchor="start" x="653.85" y="-60.38" font-family="Helvetica,sans-Serif" font-weight="bold" font-size="12.00">int</text>
<text text-anchor="start" x="599.85" y="-43.38" font-family="Helvetica,sans-Serif" font-size="12.00">grams </text>
<text text-anchor="start" x="642.85" y="-43.38" font-family="Helvetica,sans-Serif" font-weight="bold" font-size="12.00">real</text>
<text text-anchor="start" x="599.85" y="-26.38" font-family="Helvetica,sans-Serif" font-size="12.00">notes </text>
<text text-anchor="start" x="636.85" y="-26.38" font-family="Helvetica,sans-Serif" font-weight="bold" font-size="12.00">text</text>
<text text-anchor="start" x="599.85" y="-9.38" font-family="Helvetica,sans-Serif" font-size="12.00">created </text>
<text text-anchor="start" x="649.85" y="-9.38" font-family="Helvetica,sans-Serif" font-weight="bold" font-size="12.00">int</text>
</g>
<!-- recipe_dat&#45;&gt;recipes -->
<g id="edge6" class="edge">
<title>recipe_dat&#45;&gt;recipes</title>
<path fill="none" stroke="black" stroke-width="0.9" d="M737.01,-91.42C763.42,-102.57 793.45,-115.23 820.47,-126.64"/>
<polygon fill="black" stroke="black" stroke-width="0.9" points="819.55,-129.29 828.01,-129.82 821.73,-124.13 819.55,-129.29"/>
</g>
<!-- custom_foods -->
<g id="node10" class="node">
<title>custom_foods</title>
<path fill="none" stroke="black" d="M1056.24,-383.53C1056.24,-383.53 1176.24,-383.53 1176.24,-383.53 1182.24,-383.53 1188.24,-389.53 1188.24,-395.53 1188.24,-395.53 1188.24,-475.53 1188.24,-475.53 1188.24,-481.53 1182.24,-487.53 1176.24,-487.53 1176.24,-487.53 1056.24,-487.53 1056.24,-487.53 1050.24,-487.53 1044.24,-481.53 1044.24,-475.53 1044.24,-475.53 1044.24,-395.53 1044.24,-395.53 1044.24,-389.53 1050.24,-383.53 1056.24,-383.53"/>
<text text-anchor="start" x="1066.24" y="-467.13" font-family="Helvetica,sans-Serif" font-weight="bold" font-size="13.00">custom_foods</text>
<polyline fill="none" stroke="black" points="1044.24,-457.53 1188.24,-457.53 "/>
<text text-anchor="start" x="1051.24" y="-443.93" font-family="Helvetica,sans-Serif" font-size="12.00">id* </text>
<text text-anchor="start" x="1072.24" y="-443.93" font-family="Helvetica,sans-Serif" font-weight="bold" font-size="12.00">integer</text>
<text text-anchor="start" x="1051.24" y="-426.93" font-family="Helvetica,sans-Serif" font-size="12.00">tagname </text>
<text text-anchor="start" x="1109.24" y="-426.93" font-family="Helvetica,sans-Serif" font-weight="bold" font-size="12.00">text</text>
<text text-anchor="start" x="1051.24" y="-409.93" font-family="Helvetica,sans-Serif" font-size="12.00">name </text>
<text text-anchor="start" x="1090.24" y="-409.93" font-family="Helvetica,sans-Serif" font-weight="bold" font-size="12.00">text</text>
<text text-anchor="start" x="1051.24" y="-392.93" font-family="Helvetica,sans-Serif" font-size="12.00">created </text>
<text text-anchor="start" x="1101.24" y="-392.93" font-family="Helvetica,sans-Serif" font-weight="bold" font-size="12.00">int</text>
</g>
<!-- cf_dat -->
<g id="node11" class="node">
<title>cf_dat</title>
<path fill="none" stroke="black" d="M1232.26,-348.73C1232.26,-348.73 1352.26,-348.73 1352.26,-348.73 1358.26,-348.73 1364.26,-354.73 1364.26,-360.73 1364.26,-360.73 1364.26,-457.73 1364.26,-457.73 1364.26,-463.73 1358.26,-469.73 1352.26,-469.73 1352.26,-469.73 1232.26,-469.73 1232.26,-469.73 1226.26,-469.73 1220.26,-463.73 1220.26,-457.73 1220.26,-457.73 1220.26,-360.73 1220.26,-360.73 1220.26,-354.73 1226.26,-348.73 1232.26,-348.73"/>
<text text-anchor="start" x="1270.26" y="-449.33" font-family="Helvetica,sans-Serif" font-weight="bold" font-size="13.00">cf_dat</text>
<polyline fill="none" stroke="black" points="1220.26,-439.73 1364.26,-439.73 "/>
<text text-anchor="start" x="1227.26" y="-425.63" font-family="Helvetica,sans-Serif" font-size="12.00">cf_id* </text>
<text text-anchor="start" x="1265.26" y="-425.63" font-family="Helvetica,sans-Serif" font-weight="bold" font-size="12.00">int</text>
<text text-anchor="start" x="1227.26" y="-408.63" font-family="Helvetica,sans-Serif" font-size="12.00">nutr_id* </text>
<text text-anchor="start" x="1279.26" y="-408.63" font-family="Helvetica,sans-Serif" font-weight="bold" font-size="12.00">int</text>
<text text-anchor="start" x="1227.26" y="-391.63" font-family="Helvetica,sans-Serif" font-size="12.00">nutr_val </text>
<text text-anchor="start" x="1279.26" y="-391.63" font-family="Helvetica,sans-Serif" font-weight="bold" font-size="12.00">real</text>
<text text-anchor="start" x="1227.26" y="-374.63" font-family="Helvetica,sans-Serif" font-size="12.00">notes </text>
<text text-anchor="start" x="1264.26" y="-374.63" font-family="Helvetica,sans-Serif" font-weight="bold" font-size="12.00">text</text>
<text text-anchor="start" x="1227.26" y="-357.63" font-family="Helvetica,sans-Serif" font-size="12.00">created </text>
<text text-anchor="start" x="1277.26" y="-357.63" font-family="Helvetica,sans-Serif" font-weight="bold" font-size="12.00">int</text>
</g>
<!-- cf_dat&#45;&gt;custom_foods -->
<g id="edge7" class="edge">
<title>cf_dat&#45;&gt;custom_foods</title>
<path fill="none" stroke="black" stroke-width="0.9" d="M1220.16,-420C1212.49,-421.15 1204.65,-422.32 1196.89,-423.48"/>
<polygon fill="black" stroke="black" stroke-width="0.9" points="1196.02,-420.78 1188.52,-424.73 1196.84,-426.32 1196.02,-420.78"/>
</g>
<!-- meal_name -->
<g id="node12" class="node">
<title>meal_name</title>
<path fill="none" stroke="black" d="M1063.76,-544.16C1063.76,-544.16 1183.76,-544.16 1183.76,-544.16 1189.76,-544.16 1195.76,-550.16 1195.76,-556.16 1195.76,-556.16 1195.76,-602.16 1195.76,-602.16 1195.76,-608.16 1189.76,-614.16 1183.76,-614.16 1183.76,-614.16 1063.76,-614.16 1063.76,-614.16 1057.76,-614.16 1051.76,-608.16 1051.76,-602.16 1051.76,-602.16 1051.76,-556.16 1051.76,-556.16 1051.76,-550.16 1057.76,-544.16 1063.76,-544.16"/>
<text text-anchor="start" x="1081.76" y="-593.76" font-family="Helvetica,sans-Serif" font-weight="bold" font-size="13.00">meal_name</text>
<polyline fill="none" stroke="black" points="1051.76,-584.16 1195.76,-584.16 "/>
<text text-anchor="start" x="1058.76" y="-570.56" font-family="Helvetica,sans-Serif" font-size="12.00">id* </text>
<text text-anchor="start" x="1079.76" y="-570.56" font-family="Helvetica,sans-Serif" font-weight="bold" font-size="12.00">integer</text>
<text text-anchor="start" x="1058.76" y="-553.56" font-family="Helvetica,sans-Serif" font-size="12.00">name </text>
<text text-anchor="start" x="1097.76" y="-553.56" font-family="Helvetica,sans-Serif" font-weight="bold" font-size="12.00">text</text>
</g>
<!-- food_log -->
<g id="node13" class="node">
<title>food_log</title>
<path fill="none" stroke="black" d="M864.77,-669.21C864.77,-669.21 984.77,-669.21 984.77,-669.21 990.77,-669.21 996.77,-675.21 996.77,-681.21 996.77,-681.21 996.77,-829.21 996.77,-829.21 996.77,-835.21 990.77,-841.21 984.77,-841.21 984.77,-841.21 864.77,-841.21 864.77,-841.21 858.77,-841.21 852.77,-835.21 852.77,-829.21 852.77,-829.21 852.77,-681.21 852.77,-681.21 852.77,-675.21 858.77,-669.21 864.77,-669.21"/>
<text text-anchor="start" x="893.77" y="-820.81" font-family="Helvetica,sans-Serif" font-weight="bold" font-size="13.00">food_log</text>
<polyline fill="none" stroke="black" points="852.77,-811.21 996.77,-811.21 "/>
<text text-anchor="start" x="859.77" y="-797.61" font-family="Helvetica,sans-Serif" font-size="12.00">id* </text>
<text text-anchor="start" x="880.77" y="-797.61" font-family="Helvetica,sans-Serif" font-weight="bold" font-size="12.00">integer</text>
<text text-anchor="start" x="859.77" y="-780.61" font-family="Helvetica,sans-Serif" font-size="12.00">profile_id </text>
<text text-anchor="start" x="917.77" y="-780.61" font-family="Helvetica,sans-Serif" font-weight="bold" font-size="12.00">int</text>
<text text-anchor="start" x="859.77" y="-763.61" font-family="Helvetica,sans-Serif" font-size="12.00">date </text>
<text text-anchor="start" x="890.77" y="-763.61" font-family="Helvetica,sans-Serif" font-weight="bold" font-size="12.00">int</text>
<text text-anchor="start" x="859.77" y="-746.61" font-family="Helvetica,sans-Serif" font-size="12.00">meal_id </text>
<text text-anchor="start" x="910.77" y="-746.61" font-family="Helvetica,sans-Serif" font-weight="bold" font-size="12.00">int</text>
<text text-anchor="start" x="859.77" y="-729.61" font-family="Helvetica,sans-Serif" font-size="12.00">food_id </text>
<text text-anchor="start" x="907.77" y="-729.61" font-family="Helvetica,sans-Serif" font-weight="bold" font-size="12.00">int</text>
<text text-anchor="start" x="859.77" y="-712.61" font-family="Helvetica,sans-Serif" font-size="12.00">msre_id </text>
<text text-anchor="start" x="910.77" y="-712.61" font-family="Helvetica,sans-Serif" font-weight="bold" font-size="12.00">int</text>
<text text-anchor="start" x="859.77" y="-695.61" font-family="Helvetica,sans-Serif" font-size="12.00">amt </text>
<text text-anchor="start" x="887.77" y="-695.61" font-family="Helvetica,sans-Serif" font-weight="bold" font-size="12.00">real</text>
<text text-anchor="start" x="859.77" y="-678.61" font-family="Helvetica,sans-Serif" font-size="12.00">created </text>
<text text-anchor="start" x="909.77" y="-678.61" font-family="Helvetica,sans-Serif" font-weight="bold" font-size="12.00">int</text>
</g>
<!-- food_log&#45;&gt;profiles -->
<g id="edge9" class="edge">
<title>food_log&#45;&gt;profiles</title>
<path fill="none" stroke="black" stroke-width="0.9" d="M852.74,-792.18C811.1,-813.55 758.65,-840.47 715.82,-862.46"/>
<polygon fill="black" stroke="black" stroke-width="0.9" points="714.32,-860.08 708.48,-866.22 716.88,-865.06 714.32,-860.08"/>
</g>
<!-- food_log&#45;&gt;meal_name -->
<g id="edge8" class="edge">
<title>food_log&#45;&gt;meal_name</title>
<path fill="none" stroke="black" stroke-width="0.9" d="M996.89,-691.4C1023.85,-667.55 1053.71,-641.13 1077.69,-619.92"/>
<polygon fill="black" stroke="black" stroke-width="0.9" points="1079.83,-621.76 1083.97,-614.36 1076.12,-617.57 1079.83,-621.76"/>
</g>
<!-- recipe_log -->
<g id="node14" class="node">
<title>recipe_log</title>
<path fill="none" stroke="black" d="M784.4,-416.35C784.4,-416.35 904.4,-416.35 904.4,-416.35 910.4,-416.35 916.4,-422.35 916.4,-428.35 916.4,-428.35 916.4,-559.35 916.4,-559.35 916.4,-565.35 910.4,-571.35 904.4,-571.35 904.4,-571.35 784.4,-571.35 784.4,-571.35 778.4,-571.35 772.4,-565.35 772.4,-559.35 772.4,-559.35 772.4,-428.35 772.4,-428.35 772.4,-422.35 778.4,-416.35 784.4,-416.35"/>
<text text-anchor="start" x="806.4" y="-550.95" font-family="Helvetica,sans-Serif" font-weight="bold" font-size="13.00">recipe_log</text>
<polyline fill="none" stroke="black" points="772.4,-541.35 916.4,-541.35 "/>
<text text-anchor="start" x="779.4" y="-527.25" font-family="Helvetica,sans-Serif" font-size="12.00">id* </text>
<text text-anchor="start" x="800.4" y="-527.25" font-family="Helvetica,sans-Serif" font-weight="bold" font-size="12.00">integer</text>
<text text-anchor="start" x="779.4" y="-510.25" font-family="Helvetica,sans-Serif" font-size="12.00">profile_id </text>
<text text-anchor="start" x="837.4" y="-510.25" font-family="Helvetica,sans-Serif" font-weight="bold" font-size="12.00">int</text>
<text text-anchor="start" x="779.4" y="-493.25" font-family="Helvetica,sans-Serif" font-size="12.00">date </text>
<text text-anchor="start" x="810.4" y="-493.25" font-family="Helvetica,sans-Serif" font-weight="bold" font-size="12.00">int</text>
<text text-anchor="start" x="779.4" y="-476.25" font-family="Helvetica,sans-Serif" font-size="12.00">meal_id </text>
<text text-anchor="start" x="830.4" y="-476.25" font-family="Helvetica,sans-Serif" font-weight="bold" font-size="12.00">int</text>
<text text-anchor="start" x="779.4" y="-459.25" font-family="Helvetica,sans-Serif" font-size="12.00">recipe_id </text>
<text text-anchor="start" x="837.4" y="-459.25" font-family="Helvetica,sans-Serif" font-weight="bold" font-size="12.00">int</text>
<text text-anchor="start" x="779.4" y="-442.25" font-family="Helvetica,sans-Serif" font-size="12.00">grams </text>
<text text-anchor="start" x="822.4" y="-442.25" font-family="Helvetica,sans-Serif" font-weight="bold" font-size="12.00">real</text>
<text text-anchor="start" x="779.4" y="-425.25" font-family="Helvetica,sans-Serif" font-size="12.00">created </text>
<text text-anchor="start" x="829.4" y="-425.25" font-family="Helvetica,sans-Serif" font-weight="bold" font-size="12.00">int</text>
</g>
<!-- recipe_log&#45;&gt;profiles -->
<g id="edge12" class="edge">
<title>recipe_log&#45;&gt;profiles</title>
<path fill="none" stroke="black" stroke-width="0.9" d="M804.78,-571.82C773.05,-634.27 728.13,-722.66 692.66,-792.46"/>
<polygon fill="black" stroke="black" stroke-width="0.9" points="689.95,-791.61 688.82,-800.01 694.94,-794.15 689.95,-791.61"/>
</g>
<!-- recipe_log&#45;&gt;recipes -->
<g id="edge10" class="edge">
<title>recipe_log&#45;&gt;recipes</title>
<path fill="none" stroke="black" stroke-width="0.9" d="M857.37,-416.05C867.31,-356.43 880.83,-275.36 889.97,-220.58"/>
<polygon fill="black" stroke="black" stroke-width="0.9" points="892.78,-220.71 891.34,-212.36 887.26,-219.79 892.78,-220.71"/>
</g>
<!-- recipe_log&#45;&gt;meal_name -->
<g id="edge11" class="edge">
<title>recipe_log&#45;&gt;meal_name</title>
<path fill="none" stroke="black" stroke-width="0.9" d="M916.71,-515.93C955.66,-527.83 1003.8,-542.53 1043.86,-554.76"/>
<polygon fill="black" stroke="black" stroke-width="0.9" points="1043.29,-557.51 1051.76,-557.17 1044.93,-552.16 1043.29,-557.51"/>
</g>
<!-- rda -->
<g id="node15" class="node">
<title>rda</title>
<path fill="none" stroke="black" d="M250.4,-704.61C250.4,-704.61 370.4,-704.61 370.4,-704.61 376.4,-704.61 382.4,-710.61 382.4,-716.61 382.4,-716.61 382.4,-779.61 382.4,-779.61 382.4,-785.61 376.4,-791.61 370.4,-791.61 370.4,-791.61 250.4,-791.61 250.4,-791.61 244.4,-791.61 238.4,-785.61 238.4,-779.61 238.4,-779.61 238.4,-716.61 238.4,-716.61 238.4,-710.61 244.4,-704.61 250.4,-704.61"/>
<text text-anchor="start" x="298.4" y="-771.21" font-family="Helvetica,sans-Serif" font-weight="bold" font-size="13.00">rda</text>
<polyline fill="none" stroke="black" points="238.4,-761.61 382.4,-761.61 "/>
<text text-anchor="start" x="245.4" y="-747.51" font-family="Helvetica,sans-Serif" font-size="12.00">profile_id* </text>
<text text-anchor="start" x="309.4" y="-747.51" font-family="Helvetica,sans-Serif" font-weight="bold" font-size="12.00">int</text>
<text text-anchor="start" x="245.4" y="-730.51" font-family="Helvetica,sans-Serif" font-size="12.00">nutr_id* </text>
<text text-anchor="start" x="297.4" y="-730.51" font-family="Helvetica,sans-Serif" font-weight="bold" font-size="12.00">int</text>
<text text-anchor="start" x="245.4" y="-713.51" font-family="Helvetica,sans-Serif" font-size="12.00">rda </text>
<text text-anchor="start" x="269.4" y="-713.51" font-family="Helvetica,sans-Serif" font-weight="bold" font-size="12.00">real</text>
</g>
<!-- rda&#45;&gt;profiles -->
<g id="edge13" class="edge">
<title>rda&#45;&gt;profiles</title>
<path fill="none" stroke="black" stroke-width="0.9" d="M382.74,-782.53C434.33,-807.09 503.69,-840.09 556.84,-865.39"/>
<polygon fill="black" stroke="black" stroke-width="0.9" points="555.8,-867.99 564.23,-868.9 558.21,-862.94 555.8,-867.99"/>
</g>
<!-- food_cost -->
<g id="node16" class="node">
<title>food_cost</title>
<path fill="none" stroke="black" d="M848.06,-1291.31C848.06,-1291.31 968.06,-1291.31 968.06,-1291.31 974.06,-1291.31 980.06,-1297.31 980.06,-1303.31 980.06,-1303.31 980.06,-1366.31 980.06,-1366.31 980.06,-1372.31 974.06,-1378.31 968.06,-1378.31 968.06,-1378.31 848.06,-1378.31 848.06,-1378.31 842.06,-1378.31 836.06,-1372.31 836.06,-1366.31 836.06,-1366.31 836.06,-1303.31 836.06,-1303.31 836.06,-1297.31 842.06,-1291.31 848.06,-1291.31"/>
<text text-anchor="start" x="873.06" y="-1357.91" font-family="Helvetica,sans-Serif" font-weight="bold" font-size="13.00">food_cost</text>
<polyline fill="none" stroke="black" points="836.06,-1348.31 980.06,-1348.31 "/>
<text text-anchor="start" x="843.06" y="-1334.21" font-family="Helvetica,sans-Serif" font-size="12.00">food_id* </text>
<text text-anchor="start" x="897.06" y="-1334.21" font-family="Helvetica,sans-Serif" font-weight="bold" font-size="12.00">int</text>
<text text-anchor="start" x="843.06" y="-1317.21" font-family="Helvetica,sans-Serif" font-size="12.00">profile_id* </text>
<text text-anchor="start" x="907.06" y="-1317.21" font-family="Helvetica,sans-Serif" font-weight="bold" font-size="12.00">int</text>
<text text-anchor="start" x="843.06" y="-1300.21" font-family="Helvetica,sans-Serif" font-size="12.00">cost </text>
<text text-anchor="start" x="872.06" y="-1300.21" font-family="Helvetica,sans-Serif" font-weight="bold" font-size="12.00">real</text>
</g>
<!-- food_cost&#45;&gt;profiles -->
<g id="edge14" class="edge">
<title>food_cost&#45;&gt;profiles</title>
<path fill="none" stroke="black" stroke-width="0.9" d="M901.53,-1291.14C890.6,-1229.52 863.97,-1115.7 807.39,-1036.06 783.2,-1002.01 747.79,-972.5 715.47,-950"/>
<polygon fill="black" stroke="black" stroke-width="0.9" points="716.8,-947.52 708.62,-945.3 713.64,-952.14 716.8,-947.52"/>
</g>
<!-- bug -->
<g id="node17" class="node">
<title>bug</title>
<path fill="none" stroke="black" d="M672.19,-1039.26C672.19,-1039.26 792.19,-1039.26 792.19,-1039.26 798.19,-1039.26 804.19,-1045.26 804.19,-1051.26 804.19,-1051.26 804.19,-1216.26 804.19,-1216.26 804.19,-1222.26 798.19,-1228.26 792.19,-1228.26 792.19,-1228.26 672.19,-1228.26 672.19,-1228.26 666.19,-1228.26 660.19,-1222.26 660.19,-1216.26 660.19,-1216.26 660.19,-1051.26 660.19,-1051.26 660.19,-1045.26 666.19,-1039.26 672.19,-1039.26"/>
<text text-anchor="start" x="718.19" y="-1207.86" font-family="Helvetica,sans-Serif" font-weight="bold" font-size="13.00">bug</text>
<polyline fill="none" stroke="black" points="660.19,-1198.26 804.19,-1198.26 "/>
<text text-anchor="start" x="667.19" y="-1184.16" font-family="Helvetica,sans-Serif" font-size="12.00">id* </text>
<text text-anchor="start" x="688.19" y="-1184.16" font-family="Helvetica,sans-Serif" font-weight="bold" font-size="12.00">integer</text>
<text text-anchor="start" x="667.19" y="-1167.16" font-family="Helvetica,sans-Serif" font-size="12.00">profile_id </text>
<text text-anchor="start" x="725.19" y="-1167.16" font-family="Helvetica,sans-Serif" font-weight="bold" font-size="12.00">int</text>
<text text-anchor="start" x="667.19" y="-1150.16" font-family="Helvetica,sans-Serif" font-size="12.00">created </text>
<text text-anchor="start" x="717.19" y="-1150.16" font-family="Helvetica,sans-Serif" font-weight="bold" font-size="12.00">int</text>
<text text-anchor="start" x="667.19" y="-1133.16" font-family="Helvetica,sans-Serif" font-size="12.00">arguments </text>
<text text-anchor="start" x="736.19" y="-1133.16" font-family="Helvetica,sans-Serif" font-weight="bold" font-size="12.00">text</text>
<text text-anchor="start" x="667.19" y="-1116.16" font-family="Helvetica,sans-Serif" font-size="12.00">stack </text>
<text text-anchor="start" x="703.19" y="-1116.16" font-family="Helvetica,sans-Serif" font-weight="bold" font-size="12.00">text</text>
<text text-anchor="start" x="667.19" y="-1099.16" font-family="Helvetica,sans-Serif" font-size="12.00">os </text>
<text text-anchor="start" x="685.19" y="-1099.16" font-family="Helvetica,sans-Serif" font-weight="bold" font-size="12.00">text</text>
<text text-anchor="start" x="667.19" y="-1082.16" font-family="Helvetica,sans-Serif" font-size="12.00">py_ver </text>
<text text-anchor="start" x="711.19" y="-1082.16" font-family="Helvetica,sans-Serif" font-weight="bold" font-size="12.00">text</text>
<text text-anchor="start" x="667.19" y="-1065.16" font-family="Helvetica,sans-Serif" font-size="12.00">user_details </text>
<text text-anchor="start" x="743.19" y="-1065.16" font-family="Helvetica,sans-Serif" font-weight="bold" font-size="12.00">text</text>
<text text-anchor="start" x="667.19" y="-1048.16" font-family="Helvetica,sans-Serif" font-size="12.00">submitted </text>
<text text-anchor="start" x="731.19" y="-1048.16" font-family="Helvetica,sans-Serif" font-weight="bold" font-size="12.00">tinyint</text>
</g>
<!-- bug&#45;&gt;profiles -->
<g id="edge15" class="edge">
<title>bug&#45;&gt;profiles</title>
<path fill="none" stroke="black" stroke-width="0.9" d="M692.8,-1039C689.33,-1030.64 685.79,-1022.13 682.27,-1013.66"/>
<polygon fill="black" stroke="black" stroke-width="0.9" points="684.84,-1012.55 679.18,-1006.23 679.67,-1014.7 684.84,-1012.55"/>
</g>
<!-- msg -->
<g id="node18" class="node">
<title>msg</title>
<path fill="none" stroke="black" d="M473.17,-1228.24C473.17,-1228.24 593.17,-1228.24 593.17,-1228.24 599.17,-1228.24 605.17,-1234.24 605.17,-1240.24 605.17,-1240.24 605.17,-1371.24 605.17,-1371.24 605.17,-1377.24 599.17,-1383.24 593.17,-1383.24 593.17,-1383.24 473.17,-1383.24 473.17,-1383.24 467.17,-1383.24 461.17,-1377.24 461.17,-1371.24 461.17,-1371.24 461.17,-1240.24 461.17,-1240.24 461.17,-1234.24 467.17,-1228.24 473.17,-1228.24"/>
<text text-anchor="start" x="518.17" y="-1362.84" font-family="Helvetica,sans-Serif" font-weight="bold" font-size="13.00">msg</text>
<polyline fill="none" stroke="black" points="461.17,-1353.24 605.17,-1353.24 "/>
<text text-anchor="start" x="468.17" y="-1339.14" font-family="Helvetica,sans-Serif" font-size="12.00">id* </text>
<text text-anchor="start" x="489.17" y="-1339.14" font-family="Helvetica,sans-Serif" font-weight="bold" font-size="12.00">integer</text>
<text text-anchor="start" x="468.17" y="-1322.14" font-family="Helvetica,sans-Serif" font-size="12.00">profile_id </text>
<text text-anchor="start" x="526.17" y="-1322.14" font-family="Helvetica,sans-Serif" font-weight="bold" font-size="12.00">int</text>
<text text-anchor="start" x="468.17" y="-1305.14" font-family="Helvetica,sans-Serif" font-size="12.00">msg_id </text>
<text text-anchor="start" x="514.17" y="-1305.14" font-family="Helvetica,sans-Serif" font-weight="bold" font-size="12.00">int</text>
<text text-anchor="start" x="468.17" y="-1288.14" font-family="Helvetica,sans-Serif" font-size="12.00">created </text>
<text text-anchor="start" x="518.17" y="-1288.14" font-family="Helvetica,sans-Serif" font-weight="bold" font-size="12.00">int</text>
<text text-anchor="start" x="468.17" y="-1271.14" font-family="Helvetica,sans-Serif" font-size="12.00">received </text>
<text text-anchor="start" x="523.17" y="-1271.14" font-family="Helvetica,sans-Serif" font-weight="bold" font-size="12.00">int</text>
<text text-anchor="start" x="468.17" y="-1254.14" font-family="Helvetica,sans-Serif" font-size="12.00">header </text>
<text text-anchor="start" x="515.17" y="-1254.14" font-family="Helvetica,sans-Serif" font-weight="bold" font-size="12.00">text</text>
<text text-anchor="start" x="468.17" y="-1237.14" font-family="Helvetica,sans-Serif" font-size="12.00">body </text>
<text text-anchor="start" x="502.17" y="-1237.14" font-family="Helvetica,sans-Serif" font-weight="bold" font-size="12.00">text</text>
</g>
<!-- msg&#45;&gt;profiles -->
<g id="edge16" class="edge">
<title>msg&#45;&gt;profiles</title>
<path fill="none" stroke="black" stroke-width="0.9" d="M553.07,-1228.13C568.64,-1167.42 590.49,-1082.2 607.9,-1014.27"/>
<polygon fill="black" stroke="black" stroke-width="0.9" points="610.62,-1014.94 609.9,-1006.5 605.2,-1013.55 610.62,-1014.94"/>
</g>
</g>
</svg>
