<?xml version="1.0" encoding="UTF-8" standalone="no"?>
<!DOCTYPE svg PUBLIC "-//W3C//DTD SVG 1.1//EN"
 "http://www.w3.org/Graphics/SVG/1.1/DTD/svg11.dtd">
<!-- Generated by graphviz version 2.43.0 (0)
 -->
<!-- Title: undefined Pages: 1 -->
<svg width="1122pt" height="1240pt"
 viewBox="0.00 0.00 1121.60 1239.60" xmlns="http://www.w3.org/2000/svg" xmlns:xlink="http://www.w3.org/1999/xlink">
<g id="graph0" class="graph" transform="scale(1 1) rotate(0) translate(28.8 1189.8)">
<title>undefined</title>
<polygon fill="white" stroke="transparent" points="-28.8,49.8 -28.8,-1189.8 1092.8,-1189.8 1092.8,49.8 -28.8,49.8"/>
<text text-anchor="start" x="503.5" y="12.6" font-family="Helvetica,sans-Serif" font-weight="bold" font-size="12.00">nt.sqlite</text>
<!-- version -->
<g id="node1" class="node">
<title>version</title>
<path fill="none" stroke="black" d="M786.24,-860.64C786.24,-860.64 906.24,-860.64 906.24,-860.64 912.24,-860.64 918.24,-866.64 918.24,-872.64 918.24,-872.64 918.24,-952.64 918.24,-952.64 918.24,-958.64 912.24,-964.64 906.24,-964.64 906.24,-964.64 786.24,-964.64 786.24,-964.64 780.24,-964.64 774.24,-958.64 774.24,-952.64 774.24,-952.64 774.24,-872.64 774.24,-872.64 774.24,-866.64 780.24,-860.64 786.24,-860.64"/>
<text text-anchor="start" x="819.24" y="-944.24" font-family="Helvetica,sans-Serif" font-weight="bold" font-size="13.00">version</text>
<polyline fill="none" stroke="black" points="774.24,-934.64 918.24,-934.64 "/>
<text text-anchor="start" x="781.24" y="-921.04" font-family="Helvetica,sans-Serif" font-size="12.00">id* </text>
<text text-anchor="start" x="802.24" y="-921.04" font-family="Helvetica,sans-Serif" font-weight="bold" font-size="12.00">integer</text>
<text text-anchor="start" x="781.24" y="-904.04" font-family="Helvetica,sans-Serif" font-size="12.00">version </text>
<text text-anchor="start" x="829.24" y="-904.04" font-family="Helvetica,sans-Serif" font-weight="bold" font-size="12.00">text</text>
<text text-anchor="start" x="781.24" y="-887.04" font-family="Helvetica,sans-Serif" font-size="12.00">created </text>
<text text-anchor="start" x="831.24" y="-887.04" font-family="Helvetica,sans-Serif" font-weight="bold" font-size="12.00">date</text>
<text text-anchor="start" x="781.24" y="-870.04" font-family="Helvetica,sans-Serif" font-size="12.00">notes </text>
<text text-anchor="start" x="818.24" y="-870.04" font-family="Helvetica,sans-Serif" font-weight="bold" font-size="12.00">text</text>
</g>
<!-- bmr_eqs -->
<g id="node2" class="node">
<title>bmr_eqs</title>
<path fill="none" stroke="black" d="M18.8,-589.13C18.8,-589.13 138.8,-589.13 138.8,-589.13 144.8,-589.13 150.8,-595.13 150.8,-601.13 150.8,-601.13 150.8,-647.13 150.8,-647.13 150.8,-653.13 144.8,-659.13 138.8,-659.13 138.8,-659.13 18.8,-659.13 18.8,-659.13 12.8,-659.13 6.8,-653.13 6.8,-647.13 6.8,-647.13 6.8,-601.13 6.8,-601.13 6.8,-595.13 12.8,-589.13 18.8,-589.13"/>
<text text-anchor="start" x="47.8" y="-638.73" font-family="Helvetica,sans-Serif" font-weight="bold" font-size="13.00">bmr_eqs</text>
<polyline fill="none" stroke="black" points="6.8,-629.13 150.8,-629.13 "/>
<text text-anchor="start" x="13.8" y="-615.53" font-family="Helvetica,sans-Serif" font-size="12.00">id* </text>
<text text-anchor="start" x="34.8" y="-615.53" font-family="Helvetica,sans-Serif" font-weight="bold" font-size="12.00">integer</text>
<text text-anchor="start" x="13.8" y="-598.53" font-family="Helvetica,sans-Serif" font-size="12.00">bmr_eq </text>
<text text-anchor="start" x="63.8" y="-598.53" font-family="Helvetica,sans-Serif" font-weight="bold" font-size="12.00">text</text>
</g>
<!-- bf_eqs -->
<g id="node3" class="node">
<title>bf_eqs</title>
<path fill="none" stroke="black" d="M748.8,-666.35C748.8,-666.35 868.8,-666.35 868.8,-666.35 874.8,-666.35 880.8,-672.35 880.8,-678.35 880.8,-678.35 880.8,-724.35 880.8,-724.35 880.8,-730.35 874.8,-736.35 868.8,-736.35 868.8,-736.35 748.8,-736.35 748.8,-736.35 742.8,-736.35 736.8,-730.35 736.8,-724.35 736.8,-724.35 736.8,-678.35 736.8,-678.35 736.8,-672.35 742.8,-666.35 748.8,-666.35"/>
<text text-anchor="start" x="784.8" y="-715.95" font-family="Helvetica,sans-Serif" font-weight="bold" font-size="13.00">bf_eqs</text>
<polyline fill="none" stroke="black" points="736.8,-706.35 880.8,-706.35 "/>
<text text-anchor="start" x="743.8" y="-692.75" font-family="Helvetica,sans-Serif" font-size="12.00">id* </text>
<text text-anchor="start" x="764.8" y="-692.75" font-family="Helvetica,sans-Serif" font-weight="bold" font-size="12.00">integer</text>
<text text-anchor="start" x="743.8" y="-675.75" font-family="Helvetica,sans-Serif" font-size="12.00">bf_eq </text>
<text text-anchor="start" x="780.8" y="-675.75" font-family="Helvetica,sans-Serif" font-weight="bold" font-size="12.00">text</text>
</g>
<!-- users -->
<g id="node4" class="node">
<title>users</title>
<path fill="none" stroke="black" d="M450.37,-394.85C450.37,-394.85 570.37,-394.85 570.37,-394.85 576.37,-394.85 582.37,-400.85 582.37,-406.85 582.37,-406.85 582.37,-605.85 582.37,-605.85 582.37,-611.85 576.37,-617.85 570.37,-617.85 570.37,-617.85 450.37,-617.85 450.37,-617.85 444.37,-617.85 438.37,-611.85 438.37,-605.85 438.37,-605.85 438.37,-406.85 438.37,-406.85 438.37,-400.85 444.37,-394.85 450.37,-394.85"/>
<text text-anchor="start" x="490.37" y="-597.45" font-family="Helvetica,sans-Serif" font-weight="bold" font-size="13.00">users</text>
<polyline fill="none" stroke="black" points="438.37,-587.85 582.37,-587.85 "/>
<text text-anchor="start" x="445.37" y="-573.75" font-family="Helvetica,sans-Serif" font-size="12.00">id* </text>
<text text-anchor="start" x="466.37" y="-573.75" font-family="Helvetica,sans-Serif" font-weight="bold" font-size="12.00">integer</text>
<text text-anchor="start" x="445.37" y="-556.75" font-family="Helvetica,sans-Serif" font-size="12.00">name </text>
<text text-anchor="start" x="484.37" y="-556.75" font-family="Helvetica,sans-Serif" font-weight="bold" font-size="12.00">text</text>
<text text-anchor="start" x="445.37" y="-539.75" font-family="Helvetica,sans-Serif" font-size="12.00">eula </text>
<text text-anchor="start" x="475.37" y="-539.75" font-family="Helvetica,sans-Serif" font-weight="bold" font-size="12.00">int</text>
<text text-anchor="start" x="445.37" y="-522.75" font-family="Helvetica,sans-Serif" font-size="12.00">gender </text>
<text text-anchor="start" x="492.37" y="-522.75" font-family="Helvetica,sans-Serif" font-weight="bold" font-size="12.00">text</text>
<text text-anchor="start" x="445.37" y="-505.75" font-family="Helvetica,sans-Serif" font-size="12.00">dob </text>
<text text-anchor="start" x="472.37" y="-505.75" font-family="Helvetica,sans-Serif" font-weight="bold" font-size="12.00">date</text>
<text text-anchor="start" x="445.37" y="-488.75" font-family="Helvetica,sans-Serif" font-size="12.00">act_lvl </text>
<text text-anchor="start" x="487.37" y="-488.75" font-family="Helvetica,sans-Serif" font-weight="bold" font-size="12.00">int</text>
<text text-anchor="start" x="445.37" y="-471.75" font-family="Helvetica,sans-Serif" font-size="12.00">goal_wt </text>
<text text-anchor="start" x="495.37" y="-471.75" font-family="Helvetica,sans-Serif" font-weight="bold" font-size="12.00">real</text>
<text text-anchor="start" x="445.37" y="-454.75" font-family="Helvetica,sans-Serif" font-size="12.00">goal_bf </text>
<text text-anchor="start" x="493.37" y="-454.75" font-family="Helvetica,sans-Serif" font-weight="bold" font-size="12.00">real</text>
<text text-anchor="start" x="445.37" y="-437.75" font-family="Helvetica,sans-Serif" font-size="12.00">bmr_id </text>
<text text-anchor="start" x="491.37" y="-437.75" font-family="Helvetica,sans-Serif" font-weight="bold" font-size="12.00">int</text>
<text text-anchor="start" x="445.37" y="-420.75" font-family="Helvetica,sans-Serif" font-size="12.00">bf_id </text>
<text text-anchor="start" x="478.37" y="-420.75" font-family="Helvetica,sans-Serif" font-weight="bold" font-size="12.00">int</text>
<text text-anchor="start" x="445.37" y="-403.75" font-family="Helvetica,sans-Serif" font-size="12.00">created </text>
<text text-anchor="start" x="495.37" y="-403.75" font-family="Helvetica,sans-Serif" font-weight="bold" font-size="12.00">int</text>
</g>
<!-- users&#45;&gt;bmr_eqs -->
<g id="edge2" class="edge">
<title>users&#45;&gt;bmr_eqs</title>
<path fill="none" stroke="black" stroke-width="0.9" d="M438.13,-526.06C361,-547.12 239.07,-580.39 159,-602.24"/>
<polygon fill="black" stroke="black" stroke-width="0.9" points="157.89,-599.64 150.91,-604.45 159.36,-605.05 157.89,-599.64"/>
</g>
<!-- users&#45;&gt;bf_eqs -->
<g id="edge1" class="edge">
<title>users&#45;&gt;bf_eqs</title>
<path fill="none" stroke="black" stroke-width="0.9" d="M582.61,-553.55C633.25,-586.64 700.18,-630.37 748.07,-661.67"/>
<polygon fill="black" stroke="black" stroke-width="0.9" points="746.77,-664.16 755,-666.19 749.83,-659.47 746.77,-664.16"/>
</g>
<!-- biometrics -->
<g id="node5" class="node">
<title>biometrics</title>
<path fill="none" stroke="black" d="M510.35,-1056.89C510.35,-1056.89 630.35,-1056.89 630.35,-1056.89 636.35,-1056.89 642.35,-1062.89 642.35,-1068.89 642.35,-1068.89 642.35,-1148.89 642.35,-1148.89 642.35,-1154.89 636.35,-1160.89 630.35,-1160.89 630.35,-1160.89 510.35,-1160.89 510.35,-1160.89 504.35,-1160.89 498.35,-1154.89 498.35,-1148.89 498.35,-1148.89 498.35,-1068.89 498.35,-1068.89 498.35,-1062.89 504.35,-1056.89 510.35,-1056.89"/>
<text text-anchor="start" x="531.35" y="-1140.49" font-family="Helvetica,sans-Serif" font-weight="bold" font-size="13.00">biometrics</text>
<polyline fill="none" stroke="black" points="498.35,-1130.89 642.35,-1130.89 "/>
<text text-anchor="start" x="505.35" y="-1117.29" font-family="Helvetica,sans-Serif" font-size="12.00">id* </text>
<text text-anchor="start" x="526.35" y="-1117.29" font-family="Helvetica,sans-Serif" font-weight="bold" font-size="12.00">integer</text>
<text text-anchor="start" x="505.35" y="-1100.29" font-family="Helvetica,sans-Serif" font-size="12.00">name </text>
<text text-anchor="start" x="544.35" y="-1100.29" font-family="Helvetica,sans-Serif" font-weight="bold" font-size="12.00">text</text>
<text text-anchor="start" x="505.35" y="-1083.29" font-family="Helvetica,sans-Serif" font-size="12.00">unit </text>
<text text-anchor="start" x="532.35" y="-1083.29" font-family="Helvetica,sans-Serif" font-weight="bold" font-size="12.00">text</text>
<text text-anchor="start" x="505.35" y="-1066.29" font-family="Helvetica,sans-Serif" font-size="12.00">created </text>
<text text-anchor="start" x="555.35" y="-1066.29" font-family="Helvetica,sans-Serif" font-weight="bold" font-size="12.00">int</text>
</g>
<!-- biometric_log -->
<g id="node6" class="node">
<title>biometric_log</title>
<path fill="none" stroke="black" d="M403.76,-801.69C403.76,-801.69 523.76,-801.69 523.76,-801.69 529.76,-801.69 535.76,-807.69 535.76,-813.69 535.76,-813.69 535.76,-927.69 535.76,-927.69 535.76,-933.69 529.76,-939.69 523.76,-939.69 523.76,-939.69 403.76,-939.69 403.76,-939.69 397.76,-939.69 391.76,-933.69 391.76,-927.69 391.76,-927.69 391.76,-813.69 391.76,-813.69 391.76,-807.69 397.76,-801.69 403.76,-801.69"/>
<text text-anchor="start" x="413.76" y="-919.29" font-family="Helvetica,sans-Serif" font-weight="bold" font-size="13.00">biometric_log</text>
<polyline fill="none" stroke="black" points="391.76,-909.69 535.76,-909.69 "/>
<text text-anchor="start" x="398.76" y="-896.09" font-family="Helvetica,sans-Serif" font-size="12.00">id* </text>
<text text-anchor="start" x="419.76" y="-896.09" font-family="Helvetica,sans-Serif" font-weight="bold" font-size="12.00">integer</text>
<text text-anchor="start" x="398.76" y="-879.09" font-family="Helvetica,sans-Serif" font-size="12.00">guid </text>
<text text-anchor="start" x="428.76" y="-879.09" font-family="Helvetica,sans-Serif" font-weight="bold" font-size="12.00">text</text>
<text text-anchor="start" x="398.76" y="-862.09" font-family="Helvetica,sans-Serif" font-size="12.00">user_id </text>
<text text-anchor="start" x="445.76" y="-862.09" font-family="Helvetica,sans-Serif" font-weight="bold" font-size="12.00">int</text>
<text text-anchor="start" x="398.76" y="-845.09" font-family="Helvetica,sans-Serif" font-size="12.00">date </text>
<text text-anchor="start" x="429.76" y="-845.09" font-family="Helvetica,sans-Serif" font-weight="bold" font-size="12.00">date</text>
<text text-anchor="start" x="398.76" y="-828.09" font-family="Helvetica,sans-Serif" font-size="12.00">biometric_id </text>
<text text-anchor="start" x="476.76" y="-828.09" font-family="Helvetica,sans-Serif" font-weight="bold" font-size="12.00">int</text>
<text text-anchor="start" x="398.76" y="-811.09" font-family="Helvetica,sans-Serif" font-size="12.00">value </text>
<text text-anchor="start" x="435.76" y="-811.09" font-family="Helvetica,sans-Serif" font-weight="bold" font-size="12.00">real</text>
</g>
<!-- biometric_log&#45;&gt;users -->
<g id="edge4" class="edge">
<title>biometric_log&#45;&gt;users</title>
<path fill="none" stroke="black" stroke-width="0.9" d="M472.63,-801.31C478.95,-751.91 487.61,-684.27 495.03,-626.23"/>
<polygon fill="black" stroke="black" stroke-width="0.9" points="497.83,-626.4 496.07,-618.11 492.28,-625.69 497.83,-626.4"/>
</g>
<!-- biometric_log&#45;&gt;biometrics -->
<g id="edge3" class="edge">
<title>biometric_log&#45;&gt;biometrics</title>
<path fill="none" stroke="black" stroke-width="0.9" d="M494.73,-939.91C510.22,-974.52 528.77,-1015.98 543.63,-1049.18"/>
<polygon fill="black" stroke="black" stroke-width="0.9" points="541.11,-1050.4 546.93,-1056.56 546.22,-1048.11 541.11,-1050.4"/>
</g>
<!-- recipes -->
<g id="node7" class="node">
<title>recipes</title>
<path fill="none" stroke="black" d="M295.84,-240.83C295.84,-240.83 415.84,-240.83 415.84,-240.83 421.84,-240.83 427.84,-246.83 427.84,-252.83 427.84,-252.83 427.84,-349.83 427.84,-349.83 427.84,-355.83 421.84,-361.83 415.84,-361.83 415.84,-361.83 295.84,-361.83 295.84,-361.83 289.84,-361.83 283.84,-355.83 283.84,-349.83 283.84,-349.83 283.84,-252.83 283.84,-252.83 283.84,-246.83 289.84,-240.83 295.84,-240.83"/>
<text text-anchor="start" x="328.84" y="-341.43" font-family="Helvetica,sans-Serif" font-weight="bold" font-size="13.00">recipes</text>
<polyline fill="none" stroke="black" points="283.84,-331.83 427.84,-331.83 "/>
<text text-anchor="start" x="290.84" y="-317.73" font-family="Helvetica,sans-Serif" font-size="12.00">id* </text>
<text text-anchor="start" x="311.84" y="-317.73" font-family="Helvetica,sans-Serif" font-weight="bold" font-size="12.00">integer</text>
<text text-anchor="start" x="290.84" y="-300.73" font-family="Helvetica,sans-Serif" font-size="12.00">guid </text>
<text text-anchor="start" x="320.84" y="-300.73" font-family="Helvetica,sans-Serif" font-weight="bold" font-size="12.00">text</text>
<text text-anchor="start" x="290.84" y="-283.73" font-family="Helvetica,sans-Serif" font-size="12.00">user_id </text>
<text text-anchor="start" x="337.84" y="-283.73" font-family="Helvetica,sans-Serif" font-weight="bold" font-size="12.00">int</text>
<text text-anchor="start" x="290.84" y="-266.73" font-family="Helvetica,sans-Serif" font-size="12.00">name </text>
<text text-anchor="start" x="329.84" y="-266.73" font-family="Helvetica,sans-Serif" font-weight="bold" font-size="12.00">text</text>
<text text-anchor="start" x="290.84" y="-249.73" font-family="Helvetica,sans-Serif" font-size="12.00">created </text>
<text text-anchor="start" x="340.84" y="-249.73" font-family="Helvetica,sans-Serif" font-weight="bold" font-size="12.00">int</text>
</g>
<!-- recipes&#45;&gt;users -->
<g id="edge5" class="edge">
<title>recipes&#45;&gt;users</title>
<path fill="none" stroke="black" stroke-width="0.9" d="M401.57,-362.01C411.53,-375.22 422.33,-389.55 433.13,-403.87"/>
<polygon fill="black" stroke="black" stroke-width="0.9" points="431.04,-405.75 438.09,-410.45 435.51,-402.38 431.04,-405.75"/>
</g>
<!-- recipe_dat -->
<g id="node8" class="node">
<title>recipe_dat</title>
<path fill="none" stroke="black" d="M12.47,-52.46C12.47,-52.46 132.47,-52.46 132.47,-52.46 138.47,-52.46 144.47,-58.46 144.47,-64.46 144.47,-64.46 144.47,-144.46 144.47,-144.46 144.47,-150.46 138.47,-156.46 132.47,-156.46 132.47,-156.46 12.47,-156.46 12.47,-156.46 6.47,-156.46 0.47,-150.46 0.47,-144.46 0.47,-144.46 0.47,-64.46 0.47,-64.46 0.47,-58.46 6.47,-52.46 12.47,-52.46"/>
<text text-anchor="start" x="34.47" y="-136.06" font-family="Helvetica,sans-Serif" font-weight="bold" font-size="13.00">recipe_dat</text>
<polyline fill="none" stroke="black" points="0.47,-126.46 144.47,-126.46 "/>
<text text-anchor="start" x="7.47" y="-112.86" font-family="Helvetica,sans-Serif" font-size="12.00">recipe_id </text>
<text text-anchor="start" x="65.47" y="-112.86" font-family="Helvetica,sans-Serif" font-weight="bold" font-size="12.00">int</text>
<text text-anchor="start" x="7.47" y="-95.86" font-family="Helvetica,sans-Serif" font-size="12.00">food_id </text>
<text text-anchor="start" x="55.47" y="-95.86" font-family="Helvetica,sans-Serif" font-weight="bold" font-size="12.00">int</text>
<text text-anchor="start" x="7.47" y="-78.86" font-family="Helvetica,sans-Serif" font-size="12.00">grams </text>
<text text-anchor="start" x="50.47" y="-78.86" font-family="Helvetica,sans-Serif" font-weight="bold" font-size="12.00">real</text>
<text text-anchor="start" x="7.47" y="-61.86" font-family="Helvetica,sans-Serif" font-size="12.00">notes </text>
<text text-anchor="start" x="44.47" y="-61.86" font-family="Helvetica,sans-Serif" font-weight="bold" font-size="12.00">text</text>
</g>
<!-- recipe_dat&#45;&gt;recipes -->
<g id="edge6" class="edge">
<title>recipe_dat&#45;&gt;recipes</title>
<path fill="none" stroke="black" stroke-width="0.9" d="M144.71,-154.64C185.17,-182.76 235.69,-217.85 277.15,-246.66"/>
<polygon fill="black" stroke="black" stroke-width="0.9" points="275.56,-248.97 283.73,-251.23 278.76,-244.37 275.56,-248.97"/>
</g>
<!-- meal_names -->
<g id="node9" class="node">
<title>meal_names</title>
<path fill="none" stroke="black" d="M931.54,-104.77C931.54,-104.77 1051.54,-104.77 1051.54,-104.77 1057.54,-104.77 1063.54,-110.77 1063.54,-116.77 1063.54,-116.77 1063.54,-162.77 1063.54,-162.77 1063.54,-168.77 1057.54,-174.77 1051.54,-174.77 1051.54,-174.77 931.54,-174.77 931.54,-174.77 925.54,-174.77 919.54,-168.77 919.54,-162.77 919.54,-162.77 919.54,-116.77 919.54,-116.77 919.54,-110.77 925.54,-104.77 931.54,-104.77"/>
<text text-anchor="start" x="946.54" y="-154.37" font-family="Helvetica,sans-Serif" font-weight="bold" font-size="13.00">meal_names</text>
<polyline fill="none" stroke="black" points="919.54,-144.77 1063.54,-144.77 "/>
<text text-anchor="start" x="926.54" y="-131.17" font-family="Helvetica,sans-Serif" font-size="12.00">id* </text>
<text text-anchor="start" x="947.54" y="-131.17" font-family="Helvetica,sans-Serif" font-weight="bold" font-size="12.00">integer</text>
<text text-anchor="start" x="926.54" y="-114.17" font-family="Helvetica,sans-Serif" font-size="12.00">name </text>
<text text-anchor="start" x="965.54" y="-114.17" font-family="Helvetica,sans-Serif" font-weight="bold" font-size="12.00">text</text>
</g>
<!-- food_log -->
<g id="node10" class="node">
<title>food_log</title>
<path fill="none" stroke="black" d="M633.13,-231.21C633.13,-231.21 753.13,-231.21 753.13,-231.21 759.13,-231.21 765.13,-237.21 765.13,-243.21 765.13,-243.21 765.13,-408.21 765.13,-408.21 765.13,-414.21 759.13,-420.21 753.13,-420.21 753.13,-420.21 633.13,-420.21 633.13,-420.21 627.13,-420.21 621.13,-414.21 621.13,-408.21 621.13,-408.21 621.13,-243.21 621.13,-243.21 621.13,-237.21 627.13,-231.21 633.13,-231.21"/>
<text text-anchor="start" x="662.13" y="-399.81" font-family="Helvetica,sans-Serif" font-weight="bold" font-size="13.00">food_log</text>
<polyline fill="none" stroke="black" points="621.13,-390.21 765.13,-390.21 "/>
<text text-anchor="start" x="628.13" y="-376.11" font-family="Helvetica,sans-Serif" font-size="12.00">id* </text>
<text text-anchor="start" x="649.13" y="-376.11" font-family="Helvetica,sans-Serif" font-weight="bold" font-size="12.00">integer</text>
<text text-anchor="start" x="628.13" y="-359.11" font-family="Helvetica,sans-Serif" font-size="12.00">guid </text>
<text text-anchor="start" x="658.13" y="-359.11" font-family="Helvetica,sans-Serif" font-weight="bold" font-size="12.00">text</text>
<text text-anchor="start" x="628.13" y="-342.11" font-family="Helvetica,sans-Serif" font-size="12.00">user_id </text>
<text text-anchor="start" x="675.13" y="-342.11" font-family="Helvetica,sans-Serif" font-weight="bold" font-size="12.00">int</text>
<text text-anchor="start" x="628.13" y="-325.11" font-family="Helvetica,sans-Serif" font-size="12.00">date </text>
<text text-anchor="start" x="659.13" y="-325.11" font-family="Helvetica,sans-Serif" font-weight="bold" font-size="12.00">date</text>
<text text-anchor="start" x="628.13" y="-308.11" font-family="Helvetica,sans-Serif" font-size="12.00">meal_id </text>
<text text-anchor="start" x="679.13" y="-308.11" font-family="Helvetica,sans-Serif" font-weight="bold" font-size="12.00">int</text>
<text text-anchor="start" x="628.13" y="-291.11" font-family="Helvetica,sans-Serif" font-size="12.00">amount </text>
<text text-anchor="start" x="679.13" y="-291.11" font-family="Helvetica,sans-Serif" font-weight="bold" font-size="12.00">real</text>
<text text-anchor="start" x="628.13" y="-274.11" font-family="Helvetica,sans-Serif" font-size="12.00">recipe_id </text>
<text text-anchor="start" x="686.13" y="-274.11" font-family="Helvetica,sans-Serif" font-weight="bold" font-size="12.00">int</text>
<text text-anchor="start" x="628.13" y="-257.11" font-family="Helvetica,sans-Serif" font-size="12.00">food_id </text>
<text text-anchor="start" x="676.13" y="-257.11" font-family="Helvetica,sans-Serif" font-weight="bold" font-size="12.00">int</text>
<text text-anchor="start" x="628.13" y="-240.11" font-family="Helvetica,sans-Serif" font-size="12.00">food_msre_id </text>
<text text-anchor="start" x="712.13" y="-240.11" font-family="Helvetica,sans-Serif" font-weight="bold" font-size="12.00">int</text>
</g>
<!-- food_log&#45;&gt;users -->
<g id="edge9" class="edge">
<title>food_log&#45;&gt;users</title>
<path fill="none" stroke="black" stroke-width="0.9" d="M620.9,-397.1C610.21,-407.67 599.15,-418.6 588.35,-429.28"/>
<polygon fill="black" stroke="black" stroke-width="0.9" points="586.1,-427.56 582.38,-435.18 590.03,-431.55 586.1,-427.56"/>
</g>
<!-- food_log&#45;&gt;recipes -->
<g id="edge7" class="edge">
<title>food_log&#45;&gt;recipes</title>
<path fill="none" stroke="black" stroke-width="0.9" d="M620.77,-320.48C566.53,-316.56 492.3,-311.19 436.21,-307.14"/>
<polygon fill="black" stroke="black" stroke-width="0.9" points="436.26,-304.34 428.07,-306.55 435.85,-309.92 436.26,-304.34"/>
</g>
<!-- food_log&#45;&gt;meal_names -->
<g id="edge8" class="edge">
<title>food_log&#45;&gt;meal_names</title>
<path fill="none" stroke="black" stroke-width="0.9" d="M765.37,-280.7C815.02,-249.76 880.33,-209.07 928,-179.36"/>
<polygon fill="black" stroke="black" stroke-width="0.9" points="929.59,-181.67 934.9,-175.06 926.63,-176.92 929.59,-181.67"/>
</g>
<!-- rda -->
<g id="node11" class="node">
<title>rda</title>
<path fill="none" stroke="black" d="M437.69,-0.67C437.69,-0.67 557.69,-0.67 557.69,-0.67 563.69,-0.67 569.69,-6.67 569.69,-12.67 569.69,-12.67 569.69,-92.67 569.69,-92.67 569.69,-98.67 563.69,-104.67 557.69,-104.67 557.69,-104.67 437.69,-104.67 437.69,-104.67 431.69,-104.67 425.69,-98.67 425.69,-92.67 425.69,-92.67 425.69,-12.67 425.69,-12.67 425.69,-6.67 431.69,-0.67 437.69,-0.67"/>
<text text-anchor="start" x="485.69" y="-84.27" font-family="Helvetica,sans-Serif" font-weight="bold" font-size="13.00">rda</text>
<polyline fill="none" stroke="black" points="425.69,-74.67 569.69,-74.67 "/>
<text text-anchor="start" x="432.69" y="-61.07" font-family="Helvetica,sans-Serif" font-size="12.00">user_id </text>
<text text-anchor="start" x="479.69" y="-61.07" font-family="Helvetica,sans-Serif" font-weight="bold" font-size="12.00">int</text>
<text text-anchor="start" x="432.69" y="-44.07" font-family="Helvetica,sans-Serif" font-size="12.00">nutr_id </text>
<text text-anchor="start" x="478.69" y="-44.07" font-family="Helvetica,sans-Serif" font-weight="bold" font-size="12.00">int</text>
<text text-anchor="start" x="432.69" y="-27.07" font-family="Helvetica,sans-Serif" font-size="12.00">rda </text>
<text text-anchor="start" x="456.69" y="-27.07" font-family="Helvetica,sans-Serif" font-weight="bold" font-size="12.00">real</text>
<text text-anchor="start" x="432.69" y="-10.07" font-family="Helvetica,sans-Serif" font-size="12.00">synced </text>
<text text-anchor="start" x="478.69" y="-10.07" font-family="Helvetica,sans-Serif" font-weight="bold" font-size="12.00">int</text>
</g>
<!-- rda&#45;&gt;users -->
<g id="edge10" class="edge">
<title>rda&#45;&gt;users</title>
<path fill="none" stroke="black" stroke-width="0.9" d="M499.14,-104.71C501.05,-172.94 504.45,-294.71 507.02,-386.34"/>
<polygon fill="black" stroke="black" stroke-width="0.9" points="504.22,-386.63 507.24,-394.55 509.82,-386.47 504.22,-386.63"/>
</g>
</g>
</svg>
