<?xml version="1.0" encoding="UTF-8" standalone="no"?>
<!DOCTYPE svg PUBLIC "-//W3C//DTD SVG 1.1//EN"
 "http://www.w3.org/Graphics/SVG/1.1/DTD/svg11.dtd">
<!-- Generated by graphviz version 2.43.0 (0)
 -->
<!-- Title: undefined Pages: 1 -->
<svg width="1281pt" height="1625pt"
 viewBox="0.00 0.00 1280.60 1624.60" xmlns="http://www.w3.org/2000/svg" xmlns:xlink="http://www.w3.org/1999/xlink">
<g id="graph0" class="graph" transform="scale(1 1) rotate(0) translate(28.8 1574.8)">
<title>undefined</title>
<polygon fill="white" stroke="transparent" points="-28.8,49.8 -28.8,-1574.8 1251.8,-1574.8 1251.8,49.8 -28.8,49.8"/>
<text text-anchor="start" x="583" y="12.6" font-family="Helvetica,sans-Serif" font-weight="bold" font-size="12.00">nt.sqlite</text>
<!-- table_versions -->
<g id="node1" class="node">
<title>table_versions</title>
<path fill="none" stroke="black" d="M860.24,-530.64C860.24,-530.64 980.24,-530.64 980.24,-530.64 986.24,-530.64 992.24,-536.64 992.24,-542.64 992.24,-542.64 992.24,-588.64 992.24,-588.64 992.24,-594.64 986.24,-600.64 980.24,-600.64 980.24,-600.64 860.24,-600.64 860.24,-600.64 854.24,-600.64 848.24,-594.64 848.24,-588.64 848.24,-588.64 848.24,-542.64 848.24,-542.64 848.24,-536.64 854.24,-530.64 860.24,-530.64"/>
<text text-anchor="start" x="867.24" y="-580.24" font-family="Helvetica,sans-Serif" font-weight="bold" font-size="13.00">table_versions</text>
<polyline fill="none" stroke="black" points="848.24,-570.64 992.24,-570.64 "/>
<text text-anchor="start" x="855.24" y="-557.04" font-family="Helvetica,sans-Serif" font-size="12.00">tablename* </text>
<text text-anchor="start" x="930.24" y="-557.04" font-family="Helvetica,sans-Serif" font-weight="bold" font-size="12.00">text</text>
<text text-anchor="start" x="855.24" y="-540.04" font-family="Helvetica,sans-Serif" font-size="12.00">version </text>
<text text-anchor="start" x="903.24" y="-540.04" font-family="Helvetica,sans-Serif" font-weight="bold" font-size="12.00">int</text>
</g>
<!-- goals -->
<g id="node2" class="node">
<title>goals</title>
<path fill="none" stroke="black" d="M79.63,-1084.09C79.63,-1084.09 199.63,-1084.09 199.63,-1084.09 205.63,-1084.09 211.63,-1090.09 211.63,-1096.09 211.63,-1096.09 211.63,-1142.09 211.63,-1142.09 211.63,-1148.09 205.63,-1154.09 199.63,-1154.09 199.63,-1154.09 79.63,-1154.09 79.63,-1154.09 73.63,-1154.09 67.63,-1148.09 67.63,-1142.09 67.63,-1142.09 67.63,-1096.09 67.63,-1096.09 67.63,-1090.09 73.63,-1084.09 79.63,-1084.09"/>
<text text-anchor="start" x="119.63" y="-1133.69" font-family="Helvetica,sans-Serif" font-weight="bold" font-size="13.00">goals</text>
<polyline fill="none" stroke="black" points="67.63,-1124.09 211.63,-1124.09 "/>
<text text-anchor="start" x="74.63" y="-1110.49" font-family="Helvetica,sans-Serif" font-size="12.00">id* </text>
<text text-anchor="start" x="95.63" y="-1110.49" font-family="Helvetica,sans-Serif" font-weight="bold" font-size="12.00">integer</text>
<text text-anchor="start" x="74.63" y="-1093.49" font-family="Helvetica,sans-Serif" font-size="12.00">goal_desc </text>
<text text-anchor="start" x="138.63" y="-1093.49" font-family="Helvetica,sans-Serif" font-weight="bold" font-size="12.00">text</text>
</g>
<!-- bmr_eqs -->
<g id="node3" class="node">
<title>bmr_eqs</title>
<path fill="none" stroke="black" d="M1069.01,-1051.57C1069.01,-1051.57 1189.01,-1051.57 1189.01,-1051.57 1195.01,-1051.57 1201.01,-1057.57 1201.01,-1063.57 1201.01,-1063.57 1201.01,-1109.57 1201.01,-1109.57 1201.01,-1115.57 1195.01,-1121.57 1189.01,-1121.57 1189.01,-1121.57 1069.01,-1121.57 1069.01,-1121.57 1063.01,-1121.57 1057.01,-1115.57 1057.01,-1109.57 1057.01,-1109.57 1057.01,-1063.57 1057.01,-1063.57 1057.01,-1057.57 1063.01,-1051.57 1069.01,-1051.57"/>
<text text-anchor="start" x="1098.01" y="-1101.17" font-family="Helvetica,sans-Serif" font-weight="bold" font-size="13.00">bmr_eqs</text>
<polyline fill="none" stroke="black" points="1057.01,-1091.57 1201.01,-1091.57 "/>
<text text-anchor="start" x="1064.01" y="-1077.97" font-family="Helvetica,sans-Serif" font-size="12.00">id* </text>
<text text-anchor="start" x="1085.01" y="-1077.97" font-family="Helvetica,sans-Serif" font-weight="bold" font-size="12.00">integer</text>
<text text-anchor="start" x="1064.01" y="-1060.97" font-family="Helvetica,sans-Serif" font-size="12.00">bmr_eq </text>
<text text-anchor="start" x="1114.01" y="-1060.97" font-family="Helvetica,sans-Serif" font-weight="bold" font-size="12.00">text</text>
</g>
<!-- bf_eqs -->
<g id="node4" class="node">
<title>bf_eqs</title>
<path fill="none" stroke="black" d="M12.39,-629.11C12.39,-629.11 132.39,-629.11 132.39,-629.11 138.39,-629.11 144.39,-635.11 144.39,-641.11 144.39,-641.11 144.39,-687.11 144.39,-687.11 144.39,-693.11 138.39,-699.11 132.39,-699.11 132.39,-699.11 12.39,-699.11 12.39,-699.11 6.39,-699.11 0.39,-693.11 0.39,-687.11 0.39,-687.11 0.39,-641.11 0.39,-641.11 0.39,-635.11 6.39,-629.11 12.39,-629.11"/>
<text text-anchor="start" x="48.39" y="-678.71" font-family="Helvetica,sans-Serif" font-weight="bold" font-size="13.00">bf_eqs</text>
<polyline fill="none" stroke="black" points="0.39,-669.11 144.39,-669.11 "/>
<text text-anchor="start" x="7.39" y="-655.51" font-family="Helvetica,sans-Serif" font-size="12.00">id* </text>
<text text-anchor="start" x="28.39" y="-655.51" font-family="Helvetica,sans-Serif" font-weight="bold" font-size="12.00">integer</text>
<text text-anchor="start" x="7.39" y="-638.51" font-family="Helvetica,sans-Serif" font-size="12.00">bf_eq </text>
<text text-anchor="start" x="44.39" y="-638.51" font-family="Helvetica,sans-Serif" font-weight="bold" font-size="12.00">text</text>
</g>
<!-- lbm_eqs -->
<g id="node5" class="node">
<title>lbm_eqs</title>
<path fill="none" stroke="black" d="M359.38,-1292.95C359.38,-1292.95 479.38,-1292.95 479.38,-1292.95 485.38,-1292.95 491.38,-1298.95 491.38,-1304.95 491.38,-1304.95 491.38,-1350.95 491.38,-1350.95 491.38,-1356.95 485.38,-1362.95 479.38,-1362.95 479.38,-1362.95 359.38,-1362.95 359.38,-1362.95 353.38,-1362.95 347.38,-1356.95 347.38,-1350.95 347.38,-1350.95 347.38,-1304.95 347.38,-1304.95 347.38,-1298.95 353.38,-1292.95 359.38,-1292.95"/>
<text text-anchor="start" x="389.38" y="-1342.55" font-family="Helvetica,sans-Serif" font-weight="bold" font-size="13.00">lbm_eqs</text>
<polyline fill="none" stroke="black" points="347.38,-1332.95 491.38,-1332.95 "/>
<text text-anchor="start" x="354.38" y="-1319.35" font-family="Helvetica,sans-Serif" font-size="12.00">id* </text>
<text text-anchor="start" x="375.38" y="-1319.35" font-family="Helvetica,sans-Serif" font-weight="bold" font-size="12.00">integer</text>
<text text-anchor="start" x="354.38" y="-1302.35" font-family="Helvetica,sans-Serif" font-size="12.00">lbm_eq </text>
<text text-anchor="start" x="402.38" y="-1302.35" font-family="Helvetica,sans-Serif" font-weight="bold" font-size="12.00">text</text>
</g>
<!-- users -->
<g id="node6" class="node">
<title>users</title>
<path fill="none" stroke="black" d="M559.19,-792.82C559.19,-792.82 679.19,-792.82 679.19,-792.82 685.19,-792.82 691.19,-798.82 691.19,-804.82 691.19,-804.82 691.19,-1054.82 691.19,-1054.82 691.19,-1060.82 685.19,-1066.82 679.19,-1066.82 679.19,-1066.82 559.19,-1066.82 559.19,-1066.82 553.19,-1066.82 547.19,-1060.82 547.19,-1054.82 547.19,-1054.82 547.19,-804.82 547.19,-804.82 547.19,-798.82 553.19,-792.82 559.19,-792.82"/>
<text text-anchor="start" x="599.19" y="-1046.42" font-family="Helvetica,sans-Serif" font-weight="bold" font-size="13.00">users</text>
<polyline fill="none" stroke="black" points="547.19,-1036.82 691.19,-1036.82 "/>
<text text-anchor="start" x="554.19" y="-1023.22" font-family="Helvetica,sans-Serif" font-size="12.00">id* </text>
<text text-anchor="start" x="575.19" y="-1023.22" font-family="Helvetica,sans-Serif" font-weight="bold" font-size="12.00">integer</text>
<text text-anchor="start" x="554.19" y="-1006.22" font-family="Helvetica,sans-Serif" font-size="12.00">name </text>
<text text-anchor="start" x="593.19" y="-1006.22" font-family="Helvetica,sans-Serif" font-weight="bold" font-size="12.00">text</text>
<text text-anchor="start" x="554.19" y="-989.22" font-family="Helvetica,sans-Serif" font-size="12.00">eula </text>
<text text-anchor="start" x="584.19" y="-989.22" font-family="Helvetica,sans-Serif" font-weight="bold" font-size="12.00">int</text>
<text text-anchor="start" x="554.19" y="-972.22" font-family="Helvetica,sans-Serif" font-size="12.00">email </text>
<text text-anchor="start" x="591.19" y="-972.22" font-family="Helvetica,sans-Serif" font-weight="bold" font-size="12.00">text</text>
<text text-anchor="start" x="554.19" y="-955.22" font-family="Helvetica,sans-Serif" font-size="12.00">gender </text>
<text text-anchor="start" x="601.19" y="-955.22" font-family="Helvetica,sans-Serif" font-weight="bold" font-size="12.00">text</text>
<text text-anchor="start" x="554.19" y="-938.22" font-family="Helvetica,sans-Serif" font-size="12.00">dob </text>
<text text-anchor="start" x="581.19" y="-938.22" font-family="Helvetica,sans-Serif" font-weight="bold" font-size="12.00">date</text>
<text text-anchor="start" x="554.19" y="-921.22" font-family="Helvetica,sans-Serif" font-size="12.00">act_lvl </text>
<text text-anchor="start" x="596.19" y="-921.22" font-family="Helvetica,sans-Serif" font-weight="bold" font-size="12.00">int</text>
<text text-anchor="start" x="554.19" y="-904.22" font-family="Helvetica,sans-Serif" font-size="12.00">goal_id </text>
<text text-anchor="start" x="600.19" y="-904.22" font-family="Helvetica,sans-Serif" font-weight="bold" font-size="12.00">int</text>
<text text-anchor="start" x="554.19" y="-887.22" font-family="Helvetica,sans-Serif" font-size="12.00">goal_wt </text>
<text text-anchor="start" x="604.19" y="-887.22" font-family="Helvetica,sans-Serif" font-weight="bold" font-size="12.00">real</text>
<text text-anchor="start" x="554.19" y="-870.22" font-family="Helvetica,sans-Serif" font-size="12.00">goal_bf </text>
<text text-anchor="start" x="602.19" y="-870.22" font-family="Helvetica,sans-Serif" font-weight="bold" font-size="12.00">real</text>
<text text-anchor="start" x="554.19" y="-853.22" font-family="Helvetica,sans-Serif" font-size="12.00">bmr_id </text>
<text text-anchor="start" x="600.19" y="-853.22" font-family="Helvetica,sans-Serif" font-weight="bold" font-size="12.00">int</text>
<text text-anchor="start" x="554.19" y="-836.22" font-family="Helvetica,sans-Serif" font-size="12.00">bf_id </text>
<text text-anchor="start" x="587.19" y="-836.22" font-family="Helvetica,sans-Serif" font-weight="bold" font-size="12.00">int</text>
<text text-anchor="start" x="554.19" y="-819.22" font-family="Helvetica,sans-Serif" font-size="12.00">lbm_id </text>
<text text-anchor="start" x="597.19" y="-819.22" font-family="Helvetica,sans-Serif" font-weight="bold" font-size="12.00">int</text>
<text text-anchor="start" x="554.19" y="-802.22" font-family="Helvetica,sans-Serif" font-size="12.00">created </text>
<text text-anchor="start" x="604.19" y="-802.22" font-family="Helvetica,sans-Serif" font-weight="bold" font-size="12.00">int</text>
</g>
<!-- users&#45;&gt;goals -->
<g id="edge4" class="edge">
<title>users&#45;&gt;goals</title>
<path fill="none" stroke="black" stroke-width="0.9" d="M547.13,-958.26C459.14,-992.99 310.76,-1051.55 219.4,-1087.61"/>
<polygon fill="black" stroke="black" stroke-width="0.9" points="218.25,-1085.06 211.84,-1090.6 220.3,-1090.26 218.25,-1085.06"/>
</g>
<!-- users&#45;&gt;bmr_eqs -->
<g id="edge3" class="edge">
<title>users&#45;&gt;bmr_eqs</title>
<path fill="none" stroke="black" stroke-width="0.9" d="M691.42,-952.03C785.83,-981.06 950.67,-1031.74 1048.85,-1061.93"/>
<polygon fill="black" stroke="black" stroke-width="0.9" points="1048.2,-1064.66 1056.67,-1064.33 1049.85,-1059.31 1048.2,-1064.66"/>
</g>
<!-- users&#45;&gt;bf_eqs -->
<g id="edge2" class="edge">
<title>users&#45;&gt;bf_eqs</title>
<path fill="none" stroke="black" stroke-width="0.9" d="M547.14,-894.81C444.9,-845.13 258.37,-754.49 152.1,-702.84"/>
<polygon fill="black" stroke="black" stroke-width="0.9" points="153.01,-700.17 144.59,-699.19 150.56,-705.21 153.01,-700.17"/>
</g>
<!-- users&#45;&gt;lbm_eqs -->
<g id="edge1" class="edge">
<title>users&#45;&gt;lbm_eqs</title>
<path fill="none" stroke="black" stroke-width="0.9" d="M550.43,-1066.83C512.01,-1143.37 466.78,-1233.5 440.76,-1285.35"/>
<polygon fill="black" stroke="black" stroke-width="0.9" points="438.14,-1284.32 437.06,-1292.72 443.15,-1286.83 438.14,-1284.32"/>
</g>
<!-- measurements -->
<g id="node7" class="node">
<title>measurements</title>
<path fill="none" stroke="black" d="M735.21,-1084.27C735.21,-1084.27 855.21,-1084.27 855.21,-1084.27 861.21,-1084.27 867.21,-1090.27 867.21,-1096.27 867.21,-1096.27 867.21,-1533.27 867.21,-1533.27 867.21,-1539.27 861.21,-1545.27 855.21,-1545.27 855.21,-1545.27 735.21,-1545.27 735.21,-1545.27 729.21,-1545.27 723.21,-1539.27 723.21,-1533.27 723.21,-1533.27 723.21,-1096.27 723.21,-1096.27 723.21,-1090.27 729.21,-1084.27 735.21,-1084.27"/>
<text text-anchor="start" x="741.21" y="-1524.87" font-family="Helvetica,sans-Serif" font-weight="bold" font-size="13.00">measurements</text>
<polyline fill="none" stroke="black" points="723.21,-1515.27 867.21,-1515.27 "/>
<text text-anchor="start" x="730.21" y="-1501.17" font-family="Helvetica,sans-Serif" font-size="12.00">id* </text>
<text text-anchor="start" x="751.21" y="-1501.17" font-family="Helvetica,sans-Serif" font-weight="bold" font-size="12.00">integer</text>
<text text-anchor="start" x="730.21" y="-1484.17" font-family="Helvetica,sans-Serif" font-size="12.00">user_id </text>
<text text-anchor="start" x="777.21" y="-1484.17" font-family="Helvetica,sans-Serif" font-weight="bold" font-size="12.00">int</text>
<text text-anchor="start" x="730.21" y="-1467.17" font-family="Helvetica,sans-Serif" font-size="12.00">weight </text>
<text text-anchor="start" x="774.21" y="-1467.17" font-family="Helvetica,sans-Serif" font-weight="bold" font-size="12.00">real</text>
<text text-anchor="start" x="730.21" y="-1450.17" font-family="Helvetica,sans-Serif" font-size="12.00">height </text>
<text text-anchor="start" x="772.21" y="-1450.17" font-family="Helvetica,sans-Serif" font-weight="bold" font-size="12.00">int</text>
<text text-anchor="start" x="730.21" y="-1433.17" font-family="Helvetica,sans-Serif" font-size="12.00">wrist </text>
<text text-anchor="start" x="763.21" y="-1433.17" font-family="Helvetica,sans-Serif" font-weight="bold" font-size="12.00">real</text>
<text text-anchor="start" x="730.21" y="-1416.17" font-family="Helvetica,sans-Serif" font-size="12.00">ankle </text>
<text text-anchor="start" x="767.21" y="-1416.17" font-family="Helvetica,sans-Serif" font-weight="bold" font-size="12.00">real</text>
<text text-anchor="start" x="730.21" y="-1399.17" font-family="Helvetica,sans-Serif" font-size="12.00">chest </text>
<text text-anchor="start" x="767.21" y="-1399.17" font-family="Helvetica,sans-Serif" font-weight="bold" font-size="12.00">real</text>
<text text-anchor="start" x="730.21" y="-1382.17" font-family="Helvetica,sans-Serif" font-size="12.00">arm </text>
<text text-anchor="start" x="758.21" y="-1382.17" font-family="Helvetica,sans-Serif" font-weight="bold" font-size="12.00">real</text>
<text text-anchor="start" x="730.21" y="-1365.17" font-family="Helvetica,sans-Serif" font-size="12.00">thigh </text>
<text text-anchor="start" x="764.21" y="-1365.17" font-family="Helvetica,sans-Serif" font-weight="bold" font-size="12.00">real</text>
<text text-anchor="start" x="730.21" y="-1348.17" font-family="Helvetica,sans-Serif" font-size="12.00">calf </text>
<text text-anchor="start" x="756.21" y="-1348.17" font-family="Helvetica,sans-Serif" font-weight="bold" font-size="12.00">real</text>
<text text-anchor="start" x="730.21" y="-1331.17" font-family="Helvetica,sans-Serif" font-size="12.00">shoulders </text>
<text text-anchor="start" x="792.21" y="-1331.17" font-family="Helvetica,sans-Serif" font-weight="bold" font-size="12.00">real</text>
<text text-anchor="start" x="730.21" y="-1314.17" font-family="Helvetica,sans-Serif" font-size="12.00">waist </text>
<text text-anchor="start" x="765.21" y="-1314.17" font-family="Helvetica,sans-Serif" font-weight="bold" font-size="12.00">real</text>
<text text-anchor="start" x="730.21" y="-1297.17" font-family="Helvetica,sans-Serif" font-size="12.00">hips </text>
<text text-anchor="start" x="758.21" y="-1297.17" font-family="Helvetica,sans-Serif" font-weight="bold" font-size="12.00">real</text>
<text text-anchor="start" x="730.21" y="-1280.17" font-family="Helvetica,sans-Serif" font-size="12.00">neck </text>
<text text-anchor="start" x="763.21" y="-1280.17" font-family="Helvetica,sans-Serif" font-weight="bold" font-size="12.00">real</text>
<text text-anchor="start" x="730.21" y="-1263.17" font-family="Helvetica,sans-Serif" font-size="12.00">forearm </text>
<text text-anchor="start" x="782.21" y="-1263.17" font-family="Helvetica,sans-Serif" font-weight="bold" font-size="12.00">real</text>
<text text-anchor="start" x="730.21" y="-1246.17" font-family="Helvetica,sans-Serif" font-size="12.00">pectoral </text>
<text text-anchor="start" x="784.21" y="-1246.17" font-family="Helvetica,sans-Serif" font-weight="bold" font-size="12.00">int</text>
<text text-anchor="start" x="730.21" y="-1229.17" font-family="Helvetica,sans-Serif" font-size="12.00">abdominal </text>
<text text-anchor="start" x="797.21" y="-1229.17" font-family="Helvetica,sans-Serif" font-weight="bold" font-size="12.00">int</text>
<text text-anchor="start" x="730.21" y="-1212.17" font-family="Helvetica,sans-Serif" font-size="12.00">quadricep </text>
<text text-anchor="start" x="794.21" y="-1212.17" font-family="Helvetica,sans-Serif" font-weight="bold" font-size="12.00">int</text>
<text text-anchor="start" x="730.21" y="-1195.17" font-family="Helvetica,sans-Serif" font-size="12.00">midaxillary </text>
<text text-anchor="start" x="800.21" y="-1195.17" font-family="Helvetica,sans-Serif" font-weight="bold" font-size="12.00">int</text>
<text text-anchor="start" x="730.21" y="-1178.17" font-family="Helvetica,sans-Serif" font-size="12.00">subscapular </text>
<text text-anchor="start" x="806.21" y="-1178.17" font-family="Helvetica,sans-Serif" font-weight="bold" font-size="12.00">int</text>
<text text-anchor="start" x="730.21" y="-1161.17" font-family="Helvetica,sans-Serif" font-size="12.00">tricep </text>
<text text-anchor="start" x="769.21" y="-1161.17" font-family="Helvetica,sans-Serif" font-weight="bold" font-size="12.00">int</text>
<text text-anchor="start" x="730.21" y="-1144.17" font-family="Helvetica,sans-Serif" font-size="12.00">suprailiac </text>
<text text-anchor="start" x="791.21" y="-1144.17" font-family="Helvetica,sans-Serif" font-weight="bold" font-size="12.00">int</text>
<text text-anchor="start" x="730.21" y="-1127.17" font-family="Helvetica,sans-Serif" font-size="12.00">date </text>
<text text-anchor="start" x="761.21" y="-1127.17" font-family="Helvetica,sans-Serif" font-weight="bold" font-size="12.00">date</text>
<text text-anchor="start" x="730.21" y="-1110.17" font-family="Helvetica,sans-Serif" font-size="12.00">created </text>
<text text-anchor="start" x="780.21" y="-1110.17" font-family="Helvetica,sans-Serif" font-weight="bold" font-size="12.00">int</text>
<text text-anchor="start" x="730.21" y="-1093.17" font-family="Helvetica,sans-Serif" font-size="12.00">updated </text>
<text text-anchor="start" x="784.21" y="-1093.17" font-family="Helvetica,sans-Serif" font-weight="bold" font-size="12.00">int</text>
</g>
<!-- measurements&#45;&gt;users -->
<g id="edge5" class="edge">
<title>measurements&#45;&gt;users</title>
<path fill="none" stroke="black" stroke-width="0.9" d="M723.1,-1157.09C710.61,-1129.76 697.67,-1101.46 685.34,-1074.5"/>
<polygon fill="black" stroke="black" stroke-width="0.9" points="687.75,-1073.04 681.88,-1066.93 682.66,-1075.37 687.75,-1073.04"/>
</g>
<!-- biometrics -->
<g id="node8" class="node">
<title>biometrics</title>
<path fill="none" stroke="black" d="M1090.84,-509.08C1090.84,-509.08 1210.84,-509.08 1210.84,-509.08 1216.84,-509.08 1222.84,-515.08 1222.84,-521.08 1222.84,-521.08 1222.84,-618.08 1222.84,-618.08 1222.84,-624.08 1216.84,-630.08 1210.84,-630.08 1210.84,-630.08 1090.84,-630.08 1090.84,-630.08 1084.84,-630.08 1078.84,-624.08 1078.84,-618.08 1078.84,-618.08 1078.84,-521.08 1078.84,-521.08 1078.84,-515.08 1084.84,-509.08 1090.84,-509.08"/>
<text text-anchor="start" x="1111.84" y="-609.68" font-family="Helvetica,sans-Serif" font-weight="bold" font-size="13.00">biometrics</text>
<polyline fill="none" stroke="black" points="1078.84,-600.08 1222.84,-600.08 "/>
<text text-anchor="start" x="1085.84" y="-585.98" font-family="Helvetica,sans-Serif" font-size="12.00">id* </text>
<text text-anchor="start" x="1106.84" y="-585.98" font-family="Helvetica,sans-Serif" font-weight="bold" font-size="12.00">integer</text>
<text text-anchor="start" x="1085.84" y="-568.98" font-family="Helvetica,sans-Serif" font-size="12.00">user_id </text>
<text text-anchor="start" x="1132.84" y="-568.98" font-family="Helvetica,sans-Serif" font-weight="bold" font-size="12.00">int</text>
<text text-anchor="start" x="1085.84" y="-551.98" font-family="Helvetica,sans-Serif" font-size="12.00">name </text>
<text text-anchor="start" x="1124.84" y="-551.98" font-family="Helvetica,sans-Serif" font-weight="bold" font-size="12.00">text</text>
<text text-anchor="start" x="1085.84" y="-534.98" font-family="Helvetica,sans-Serif" font-size="12.00">units </text>
<text text-anchor="start" x="1118.84" y="-534.98" font-family="Helvetica,sans-Serif" font-weight="bold" font-size="12.00">text</text>
<text text-anchor="start" x="1085.84" y="-517.98" font-family="Helvetica,sans-Serif" font-size="12.00">created </text>
<text text-anchor="start" x="1135.84" y="-517.98" font-family="Helvetica,sans-Serif" font-weight="bold" font-size="12.00">int</text>
</g>
<!-- biometrics&#45;&gt;users -->
<g id="edge6" class="edge">
<title>biometrics&#45;&gt;users</title>
<path fill="none" stroke="black" stroke-width="0.9" d="M1078.55,-602.22C1008.58,-635.26 900.89,-689.98 815.71,-750.45 774.23,-779.9 732.07,-817.2 697.49,-850.16"/>
<polygon fill="black" stroke="black" stroke-width="0.9" points="695.41,-848.28 691.57,-855.83 699.28,-852.32 695.41,-848.28"/>
</g>
<!-- biometric_log -->
<g id="node9" class="node">
<title>biometric_log</title>
<path fill="none" stroke="black" d="M830.91,-753.65C830.91,-753.65 950.91,-753.65 950.91,-753.65 956.91,-753.65 962.91,-759.65 962.91,-765.65 962.91,-765.65 962.91,-879.65 962.91,-879.65 962.91,-885.65 956.91,-891.65 950.91,-891.65 950.91,-891.65 830.91,-891.65 830.91,-891.65 824.91,-891.65 818.91,-885.65 818.91,-879.65 818.91,-879.65 818.91,-765.65 818.91,-765.65 818.91,-759.65 824.91,-753.65 830.91,-753.65"/>
<text text-anchor="start" x="840.91" y="-871.25" font-family="Helvetica,sans-Serif" font-weight="bold" font-size="13.00">biometric_log</text>
<polyline fill="none" stroke="black" points="818.91,-861.65 962.91,-861.65 "/>
<text text-anchor="start" x="825.91" y="-848.05" font-family="Helvetica,sans-Serif" font-size="12.00">id* </text>
<text text-anchor="start" x="846.91" y="-848.05" font-family="Helvetica,sans-Serif" font-weight="bold" font-size="12.00">integer</text>
<text text-anchor="start" x="825.91" y="-831.05" font-family="Helvetica,sans-Serif" font-size="12.00">user_id </text>
<text text-anchor="start" x="872.91" y="-831.05" font-family="Helvetica,sans-Serif" font-weight="bold" font-size="12.00">int</text>
<text text-anchor="start" x="825.91" y="-814.05" font-family="Helvetica,sans-Serif" font-size="12.00">biometric_id </text>
<text text-anchor="start" x="903.91" y="-814.05" font-family="Helvetica,sans-Serif" font-weight="bold" font-size="12.00">int</text>
<text text-anchor="start" x="825.91" y="-797.05" font-family="Helvetica,sans-Serif" font-size="12.00">value </text>
<text text-anchor="start" x="862.91" y="-797.05" font-family="Helvetica,sans-Serif" font-weight="bold" font-size="12.00">real</text>
<text text-anchor="start" x="825.91" y="-780.05" font-family="Helvetica,sans-Serif" font-size="12.00">created </text>
<text text-anchor="start" x="875.91" y="-780.05" font-family="Helvetica,sans-Serif" font-weight="bold" font-size="12.00">int</text>
<text text-anchor="start" x="825.91" y="-763.05" font-family="Helvetica,sans-Serif" font-size="12.00">updated </text>
<text text-anchor="start" x="879.91" y="-763.05" font-family="Helvetica,sans-Serif" font-weight="bold" font-size="12.00">int</text>
</g>
<!-- biometric_log&#45;&gt;users -->
<g id="edge8" class="edge">
<title>biometric_log&#45;&gt;users</title>
<path fill="none" stroke="black" stroke-width="0.9" d="M818.81,-851.09C781.96,-865.62 737.02,-883.35 699.11,-898.3"/>
<polygon fill="black" stroke="black" stroke-width="0.9" points="698.04,-895.71 691.63,-901.25 700.1,-900.92 698.04,-895.71"/>
</g>
<!-- biometric_log&#45;&gt;biometrics -->
<g id="edge7" class="edge">
<title>biometric_log&#45;&gt;biometrics</title>
<path fill="none" stroke="black" stroke-width="0.9" d="M961.94,-753.5C999.46,-716.96 1045.3,-672.33 1082.43,-636.19"/>
<polygon fill="black" stroke="black" stroke-width="0.9" points="1084.53,-638.05 1088.31,-630.46 1080.62,-634.03 1084.53,-638.05"/>
</g>
<!-- recipes -->
<g id="node10" class="node">
<title>recipes</title>
<path fill="none" stroke="black" d="M582.18,-236.6C582.18,-236.6 702.18,-236.6 702.18,-236.6 708.18,-236.6 714.18,-242.6 714.18,-248.6 714.18,-248.6 714.18,-345.6 714.18,-345.6 714.18,-351.6 708.18,-357.6 702.18,-357.6 702.18,-357.6 582.18,-357.6 582.18,-357.6 576.18,-357.6 570.18,-351.6 570.18,-345.6 570.18,-345.6 570.18,-248.6 570.18,-248.6 570.18,-242.6 576.18,-236.6 582.18,-236.6"/>
<text text-anchor="start" x="615.18" y="-337.2" font-family="Helvetica,sans-Serif" font-weight="bold" font-size="13.00">recipes</text>
<polyline fill="none" stroke="black" points="570.18,-327.6 714.18,-327.6 "/>
<text text-anchor="start" x="577.18" y="-313.5" font-family="Helvetica,sans-Serif" font-size="12.00">id* </text>
<text text-anchor="start" x="598.18" y="-313.5" font-family="Helvetica,sans-Serif" font-weight="bold" font-size="12.00">integer</text>
<text text-anchor="start" x="577.18" y="-296.5" font-family="Helvetica,sans-Serif" font-size="12.00">name </text>
<text text-anchor="start" x="616.18" y="-296.5" font-family="Helvetica,sans-Serif" font-weight="bold" font-size="12.00">text</text>
<text text-anchor="start" x="577.18" y="-279.5" font-family="Helvetica,sans-Serif" font-size="12.00">user_id </text>
<text text-anchor="start" x="624.18" y="-279.5" font-family="Helvetica,sans-Serif" font-weight="bold" font-size="12.00">int</text>
<text text-anchor="start" x="577.18" y="-262.5" font-family="Helvetica,sans-Serif" font-size="12.00">shared </text>
<text text-anchor="start" x="622.18" y="-262.5" font-family="Helvetica,sans-Serif" font-weight="bold" font-size="12.00">int</text>
<text text-anchor="start" x="577.18" y="-245.5" font-family="Helvetica,sans-Serif" font-size="12.00">created </text>
<text text-anchor="start" x="627.18" y="-245.5" font-family="Helvetica,sans-Serif" font-weight="bold" font-size="12.00">int</text>
</g>
<!-- recipes&#45;&gt;users -->
<g id="edge9" class="edge">
<title>recipes&#45;&gt;users</title>
<path fill="none" stroke="black" stroke-width="0.9" d="M639.98,-357.76C636.44,-455.24 629.38,-649.46 624.47,-784.39"/>
<polygon fill="black" stroke="black" stroke-width="0.9" points="621.66,-784.69 624.17,-792.79 627.26,-784.89 621.66,-784.69"/>
</g>
<!-- recipe_dat -->
<g id="node11" class="node">
<title>recipe_dat</title>
<path fill="none" stroke="black" d="M346.98,-0.85C346.98,-0.85 466.98,-0.85 466.98,-0.85 472.98,-0.85 478.98,-6.85 478.98,-12.85 478.98,-12.85 478.98,-126.85 478.98,-126.85 478.98,-132.85 472.98,-138.85 466.98,-138.85 466.98,-138.85 346.98,-138.85 346.98,-138.85 340.98,-138.85 334.98,-132.85 334.98,-126.85 334.98,-126.85 334.98,-12.85 334.98,-12.85 334.98,-6.85 340.98,-0.85 346.98,-0.85"/>
<text text-anchor="start" x="368.98" y="-118.45" font-family="Helvetica,sans-Serif" font-weight="bold" font-size="13.00">recipe_dat</text>
<polyline fill="none" stroke="black" points="334.98,-108.85 478.98,-108.85 "/>
<text text-anchor="start" x="341.98" y="-95.25" font-family="Helvetica,sans-Serif" font-size="12.00">id* </text>
<text text-anchor="start" x="362.98" y="-95.25" font-family="Helvetica,sans-Serif" font-weight="bold" font-size="12.00">integer</text>
<text text-anchor="start" x="341.98" y="-78.25" font-family="Helvetica,sans-Serif" font-size="12.00">recipe_id </text>
<text text-anchor="start" x="399.98" y="-78.25" font-family="Helvetica,sans-Serif" font-weight="bold" font-size="12.00">int</text>
<text text-anchor="start" x="341.98" y="-61.25" font-family="Helvetica,sans-Serif" font-size="12.00">food_id </text>
<text text-anchor="start" x="389.98" y="-61.25" font-family="Helvetica,sans-Serif" font-weight="bold" font-size="12.00">int</text>
<text text-anchor="start" x="341.98" y="-44.25" font-family="Helvetica,sans-Serif" font-size="12.00">msre_id </text>
<text text-anchor="start" x="392.98" y="-44.25" font-family="Helvetica,sans-Serif" font-weight="bold" font-size="12.00">int</text>
<text text-anchor="start" x="341.98" y="-27.25" font-family="Helvetica,sans-Serif" font-size="12.00">amount </text>
<text text-anchor="start" x="392.98" y="-27.25" font-family="Helvetica,sans-Serif" font-weight="bold" font-size="12.00">real</text>
<text text-anchor="start" x="341.98" y="-10.25" font-family="Helvetica,sans-Serif" font-size="12.00">created </text>
<text text-anchor="start" x="391.98" y="-10.25" font-family="Helvetica,sans-Serif" font-weight="bold" font-size="12.00">int</text>
</g>
<!-- recipe_dat&#45;&gt;recipes -->
<g id="edge10" class="edge">
<title>recipe_dat&#45;&gt;recipes</title>
<path fill="none" stroke="black" stroke-width="0.9" d="M478.51,-138.95C508.66,-168.09 543.62,-201.87 573.47,-230.7"/>
<polygon fill="black" stroke="black" stroke-width="0.9" points="571.67,-232.86 579.37,-236.4 575.56,-228.83 571.67,-232.86"/>
</g>
<!-- recipe_serv -->
<g id="node12" class="node">
<title>recipe_serv</title>
<path fill="none" stroke="black" d="M869.03,-10.3C869.03,-10.3 989.03,-10.3 989.03,-10.3 995.03,-10.3 1001.03,-16.3 1001.03,-22.3 1001.03,-22.3 1001.03,-119.3 1001.03,-119.3 1001.03,-125.3 995.03,-131.3 989.03,-131.3 989.03,-131.3 869.03,-131.3 869.03,-131.3 863.03,-131.3 857.03,-125.3 857.03,-119.3 857.03,-119.3 857.03,-22.3 857.03,-22.3 857.03,-16.3 863.03,-10.3 869.03,-10.3"/>
<text text-anchor="start" x="887.03" y="-110.9" font-family="Helvetica,sans-Serif" font-weight="bold" font-size="13.00">recipe_serv</text>
<polyline fill="none" stroke="black" points="857.03,-101.3 1001.03,-101.3 "/>
<text text-anchor="start" x="864.03" y="-87.2" font-family="Helvetica,sans-Serif" font-size="12.00">id* </text>
<text text-anchor="start" x="885.03" y="-87.2" font-family="Helvetica,sans-Serif" font-weight="bold" font-size="12.00">integer</text>
<text text-anchor="start" x="864.03" y="-70.2" font-family="Helvetica,sans-Serif" font-size="12.00">recipe_id </text>
<text text-anchor="start" x="922.03" y="-70.2" font-family="Helvetica,sans-Serif" font-weight="bold" font-size="12.00">int</text>
<text text-anchor="start" x="864.03" y="-53.2" font-family="Helvetica,sans-Serif" font-size="12.00">msre_desc </text>
<text text-anchor="start" x="932.03" y="-53.2" font-family="Helvetica,sans-Serif" font-weight="bold" font-size="12.00">text</text>
<text text-anchor="start" x="864.03" y="-36.2" font-family="Helvetica,sans-Serif" font-size="12.00">grams </text>
<text text-anchor="start" x="907.03" y="-36.2" font-family="Helvetica,sans-Serif" font-weight="bold" font-size="12.00">real</text>
<text text-anchor="start" x="864.03" y="-19.2" font-family="Helvetica,sans-Serif" font-size="12.00">created </text>
<text text-anchor="start" x="914.03" y="-19.2" font-family="Helvetica,sans-Serif" font-weight="bold" font-size="12.00">int</text>
</g>
<!-- recipe_serv&#45;&gt;recipes -->
<g id="edge11" class="edge">
<title>recipe_serv&#45;&gt;recipes</title>
<path fill="none" stroke="black" stroke-width="0.9" d="M857.02,-127.62C815.5,-160.37 763.27,-201.57 720.7,-235.15"/>
<polygon fill="black" stroke="black" stroke-width="0.9" points="718.77,-233.11 714.23,-240.26 722.24,-237.51 718.77,-233.11"/>
</g>
<!-- food_log -->
<g id="node13" class="node">
<title>food_log</title>
<path fill="none" stroke="black" d="M351.6,-438.04C351.6,-438.04 471.6,-438.04 471.6,-438.04 477.6,-438.04 483.6,-444.04 483.6,-450.04 483.6,-450.04 483.6,-632.04 483.6,-632.04 483.6,-638.04 477.6,-644.04 471.6,-644.04 471.6,-644.04 351.6,-644.04 351.6,-644.04 345.6,-644.04 339.6,-638.04 339.6,-632.04 339.6,-632.04 339.6,-450.04 339.6,-450.04 339.6,-444.04 345.6,-438.04 351.6,-438.04"/>
<text text-anchor="start" x="380.6" y="-623.64" font-family="Helvetica,sans-Serif" font-weight="bold" font-size="13.00">food_log</text>
<polyline fill="none" stroke="black" points="339.6,-614.04 483.6,-614.04 "/>
<text text-anchor="start" x="346.6" y="-600.44" font-family="Helvetica,sans-Serif" font-size="12.00">id* </text>
<text text-anchor="start" x="367.6" y="-600.44" font-family="Helvetica,sans-Serif" font-weight="bold" font-size="12.00">integer</text>
<text text-anchor="start" x="346.6" y="-583.44" font-family="Helvetica,sans-Serif" font-size="12.00">user_id </text>
<text text-anchor="start" x="393.6" y="-583.44" font-family="Helvetica,sans-Serif" font-weight="bold" font-size="12.00">int</text>
<text text-anchor="start" x="346.6" y="-566.44" font-family="Helvetica,sans-Serif" font-size="12.00">date </text>
<text text-anchor="start" x="377.6" y="-566.44" font-family="Helvetica,sans-Serif" font-weight="bold" font-size="12.00">date</text>
<text text-anchor="start" x="346.6" y="-549.44" font-family="Helvetica,sans-Serif" font-size="12.00">meal_name </text>
<text text-anchor="start" x="421.6" y="-549.44" font-family="Helvetica,sans-Serif" font-weight="bold" font-size="12.00">text</text>
<text text-anchor="start" x="346.6" y="-532.44" font-family="Helvetica,sans-Serif" font-size="12.00">amount </text>
<text text-anchor="start" x="397.6" y="-532.44" font-family="Helvetica,sans-Serif" font-weight="bold" font-size="12.00">real</text>
<text text-anchor="start" x="346.6" y="-515.44" font-family="Helvetica,sans-Serif" font-size="12.00">recipe_id </text>
<text text-anchor="start" x="404.6" y="-515.44" font-family="Helvetica,sans-Serif" font-weight="bold" font-size="12.00">int</text>
<text text-anchor="start" x="346.6" y="-498.44" font-family="Helvetica,sans-Serif" font-size="12.00">msre_id </text>
<text text-anchor="start" x="397.6" y="-498.44" font-family="Helvetica,sans-Serif" font-weight="bold" font-size="12.00">int</text>
<text text-anchor="start" x="346.6" y="-481.44" font-family="Helvetica,sans-Serif" font-size="12.00">food_id </text>
<text text-anchor="start" x="394.6" y="-481.44" font-family="Helvetica,sans-Serif" font-weight="bold" font-size="12.00">int</text>
<text text-anchor="start" x="346.6" y="-464.44" font-family="Helvetica,sans-Serif" font-size="12.00">created </text>
<text text-anchor="start" x="396.6" y="-464.44" font-family="Helvetica,sans-Serif" font-weight="bold" font-size="12.00">int</text>
<text text-anchor="start" x="346.6" y="-447.44" font-family="Helvetica,sans-Serif" font-size="12.00">updated </text>
<text text-anchor="start" x="400.6" y="-447.44" font-family="Helvetica,sans-Serif" font-weight="bold" font-size="12.00">int</text>
</g>
<!-- food_log&#45;&gt;users -->
<g id="edge13" class="edge">
<title>food_log&#45;&gt;users</title>
<path fill="none" stroke="black" stroke-width="0.9" d="M466.69,-644.2C490.11,-688.07 517.81,-739.95 543.13,-787.38"/>
<polygon fill="black" stroke="black" stroke-width="0.9" points="540.77,-788.9 547.01,-794.64 545.71,-786.27 540.77,-788.9"/>
</g>
<!-- food_log&#45;&gt;recipes -->
<g id="edge12" class="edge">
<title>food_log&#45;&gt;recipes</title>
<path fill="none" stroke="black" stroke-width="0.9" d="M483.61,-464.86C514.21,-432.48 549.57,-395.08 579.12,-363.82"/>
<polygon fill="black" stroke="black" stroke-width="0.9" points="581.49,-365.39 584.95,-357.65 577.42,-361.54 581.49,-365.39"/>
</g>
</g>
</svg>
