<?xml version="1.0" encoding="UTF-8" standalone="no"?>
<!DOCTYPE svg PUBLIC "-//W3C//DTD SVG 1.1//EN"
 "http://www.w3.org/Graphics/SVG/1.1/DTD/svg11.dtd">
<!-- Generated by graphviz version 2.43.0 (0)
 -->
<!-- Title: undefined Pages: 1 -->
<svg width="1088pt" height="1576pt"
 viewBox="0.00 0.00 1087.60 1575.60" xmlns="http://www.w3.org/2000/svg" xmlns:xlink="http://www.w3.org/1999/xlink">
<g id="graph0" class="graph" transform="scale(1 1) rotate(0) translate(28.8 1525.8)">
<title>undefined</title>
<polygon fill="white" stroke="transparent" points="-28.8,49.8 -28.8,-1525.8 1058.8,-1525.8 1058.8,49.8 -28.8,49.8"/>
<text text-anchor="start" x="474.5" y="12.6" font-family="Helvetica,sans-Serif" font-weight="bold" font-size="12.00">sql/nt.sqlite</text>
<!-- version -->
<g id="node1" class="node">
<title>version</title>
<path fill="none" stroke="black" d="M651.24,-355.64C651.24,-355.64 771.24,-355.64 771.24,-355.64 777.24,-355.64 783.24,-361.64 783.24,-367.64 783.24,-367.64 783.24,-447.64 783.24,-447.64 783.24,-453.64 777.24,-459.64 771.24,-459.64 771.24,-459.64 651.24,-459.64 651.24,-459.64 645.24,-459.64 639.24,-453.64 639.24,-447.64 639.24,-447.64 639.24,-367.64 639.24,-367.64 639.24,-361.64 645.24,-355.64 651.24,-355.64"/>
<text text-anchor="start" x="684.24" y="-439.24" font-family="Helvetica,sans-Serif" font-weight="bold" font-size="13.00">version</text>
<polyline fill="none" stroke="black" points="639.24,-429.64 783.24,-429.64 "/>
<text text-anchor="start" x="646.24" y="-416.04" font-family="Helvetica,sans-Serif" font-size="12.00">id* </text>
<text text-anchor="start" x="667.24" y="-416.04" font-family="Helvetica,sans-Serif" font-weight="bold" font-size="12.00">integer</text>
<text text-anchor="start" x="646.24" y="-399.04" font-family="Helvetica,sans-Serif" font-size="12.00">version </text>
<text text-anchor="start" x="694.24" y="-399.04" font-family="Helvetica,sans-Serif" font-weight="bold" font-size="12.00">text</text>
<text text-anchor="start" x="646.24" y="-382.04" font-family="Helvetica,sans-Serif" font-size="12.00">created </text>
<text text-anchor="start" x="696.24" y="-382.04" font-family="Helvetica,sans-Serif" font-weight="bold" font-size="12.00">date</text>
<text text-anchor="start" x="646.24" y="-365.04" font-family="Helvetica,sans-Serif" font-size="12.00">notes </text>
<text text-anchor="start" x="683.24" y="-365.04" font-family="Helvetica,sans-Serif" font-weight="bold" font-size="12.00">text</text>
</g>
<!-- bmr_eqs -->
<g id="node2" class="node">
<title>bmr_eqs</title>
<path fill="none" stroke="black" d="M11.55,-748.03C11.55,-748.03 131.55,-748.03 131.55,-748.03 137.55,-748.03 143.55,-754.03 143.55,-760.03 143.55,-760.03 143.55,-806.03 143.55,-806.03 143.55,-812.03 137.55,-818.03 131.55,-818.03 131.55,-818.03 11.55,-818.03 11.55,-818.03 5.55,-818.03 -0.45,-812.03 -0.45,-806.03 -0.45,-806.03 -0.45,-760.03 -0.45,-760.03 -0.45,-754.03 5.55,-748.03 11.55,-748.03"/>
<text text-anchor="start" x="40.55" y="-797.63" font-family="Helvetica,sans-Serif" font-weight="bold" font-size="13.00">bmr_eqs</text>
<polyline fill="none" stroke="black" points="-0.45,-788.03 143.55,-788.03 "/>
<text text-anchor="start" x="6.55" y="-774.43" font-family="Helvetica,sans-Serif" font-size="12.00">id* </text>
<text text-anchor="start" x="27.55" y="-774.43" font-family="Helvetica,sans-Serif" font-weight="bold" font-size="12.00">integer</text>
<text text-anchor="start" x="6.55" y="-757.43" font-family="Helvetica,sans-Serif" font-size="12.00">name </text>
<text text-anchor="start" x="45.55" y="-757.43" font-family="Helvetica,sans-Serif" font-weight="bold" font-size="12.00">text</text>
</g>
<!-- bf_eqs -->
<g id="node3" class="node">
<title>bf_eqs</title>
<path fill="none" stroke="black" d="M688.81,-830.99C688.81,-830.99 808.81,-830.99 808.81,-830.99 814.81,-830.99 820.81,-836.99 820.81,-842.99 820.81,-842.99 820.81,-888.99 820.81,-888.99 820.81,-894.99 814.81,-900.99 808.81,-900.99 808.81,-900.99 688.81,-900.99 688.81,-900.99 682.81,-900.99 676.81,-894.99 676.81,-888.99 676.81,-888.99 676.81,-842.99 676.81,-842.99 676.81,-836.99 682.81,-830.99 688.81,-830.99"/>
<text text-anchor="start" x="724.81" y="-880.59" font-family="Helvetica,sans-Serif" font-weight="bold" font-size="13.00">bf_eqs</text>
<polyline fill="none" stroke="black" points="676.81,-870.99 820.81,-870.99 "/>
<text text-anchor="start" x="683.81" y="-857.39" font-family="Helvetica,sans-Serif" font-size="12.00">id* </text>
<text text-anchor="start" x="704.81" y="-857.39" font-family="Helvetica,sans-Serif" font-weight="bold" font-size="12.00">integer</text>
<text text-anchor="start" x="683.81" y="-840.39" font-family="Helvetica,sans-Serif" font-size="12.00">name </text>
<text text-anchor="start" x="722.81" y="-840.39" font-family="Helvetica,sans-Serif" font-weight="bold" font-size="12.00">text</text>
</g>
<!-- profiles -->
<g id="node4" class="node">
<title>profiles</title>
<path fill="none" stroke="black" d="M413.74,-659.67C413.74,-659.67 533.74,-659.67 533.74,-659.67 539.74,-659.67 545.74,-665.67 545.74,-671.67 545.74,-671.67 545.74,-870.67 545.74,-870.67 545.74,-876.67 539.74,-882.67 533.74,-882.67 533.74,-882.67 413.74,-882.67 413.74,-882.67 407.74,-882.67 401.74,-876.67 401.74,-870.67 401.74,-870.67 401.74,-671.67 401.74,-671.67 401.74,-665.67 407.74,-659.67 413.74,-659.67"/>
<text text-anchor="start" x="445.74" y="-862.27" font-family="Helvetica,sans-Serif" font-weight="bold" font-size="13.00">profiles</text>
<polyline fill="none" stroke="black" points="401.74,-852.67 545.74,-852.67 "/>
<text text-anchor="start" x="408.74" y="-838.57" font-family="Helvetica,sans-Serif" font-size="12.00">id* </text>
<text text-anchor="start" x="429.74" y="-838.57" font-family="Helvetica,sans-Serif" font-weight="bold" font-size="12.00">integer</text>
<text text-anchor="start" x="408.74" y="-821.57" font-family="Helvetica,sans-Serif" font-size="12.00">name </text>
<text text-anchor="start" x="447.74" y="-821.57" font-family="Helvetica,sans-Serif" font-weight="bold" font-size="12.00">text</text>
<text text-anchor="start" x="408.74" y="-804.57" font-family="Helvetica,sans-Serif" font-size="12.00">eula </text>
<text text-anchor="start" x="438.74" y="-804.57" font-family="Helvetica,sans-Serif" font-weight="bold" font-size="12.00">int</text>
<text text-anchor="start" x="408.74" y="-787.57" font-family="Helvetica,sans-Serif" font-size="12.00">gender </text>
<text text-anchor="start" x="455.74" y="-787.57" font-family="Helvetica,sans-Serif" font-weight="bold" font-size="12.00">text</text>
<text text-anchor="start" x="408.74" y="-770.57" font-family="Helvetica,sans-Serif" font-size="12.00">dob </text>
<text text-anchor="start" x="435.74" y="-770.57" font-family="Helvetica,sans-Serif" font-weight="bold" font-size="12.00">date</text>
<text text-anchor="start" x="408.74" y="-753.57" font-family="Helvetica,sans-Serif" font-size="12.00">act_lvl </text>
<text text-anchor="start" x="450.74" y="-753.57" font-family="Helvetica,sans-Serif" font-weight="bold" font-size="12.00">int</text>
<text text-anchor="start" x="408.74" y="-736.57" font-family="Helvetica,sans-Serif" font-size="12.00">goal_wt </text>
<text text-anchor="start" x="458.74" y="-736.57" font-family="Helvetica,sans-Serif" font-weight="bold" font-size="12.00">real</text>
<text text-anchor="start" x="408.74" y="-719.57" font-family="Helvetica,sans-Serif" font-size="12.00">goal_bf </text>
<text text-anchor="start" x="456.74" y="-719.57" font-family="Helvetica,sans-Serif" font-weight="bold" font-size="12.00">real</text>
<text text-anchor="start" x="408.74" y="-702.57" font-family="Helvetica,sans-Serif" font-size="12.00">bmr_eq_id </text>
<text text-anchor="start" x="475.74" y="-702.57" font-family="Helvetica,sans-Serif" font-weight="bold" font-size="12.00">int</text>
<text text-anchor="start" x="408.74" y="-685.57" font-family="Helvetica,sans-Serif" font-size="12.00">bf_eq_id </text>
<text text-anchor="start" x="462.74" y="-685.57" font-family="Helvetica,sans-Serif" font-weight="bold" font-size="12.00">int</text>
<text text-anchor="start" x="408.74" y="-668.57" font-family="Helvetica,sans-Serif" font-size="12.00">created </text>
<text text-anchor="start" x="458.74" y="-668.57" font-family="Helvetica,sans-Serif" font-weight="bold" font-size="12.00">int</text>
</g>
<!-- profiles&#45;&gt;bmr_eqs -->
<g id="edge2" class="edge">
<title>profiles&#45;&gt;bmr_eqs</title>
<path fill="none" stroke="black" stroke-width="0.9" d="M401.37,-773.3C331.14,-775.37 224.78,-778.51 151.95,-780.66"/>
<polygon fill="black" stroke="black" stroke-width="0.9" points="151.59,-777.86 143.68,-780.9 151.76,-783.46 151.59,-777.86"/>
</g>
<!-- profiles&#45;&gt;bf_eqs -->
<g id="edge1" class="edge">
<title>profiles&#45;&gt;bf_eqs</title>
<path fill="none" stroke="black" stroke-width="0.9" d="M546.01,-796.08C583.76,-809.1 630.06,-825.06 668.88,-838.44"/>
<polygon fill="black" stroke="black" stroke-width="0.9" points="668.07,-841.12 676.54,-841.08 669.89,-835.83 668.07,-841.12"/>
</g>
<!-- biometrics -->
<g id="node5" class="node">
<title>biometrics</title>
<path fill="none" stroke="black" d="M133.64,-1392.61C133.64,-1392.61 253.64,-1392.61 253.64,-1392.61 259.64,-1392.61 265.64,-1398.61 265.64,-1404.61 265.64,-1404.61 265.64,-1484.61 265.64,-1484.61 265.64,-1490.61 259.64,-1496.61 253.64,-1496.61 253.64,-1496.61 133.64,-1496.61 133.64,-1496.61 127.64,-1496.61 121.64,-1490.61 121.64,-1484.61 121.64,-1484.61 121.64,-1404.61 121.64,-1404.61 121.64,-1398.61 127.64,-1392.61 133.64,-1392.61"/>
<text text-anchor="start" x="154.64" y="-1476.21" font-family="Helvetica,sans-Serif" font-weight="bold" font-size="13.00">biometrics</text>
<polyline fill="none" stroke="black" points="121.64,-1466.61 265.64,-1466.61 "/>
<text text-anchor="start" x="128.64" y="-1453.01" font-family="Helvetica,sans-Serif" font-size="12.00">id* </text>
<text text-anchor="start" x="149.64" y="-1453.01" font-family="Helvetica,sans-Serif" font-weight="bold" font-size="12.00">integer</text>
<text text-anchor="start" x="128.64" y="-1436.01" font-family="Helvetica,sans-Serif" font-size="12.00">name </text>
<text text-anchor="start" x="167.64" y="-1436.01" font-family="Helvetica,sans-Serif" font-weight="bold" font-size="12.00">text</text>
<text text-anchor="start" x="128.64" y="-1419.01" font-family="Helvetica,sans-Serif" font-size="12.00">unit </text>
<text text-anchor="start" x="155.64" y="-1419.01" font-family="Helvetica,sans-Serif" font-weight="bold" font-size="12.00">text</text>
<text text-anchor="start" x="128.64" y="-1402.01" font-family="Helvetica,sans-Serif" font-size="12.00">created </text>
<text text-anchor="start" x="178.64" y="-1402.01" font-family="Helvetica,sans-Serif" font-weight="bold" font-size="12.00">int</text>
</g>
<!-- biometric_log -->
<g id="node6" class="node">
<title>biometric_log</title>
<path fill="none" stroke="black" d="M500.43,-1047.49C500.43,-1047.49 620.43,-1047.49 620.43,-1047.49 626.43,-1047.49 632.43,-1053.49 632.43,-1059.49 632.43,-1059.49 632.43,-1173.49 632.43,-1173.49 632.43,-1179.49 626.43,-1185.49 620.43,-1185.49 620.43,-1185.49 500.43,-1185.49 500.43,-1185.49 494.43,-1185.49 488.43,-1179.49 488.43,-1173.49 488.43,-1173.49 488.43,-1059.49 488.43,-1059.49 488.43,-1053.49 494.43,-1047.49 500.43,-1047.49"/>
<text text-anchor="start" x="510.43" y="-1165.09" font-family="Helvetica,sans-Serif" font-weight="bold" font-size="13.00">biometric_log</text>
<polyline fill="none" stroke="black" points="488.43,-1155.49 632.43,-1155.49 "/>
<text text-anchor="start" x="495.43" y="-1141.89" font-family="Helvetica,sans-Serif" font-size="12.00">id* </text>
<text text-anchor="start" x="516.43" y="-1141.89" font-family="Helvetica,sans-Serif" font-weight="bold" font-size="12.00">integer</text>
<text text-anchor="start" x="495.43" y="-1124.89" font-family="Helvetica,sans-Serif" font-size="12.00">profile_id </text>
<text text-anchor="start" x="553.43" y="-1124.89" font-family="Helvetica,sans-Serif" font-weight="bold" font-size="12.00">int</text>
<text text-anchor="start" x="495.43" y="-1107.89" font-family="Helvetica,sans-Serif" font-size="12.00">date </text>
<text text-anchor="start" x="526.43" y="-1107.89" font-family="Helvetica,sans-Serif" font-weight="bold" font-size="12.00">int</text>
<text text-anchor="start" x="495.43" y="-1090.89" font-family="Helvetica,sans-Serif" font-size="12.00">tags </text>
<text text-anchor="start" x="525.43" y="-1090.89" font-family="Helvetica,sans-Serif" font-weight="bold" font-size="12.00">text</text>
<text text-anchor="start" x="495.43" y="-1073.89" font-family="Helvetica,sans-Serif" font-size="12.00">notes </text>
<text text-anchor="start" x="532.43" y="-1073.89" font-family="Helvetica,sans-Serif" font-weight="bold" font-size="12.00">text</text>
<text text-anchor="start" x="495.43" y="-1056.89" font-family="Helvetica,sans-Serif" font-size="12.00">created </text>
<text text-anchor="start" x="545.43" y="-1056.89" font-family="Helvetica,sans-Serif" font-weight="bold" font-size="12.00">int</text>
</g>
<!-- biometric_log&#45;&gt;profiles -->
<g id="edge3" class="edge">
<title>biometric_log&#45;&gt;profiles</title>
<path fill="none" stroke="black" stroke-width="0.9" d="M543.09,-1047.44C531.86,-1002.69 516.93,-943.22 503.8,-890.92"/>
<polygon fill="black" stroke="black" stroke-width="0.9" points="506.45,-890 501.79,-882.92 501.02,-891.36 506.45,-890"/>
</g>
<!-- bio_log_entry -->
<g id="node7" class="node">
<title>bio_log_entry</title>
<path fill="none" stroke="black" d="M452.04,-1311.14C452.04,-1311.14 572.04,-1311.14 572.04,-1311.14 578.04,-1311.14 584.04,-1317.14 584.04,-1323.14 584.04,-1323.14 584.04,-1386.14 584.04,-1386.14 584.04,-1392.14 578.04,-1398.14 572.04,-1398.14 572.04,-1398.14 452.04,-1398.14 452.04,-1398.14 446.04,-1398.14 440.04,-1392.14 440.04,-1386.14 440.04,-1386.14 440.04,-1323.14 440.04,-1323.14 440.04,-1317.14 446.04,-1311.14 452.04,-1311.14"/>
<text text-anchor="start" x="463.04" y="-1377.74" font-family="Helvetica,sans-Serif" font-weight="bold" font-size="13.00">bio_log_entry</text>
<polyline fill="none" stroke="black" points="440.04,-1368.14 584.04,-1368.14 "/>
<text text-anchor="start" x="447.04" y="-1354.04" font-family="Helvetica,sans-Serif" font-size="12.00">log_id* </text>
<text text-anchor="start" x="492.04" y="-1354.04" font-family="Helvetica,sans-Serif" font-weight="bold" font-size="12.00">int</text>
<text text-anchor="start" x="447.04" y="-1337.04" font-family="Helvetica,sans-Serif" font-size="12.00">biometric_id* </text>
<text text-anchor="start" x="531.04" y="-1337.04" font-family="Helvetica,sans-Serif" font-weight="bold" font-size="12.00">int</text>
<text text-anchor="start" x="447.04" y="-1320.04" font-family="Helvetica,sans-Serif" font-size="12.00">value </text>
<text text-anchor="start" x="484.04" y="-1320.04" font-family="Helvetica,sans-Serif" font-weight="bold" font-size="12.00">real</text>
</g>
<!-- bio_log_entry&#45;&gt;biometrics -->
<g id="edge4" class="edge">
<title>bio_log_entry&#45;&gt;biometrics</title>
<path fill="none" stroke="black" stroke-width="0.9" d="M439.79,-1375.06C390.31,-1389.04 324.67,-1407.59 273.62,-1422.01"/>
<polygon fill="black" stroke="black" stroke-width="0.9" points="272.82,-1419.33 265.88,-1424.2 274.34,-1424.72 272.82,-1419.33"/>
</g>
<!-- bio_log_entry&#45;&gt;biometric_log -->
<g id="edge5" class="edge">
<title>bio_log_entry&#45;&gt;biometric_log</title>
<path fill="none" stroke="black" stroke-width="0.9" d="M520.92,-1310.96C527.56,-1278.24 536.83,-1232.62 544.72,-1193.78"/>
<polygon fill="black" stroke="black" stroke-width="0.9" points="547.53,-1194.01 546.38,-1185.61 542.05,-1192.89 547.53,-1194.01"/>
</g>
<!-- recipes -->
<g id="node8" class="node">
<title>recipes</title>
<path fill="none" stroke="black" d="M223.92,-122.47C223.92,-122.47 343.92,-122.47 343.92,-122.47 349.92,-122.47 355.92,-128.47 355.92,-134.47 355.92,-134.47 355.92,-214.47 355.92,-214.47 355.92,-220.47 349.92,-226.47 343.92,-226.47 343.92,-226.47 223.92,-226.47 223.92,-226.47 217.92,-226.47 211.92,-220.47 211.92,-214.47 211.92,-214.47 211.92,-134.47 211.92,-134.47 211.92,-128.47 217.92,-122.47 223.92,-122.47"/>
<text text-anchor="start" x="256.92" y="-206.07" font-family="Helvetica,sans-Serif" font-weight="bold" font-size="13.00">recipes</text>
<polyline fill="none" stroke="black" points="211.92,-196.47 355.92,-196.47 "/>
<text text-anchor="start" x="218.92" y="-182.87" font-family="Helvetica,sans-Serif" font-size="12.00">id* </text>
<text text-anchor="start" x="239.92" y="-182.87" font-family="Helvetica,sans-Serif" font-weight="bold" font-size="12.00">integer</text>
<text text-anchor="start" x="218.92" y="-165.87" font-family="Helvetica,sans-Serif" font-size="12.00">tagname </text>
<text text-anchor="start" x="276.92" y="-165.87" font-family="Helvetica,sans-Serif" font-weight="bold" font-size="12.00">text</text>
<text text-anchor="start" x="218.92" y="-148.87" font-family="Helvetica,sans-Serif" font-size="12.00">name </text>
<text text-anchor="start" x="257.92" y="-148.87" font-family="Helvetica,sans-Serif" font-weight="bold" font-size="12.00">text</text>
<text text-anchor="start" x="218.92" y="-131.87" font-family="Helvetica,sans-Serif" font-size="12.00">created </text>
<text text-anchor="start" x="268.92" y="-131.87" font-family="Helvetica,sans-Serif" font-weight="bold" font-size="12.00">int</text>
</g>
<!-- recipe_dat -->
<g id="node9" class="node">
<title>recipe_dat</title>
<path fill="none" stroke="black" d="M525.58,-0.82C525.58,-0.82 645.58,-0.82 645.58,-0.82 651.58,-0.82 657.58,-6.82 657.58,-12.82 657.58,-12.82 657.58,-109.82 657.58,-109.82 657.58,-115.82 651.58,-121.82 645.58,-121.82 645.58,-121.82 525.58,-121.82 525.58,-121.82 519.58,-121.82 513.58,-115.82 513.58,-109.82 513.58,-109.82 513.58,-12.82 513.58,-12.82 513.58,-6.82 519.58,-0.82 525.58,-0.82"/>
<text text-anchor="start" x="547.58" y="-101.42" font-family="Helvetica,sans-Serif" font-weight="bold" font-size="13.00">recipe_dat</text>
<polyline fill="none" stroke="black" points="513.58,-91.82 657.58,-91.82 "/>
<text text-anchor="start" x="520.58" y="-77.72" font-family="Helvetica,sans-Serif" font-size="12.00">recipe_id* </text>
<text text-anchor="start" x="584.58" y="-77.72" font-family="Helvetica,sans-Serif" font-weight="bold" font-size="12.00">int</text>
<text text-anchor="start" x="520.58" y="-60.72" font-family="Helvetica,sans-Serif" font-size="12.00">food_id* </text>
<text text-anchor="start" x="574.58" y="-60.72" font-family="Helvetica,sans-Serif" font-weight="bold" font-size="12.00">int</text>
<text text-anchor="start" x="520.58" y="-43.72" font-family="Helvetica,sans-Serif" font-size="12.00">grams </text>
<text text-anchor="start" x="563.58" y="-43.72" font-family="Helvetica,sans-Serif" font-weight="bold" font-size="12.00">real</text>
<text text-anchor="start" x="520.58" y="-26.72" font-family="Helvetica,sans-Serif" font-size="12.00">notes </text>
<text text-anchor="start" x="557.58" y="-26.72" font-family="Helvetica,sans-Serif" font-weight="bold" font-size="12.00">text</text>
<text text-anchor="start" x="520.58" y="-9.72" font-family="Helvetica,sans-Serif" font-size="12.00">created </text>
<text text-anchor="start" x="570.58" y="-9.72" font-family="Helvetica,sans-Serif" font-weight="bold" font-size="12.00">int</text>
</g>
<!-- recipe_dat&#45;&gt;recipes -->
<g id="edge6" class="edge">
<title>recipe_dat&#45;&gt;recipes</title>
<path fill="none" stroke="black" stroke-width="0.9" d="M513.32,-88.42C468.25,-105.33 410.18,-127.11 363.75,-144.52"/>
<polygon fill="black" stroke="black" stroke-width="0.9" points="362.61,-141.96 356.11,-147.39 364.58,-147.2 362.61,-141.96"/>
</g>
<!-- custom_foods -->
<g id="node10" class="node">
<title>custom_foods</title>
<path fill="none" stroke="black" d="M722.24,-958.53C722.24,-958.53 842.24,-958.53 842.24,-958.53 848.24,-958.53 854.24,-964.53 854.24,-970.53 854.24,-970.53 854.24,-1050.53 854.24,-1050.53 854.24,-1056.53 848.24,-1062.53 842.24,-1062.53 842.24,-1062.53 722.24,-1062.53 722.24,-1062.53 716.24,-1062.53 710.24,-1056.53 710.24,-1050.53 710.24,-1050.53 710.24,-970.53 710.24,-970.53 710.24,-964.53 716.24,-958.53 722.24,-958.53"/>
<text text-anchor="start" x="732.24" y="-1042.13" font-family="Helvetica,sans-Serif" font-weight="bold" font-size="13.00">custom_foods</text>
<polyline fill="none" stroke="black" points="710.24,-1032.53 854.24,-1032.53 "/>
<text text-anchor="start" x="717.24" y="-1018.93" font-family="Helvetica,sans-Serif" font-size="12.00">id* </text>
<text text-anchor="start" x="738.24" y="-1018.93" font-family="Helvetica,sans-Serif" font-weight="bold" font-size="12.00">integer</text>
<text text-anchor="start" x="717.24" y="-1001.93" font-family="Helvetica,sans-Serif" font-size="12.00">tagname </text>
<text text-anchor="start" x="775.24" y="-1001.93" font-family="Helvetica,sans-Serif" font-weight="bold" font-size="12.00">text</text>
<text text-anchor="start" x="717.24" y="-984.93" font-family="Helvetica,sans-Serif" font-size="12.00">name </text>
<text text-anchor="start" x="756.24" y="-984.93" font-family="Helvetica,sans-Serif" font-weight="bold" font-size="12.00">text</text>
<text text-anchor="start" x="717.24" y="-967.93" font-family="Helvetica,sans-Serif" font-size="12.00">created </text>
<text text-anchor="start" x="767.24" y="-967.93" font-family="Helvetica,sans-Serif" font-weight="bold" font-size="12.00">int</text>
</g>
<!-- cf_dat -->
<g id="node11" class="node">
<title>cf_dat</title>
<path fill="none" stroke="black" d="M898.26,-923.73C898.26,-923.73 1018.26,-923.73 1018.26,-923.73 1024.26,-923.73 1030.26,-929.73 1030.26,-935.73 1030.26,-935.73 1030.26,-1032.73 1030.26,-1032.73 1030.26,-1038.73 1024.26,-1044.73 1018.26,-1044.73 1018.26,-1044.73 898.26,-1044.73 898.26,-1044.73 892.26,-1044.73 886.26,-1038.73 886.26,-1032.73 886.26,-1032.73 886.26,-935.73 886.26,-935.73 886.26,-929.73 892.26,-923.73 898.26,-923.73"/>
<text text-anchor="start" x="936.26" y="-1024.33" font-family="Helvetica,sans-Serif" font-weight="bold" font-size="13.00">cf_dat</text>
<polyline fill="none" stroke="black" points="886.26,-1014.73 1030.26,-1014.73 "/>
<text text-anchor="start" x="893.26" y="-1000.63" font-family="Helvetica,sans-Serif" font-size="12.00">cf_id* </text>
<text text-anchor="start" x="931.26" y="-1000.63" font-family="Helvetica,sans-Serif" font-weight="bold" font-size="12.00">int</text>
<text text-anchor="start" x="893.26" y="-983.63" font-family="Helvetica,sans-Serif" font-size="12.00">nutr_id* </text>
<text text-anchor="start" x="945.26" y="-983.63" font-family="Helvetica,sans-Serif" font-weight="bold" font-size="12.00">int</text>
<text text-anchor="start" x="893.26" y="-966.63" font-family="Helvetica,sans-Serif" font-size="12.00">nutr_val </text>
<text text-anchor="start" x="945.26" y="-966.63" font-family="Helvetica,sans-Serif" font-weight="bold" font-size="12.00">real</text>
<text text-anchor="start" x="893.26" y="-949.63" font-family="Helvetica,sans-Serif" font-size="12.00">notes </text>
<text text-anchor="start" x="930.26" y="-949.63" font-family="Helvetica,sans-Serif" font-weight="bold" font-size="12.00">text</text>
<text text-anchor="start" x="893.26" y="-932.63" font-family="Helvetica,sans-Serif" font-size="12.00">created </text>
<text text-anchor="start" x="943.26" y="-932.63" font-family="Helvetica,sans-Serif" font-weight="bold" font-size="12.00">int</text>
</g>
<!-- cf_dat&#45;&gt;custom_foods -->
<g id="edge7" class="edge">
<title>cf_dat&#45;&gt;custom_foods</title>
<path fill="none" stroke="black" stroke-width="0.9" d="M886.16,-995C878.49,-996.15 870.65,-997.32 862.89,-998.48"/>
<polygon fill="black" stroke="black" stroke-width="0.9" points="862.02,-995.78 854.52,-999.73 862.84,-1001.32 862.02,-995.78"/>
</g>
<!-- meal_name -->
<g id="node12" class="node">
<title>meal_name</title>
<path fill="none" stroke="black" d="M16.38,-378.66C16.38,-378.66 136.38,-378.66 136.38,-378.66 142.38,-378.66 148.38,-384.66 148.38,-390.66 148.38,-390.66 148.38,-436.66 148.38,-436.66 148.38,-442.66 142.38,-448.66 136.38,-448.66 136.38,-448.66 16.38,-448.66 16.38,-448.66 10.38,-448.66 4.38,-442.66 4.38,-436.66 4.38,-436.66 4.38,-390.66 4.38,-390.66 4.38,-384.66 10.38,-378.66 16.38,-378.66"/>
<text text-anchor="start" x="34.38" y="-428.26" font-family="Helvetica,sans-Serif" font-weight="bold" font-size="13.00">meal_name</text>
<polyline fill="none" stroke="black" points="4.38,-418.66 148.38,-418.66 "/>
<text text-anchor="start" x="11.38" y="-405.06" font-family="Helvetica,sans-Serif" font-size="12.00">id* </text>
<text text-anchor="start" x="32.38" y="-405.06" font-family="Helvetica,sans-Serif" font-weight="bold" font-size="12.00">integer</text>
<text text-anchor="start" x="11.38" y="-388.06" font-family="Helvetica,sans-Serif" font-size="12.00">name </text>
<text text-anchor="start" x="50.38" y="-388.06" font-family="Helvetica,sans-Serif" font-weight="bold" font-size="12.00">text</text>
</g>
<!-- food_log -->
<g id="node13" class="node">
<title>food_log</title>
<path fill="none" stroke="black" d="M371.22,-379.89C371.22,-379.89 491.22,-379.89 491.22,-379.89 497.22,-379.89 503.22,-385.89 503.22,-391.89 503.22,-391.89 503.22,-539.89 503.22,-539.89 503.22,-545.89 497.22,-551.89 491.22,-551.89 491.22,-551.89 371.22,-551.89 371.22,-551.89 365.22,-551.89 359.22,-545.89 359.22,-539.89 359.22,-539.89 359.22,-391.89 359.22,-391.89 359.22,-385.89 365.22,-379.89 371.22,-379.89"/>
<text text-anchor="start" x="400.22" y="-531.49" font-family="Helvetica,sans-Serif" font-weight="bold" font-size="13.00">food_log</text>
<polyline fill="none" stroke="black" points="359.22,-521.89 503.22,-521.89 "/>
<text text-anchor="start" x="366.22" y="-508.29" font-family="Helvetica,sans-Serif" font-size="12.00">id* </text>
<text text-anchor="start" x="387.22" y="-508.29" font-family="Helvetica,sans-Serif" font-weight="bold" font-size="12.00">integer</text>
<text text-anchor="start" x="366.22" y="-491.29" font-family="Helvetica,sans-Serif" font-size="12.00">profile_id </text>
<text text-anchor="start" x="424.22" y="-491.29" font-family="Helvetica,sans-Serif" font-weight="bold" font-size="12.00">int</text>
<text text-anchor="start" x="366.22" y="-474.29" font-family="Helvetica,sans-Serif" font-size="12.00">date </text>
<text text-anchor="start" x="397.22" y="-474.29" font-family="Helvetica,sans-Serif" font-weight="bold" font-size="12.00">int</text>
<text text-anchor="start" x="366.22" y="-457.29" font-family="Helvetica,sans-Serif" font-size="12.00">meal_id </text>
<text text-anchor="start" x="417.22" y="-457.29" font-family="Helvetica,sans-Serif" font-weight="bold" font-size="12.00">int</text>
<text text-anchor="start" x="366.22" y="-440.29" font-family="Helvetica,sans-Serif" font-size="12.00">food_id </text>
<text text-anchor="start" x="414.22" y="-440.29" font-family="Helvetica,sans-Serif" font-weight="bold" font-size="12.00">int</text>
<text text-anchor="start" x="366.22" y="-423.29" font-family="Helvetica,sans-Serif" font-size="12.00">msre_id </text>
<text text-anchor="start" x="417.22" y="-423.29" font-family="Helvetica,sans-Serif" font-weight="bold" font-size="12.00">int</text>
<text text-anchor="start" x="366.22" y="-406.29" font-family="Helvetica,sans-Serif" font-size="12.00">amt </text>
<text text-anchor="start" x="394.22" y="-406.29" font-family="Helvetica,sans-Serif" font-weight="bold" font-size="12.00">real</text>
<text text-anchor="start" x="366.22" y="-389.29" font-family="Helvetica,sans-Serif" font-size="12.00">created </text>
<text text-anchor="start" x="416.22" y="-389.29" font-family="Helvetica,sans-Serif" font-weight="bold" font-size="12.00">int</text>
</g>
<!-- food_log&#45;&gt;profiles -->
<g id="edge9" class="edge">
<title>food_log&#45;&gt;profiles</title>
<path fill="none" stroke="black" stroke-width="0.9" d="M443.24,-552.15C447.53,-583 452.45,-618.34 457.07,-651.51"/>
<polygon fill="black" stroke="black" stroke-width="0.9" points="454.3,-651.9 458.18,-659.44 459.85,-651.13 454.3,-651.9"/>
</g>
<!-- food_log&#45;&gt;meal_name -->
<g id="edge8" class="edge">
<title>food_log&#45;&gt;meal_name</title>
<path fill="none" stroke="black" stroke-width="0.9" d="M358.99,-412.65C348.86,-407.33 338.25,-402.74 327.59,-399.62 271.98,-383.36 206.54,-387.72 156.4,-395.7"/>
<polygon fill="black" stroke="black" stroke-width="0.9" points="155.93,-392.94 148.49,-397.01 156.84,-398.46 155.93,-392.94"/>
</g>
<!-- recipe_log -->
<g id="node14" class="node">
<title>recipe_log</title>
<path fill="none" stroke="black" d="M192.39,-402.82C192.39,-402.82 312.39,-402.82 312.39,-402.82 318.39,-402.82 324.39,-408.82 324.39,-414.82 324.39,-414.82 324.39,-545.82 324.39,-545.82 324.39,-551.82 318.39,-557.82 312.39,-557.82 312.39,-557.82 192.39,-557.82 192.39,-557.82 186.39,-557.82 180.39,-551.82 180.39,-545.82 180.39,-545.82 180.39,-414.82 180.39,-414.82 180.39,-408.82 186.39,-402.82 192.39,-402.82"/>
<text text-anchor="start" x="214.39" y="-537.42" font-family="Helvetica,sans-Serif" font-weight="bold" font-size="13.00">recipe_log</text>
<polyline fill="none" stroke="black" points="180.39,-527.82 324.39,-527.82 "/>
<text text-anchor="start" x="187.39" y="-513.72" font-family="Helvetica,sans-Serif" font-size="12.00">id* </text>
<text text-anchor="start" x="208.39" y="-513.72" font-family="Helvetica,sans-Serif" font-weight="bold" font-size="12.00">integer</text>
<text text-anchor="start" x="187.39" y="-496.72" font-family="Helvetica,sans-Serif" font-size="12.00">profile_id </text>
<text text-anchor="start" x="245.39" y="-496.72" font-family="Helvetica,sans-Serif" font-weight="bold" font-size="12.00">int</text>
<text text-anchor="start" x="187.39" y="-479.72" font-family="Helvetica,sans-Serif" font-size="12.00">date </text>
<text text-anchor="start" x="218.39" y="-479.72" font-family="Helvetica,sans-Serif" font-weight="bold" font-size="12.00">int</text>
<text text-anchor="start" x="187.39" y="-462.72" font-family="Helvetica,sans-Serif" font-size="12.00">meal_id </text>
<text text-anchor="start" x="238.39" y="-462.72" font-family="Helvetica,sans-Serif" font-weight="bold" font-size="12.00">int</text>
<text text-anchor="start" x="187.39" y="-445.72" font-family="Helvetica,sans-Serif" font-size="12.00">recipe_id </text>
<text text-anchor="start" x="245.39" y="-445.72" font-family="Helvetica,sans-Serif" font-weight="bold" font-size="12.00">int</text>
<text text-anchor="start" x="187.39" y="-428.72" font-family="Helvetica,sans-Serif" font-size="12.00">grams </text>
<text text-anchor="start" x="230.39" y="-428.72" font-family="Helvetica,sans-Serif" font-weight="bold" font-size="12.00">real</text>
<text text-anchor="start" x="187.39" y="-411.72" font-family="Helvetica,sans-Serif" font-size="12.00">created </text>
<text text-anchor="start" x="237.39" y="-411.72" font-family="Helvetica,sans-Serif" font-weight="bold" font-size="12.00">int</text>
</g>
<!-- recipe_log&#45;&gt;profiles -->
<g id="edge12" class="edge">
<title>recipe_log&#45;&gt;profiles</title>
<path fill="none" stroke="black" stroke-width="0.9" d="M311.42,-557.88C337.52,-592.18 368.56,-632.97 396.48,-669.65"/>
<polygon fill="black" stroke="black" stroke-width="0.9" points="394.58,-671.78 401.65,-676.45 399.03,-668.38 394.58,-671.78"/>
</g>
<!-- recipe_log&#45;&gt;recipes -->
<g id="edge10" class="edge">
<title>recipe_log&#45;&gt;recipes</title>
<path fill="none" stroke="black" stroke-width="0.9" d="M260.39,-402.75C265.77,-350.55 272.76,-282.74 277.72,-234.62"/>
<polygon fill="black" stroke="black" stroke-width="0.9" points="280.52,-234.72 278.56,-226.48 274.95,-234.15 280.52,-234.72"/>
</g>
<!-- recipe_log&#45;&gt;meal_name -->
<g id="edge11" class="edge">
<title>recipe_log&#45;&gt;meal_name</title>
<path fill="none" stroke="black" stroke-width="0.9" d="M180.29,-453.02C172.46,-450.05 164.45,-447.02 156.53,-444.02"/>
<polygon fill="black" stroke="black" stroke-width="0.9" points="157.12,-441.25 148.65,-441.03 155.14,-446.49 157.12,-441.25"/>
</g>
<!-- rda -->
<g id="node15" class="node">
<title>rda</title>
<path fill="none" stroke="black" d="M195.19,-1026.08C195.19,-1026.08 315.19,-1026.08 315.19,-1026.08 321.19,-1026.08 327.19,-1032.08 327.19,-1038.08 327.19,-1038.08 327.19,-1101.08 327.19,-1101.08 327.19,-1107.08 321.19,-1113.08 315.19,-1113.08 315.19,-1113.08 195.19,-1113.08 195.19,-1113.08 189.19,-1113.08 183.19,-1107.08 183.19,-1101.08 183.19,-1101.08 183.19,-1038.08 183.19,-1038.08 183.19,-1032.08 189.19,-1026.08 195.19,-1026.08"/>
<text text-anchor="start" x="243.19" y="-1092.68" font-family="Helvetica,sans-Serif" font-weight="bold" font-size="13.00">rda</text>
<polyline fill="none" stroke="black" points="183.19,-1083.08 327.19,-1083.08 "/>
<text text-anchor="start" x="190.19" y="-1068.98" font-family="Helvetica,sans-Serif" font-size="12.00">profile_id* </text>
<text text-anchor="start" x="254.19" y="-1068.98" font-family="Helvetica,sans-Serif" font-weight="bold" font-size="12.00">int</text>
<text text-anchor="start" x="190.19" y="-1051.98" font-family="Helvetica,sans-Serif" font-size="12.00">nutr_id* </text>
<text text-anchor="start" x="242.19" y="-1051.98" font-family="Helvetica,sans-Serif" font-weight="bold" font-size="12.00">int</text>
<text text-anchor="start" x="190.19" y="-1034.98" font-family="Helvetica,sans-Serif" font-size="12.00">rda </text>
<text text-anchor="start" x="214.19" y="-1034.98" font-family="Helvetica,sans-Serif" font-weight="bold" font-size="12.00">real</text>
</g>
<!-- rda&#45;&gt;profiles -->
<g id="edge13" class="edge">
<title>rda&#45;&gt;profiles</title>
<path fill="none" stroke="black" stroke-width="0.9" d="M287.2,-1025.87C315.91,-986.67 359.19,-927.58 396.83,-876.18"/>
<polygon fill="black" stroke="black" stroke-width="0.9" points="399.16,-877.74 401.63,-869.63 394.64,-874.43 399.16,-877.74"/>
</g>
<!-- food_costs -->
<g id="node16" class="node">
<title>food_costs</title>
<path fill="none" stroke="black" d="M652.07,-547.94C652.07,-547.94 772.07,-547.94 772.07,-547.94 778.07,-547.94 784.07,-553.94 784.07,-559.94 784.07,-559.94 784.07,-622.94 784.07,-622.94 784.07,-628.94 778.07,-634.94 772.07,-634.94 772.07,-634.94 652.07,-634.94 652.07,-634.94 646.07,-634.94 640.07,-628.94 640.07,-622.94 640.07,-622.94 640.07,-559.94 640.07,-559.94 640.07,-553.94 646.07,-547.94 652.07,-547.94"/>
<text text-anchor="start" x="673.07" y="-614.54" font-family="Helvetica,sans-Serif" font-weight="bold" font-size="13.00">food_costs</text>
<polyline fill="none" stroke="black" points="640.07,-604.94 784.07,-604.94 "/>
<text text-anchor="start" x="647.07" y="-590.84" font-family="Helvetica,sans-Serif" font-size="12.00">food_id* </text>
<text text-anchor="start" x="701.07" y="-590.84" font-family="Helvetica,sans-Serif" font-weight="bold" font-size="12.00">integer</text>
<text text-anchor="start" x="647.07" y="-573.84" font-family="Helvetica,sans-Serif" font-size="12.00">profile_id* </text>
<text text-anchor="start" x="711.07" y="-573.84" font-family="Helvetica,sans-Serif" font-weight="bold" font-size="12.00">integer</text>
<text text-anchor="start" x="647.07" y="-556.84" font-family="Helvetica,sans-Serif" font-size="12.00">cost </text>
<text text-anchor="start" x="676.07" y="-556.84" font-family="Helvetica,sans-Serif" font-weight="bold" font-size="12.00">real</text>
</g>
<!-- food_costs&#45;&gt;profiles -->
<g id="edge14" class="edge">
<title>food_costs&#45;&gt;profiles</title>
<path fill="none" stroke="black" stroke-width="0.9" d="M654.38,-634.95C623.77,-658.03 585.71,-686.73 552.42,-711.83"/>
<polygon fill="black" stroke="black" stroke-width="0.9" points="550.54,-709.75 545.84,-716.8 553.91,-714.22 550.54,-709.75"/>
</g>
</g>
</svg>
