<?xml version="1.0" encoding="UTF-8" standalone="no"?>
<!DOCTYPE svg PUBLIC "-//W3C//DTD SVG 1.1//EN"
 "http://www.w3.org/Graphics/SVG/1.1/DTD/svg11.dtd">
<!-- Generated by graphviz version 2.43.0 (0)
 -->
<!-- Title: undefined Pages: 1 -->
<svg width="1088pt" height="1576pt"
 viewBox="0.00 0.00 1087.60 1575.60" xmlns="http://www.w3.org/2000/svg" xmlns:xlink="http://www.w3.org/1999/xlink">
<g id="graph0" class="graph" transform="scale(1 1) rotate(0) translate(28.8 1525.8)">
<title>undefined</title>
<polygon fill="white" stroke="transparent" points="-28.8,49.8 -28.8,-1525.8 1058.8,-1525.8 1058.8,49.8 -28.8,49.8"/>
<text text-anchor="start" x="486.5" y="12.6" font-family="Helvetica,sans-Serif" font-weight="bold" font-size="12.00">nt.sqlite</text>
<!-- version -->
<g id="node1" class="node">
<title>version</title>
<path fill="none" stroke="black" d="M651.24,-355.64C651.24,-355.64 771.24,-355.64 771.24,-355.64 777.24,-355.64 783.24,-361.64 783.24,-367.64 783.24,-367.64 783.24,-447.64 783.24,-447.64 783.24,-453.64 777.24,-459.64 771.24,-459.64 771.24,-459.64 651.24,-459.64 651.24,-459.64 645.24,-459.64 639.24,-453.64 639.24,-447.64 639.24,-447.64 639.24,-367.64 639.24,-367.64 639.24,-361.64 645.24,-355.64 651.24,-355.64"/>
<text text-anchor="start" x="684.24" y="-439.24" font-family="Helvetica,sans-Serif" font-weight="bold" font-size="13.00">version</text>
<polyline fill="none" stroke="black" points="639.24,-429.64 783.24,-429.64 "/>
<text text-anchor="start" x="646.24" y="-416.04" font-family="Helvetica,sans-Serif" font-size="12.00">id* </text>
<text text-anchor="start" x="667.24" y="-416.04" font-family="Helvetica,sans-Serif" font-weight="bold" font-size="12.00">integer</text>
<text text-anchor="start" x="646.24" y="-399.04" font-family="Helvetica,sans-Serif" font-size="12.00">version </text>
<text text-anchor="start" x="694.24" y="-399.04" font-family="Helvetica,sans-Serif" font-weight="bold" font-size="12.00">text</text>
<text text-anchor="start" x="646.24" y="-382.04" font-family="Helvetica,sans-Serif" font-size="12.00">created </text>
<text text-anchor="start" x="696.24" y="-382.04" font-family="Helvetica,sans-Serif" font-weight="bold" font-size="12.00">date</text>
<text text-anchor="start" x="646.24" y="-365.04" font-family="Helvetica,sans-Serif" font-size="12.00">notes </text>
<text text-anchor="start" x="683.24" y="-365.04" font-family="Helvetica,sans-Serif" font-weight="bold" font-size="12.00">text</text>
</g>
<!-- bmr_eqs -->
<g id="node2" class="node">
<title>bmr_eqs</title>
<path fill="none" stroke="black" d="M11.55,-739.03C11.55,-739.03 131.55,-739.03 131.55,-739.03 137.55,-739.03 143.55,-745.03 143.55,-751.03 143.55,-751.03 143.55,-797.03 143.55,-797.03 143.55,-803.03 137.55,-809.03 131.55,-809.03 131.55,-809.03 11.55,-809.03 11.55,-809.03 5.55,-809.03 -0.45,-803.03 -0.45,-797.03 -0.45,-797.03 -0.45,-751.03 -0.45,-751.03 -0.45,-745.03 5.55,-739.03 11.55,-739.03"/>
<text text-anchor="start" x="40.55" y="-788.63" font-family="Helvetica,sans-Serif" font-weight="bold" font-size="13.00">bmr_eqs</text>
<polyline fill="none" stroke="black" points="-0.45,-779.03 143.55,-779.03 "/>
<text text-anchor="start" x="6.55" y="-765.43" font-family="Helvetica,sans-Serif" font-size="12.00">id* </text>
<text text-anchor="start" x="27.55" y="-765.43" font-family="Helvetica,sans-Serif" font-weight="bold" font-size="12.00">integer</text>
<text text-anchor="start" x="6.55" y="-748.43" font-family="Helvetica,sans-Serif" font-size="12.00">name </text>
<text text-anchor="start" x="45.55" y="-748.43" font-family="Helvetica,sans-Serif" font-weight="bold" font-size="12.00">text</text>
</g>
<!-- bf_eqs -->
<g id="node3" class="node">
<title>bf_eqs</title>
<path fill="none" stroke="black" d="M688.81,-821.99C688.81,-821.99 808.81,-821.99 808.81,-821.99 814.81,-821.99 820.81,-827.99 820.81,-833.99 820.81,-833.99 820.81,-879.99 820.81,-879.99 820.81,-885.99 814.81,-891.99 808.81,-891.99 808.81,-891.99 688.81,-891.99 688.81,-891.99 682.81,-891.99 676.81,-885.99 676.81,-879.99 676.81,-879.99 676.81,-833.99 676.81,-833.99 676.81,-827.99 682.81,-821.99 688.81,-821.99"/>
<text text-anchor="start" x="724.81" y="-871.59" font-family="Helvetica,sans-Serif" font-weight="bold" font-size="13.00">bf_eqs</text>
<polyline fill="none" stroke="black" points="676.81,-861.99 820.81,-861.99 "/>
<text text-anchor="start" x="683.81" y="-848.39" font-family="Helvetica,sans-Serif" font-size="12.00">id* </text>
<text text-anchor="start" x="704.81" y="-848.39" font-family="Helvetica,sans-Serif" font-weight="bold" font-size="12.00">integer</text>
<text text-anchor="start" x="683.81" y="-831.39" font-family="Helvetica,sans-Serif" font-size="12.00">name </text>
<text text-anchor="start" x="722.81" y="-831.39" font-family="Helvetica,sans-Serif" font-weight="bold" font-size="12.00">text</text>
</g>
<!-- profiles -->
<g id="node4" class="node">
<title>profiles</title>
<path fill="none" stroke="black" d="M413.74,-642.17C413.74,-642.17 533.74,-642.17 533.74,-642.17 539.74,-642.17 545.74,-648.17 545.74,-654.17 545.74,-654.17 545.74,-870.17 545.74,-870.17 545.74,-876.17 539.74,-882.17 533.74,-882.17 533.74,-882.17 413.74,-882.17 413.74,-882.17 407.74,-882.17 401.74,-876.17 401.74,-870.17 401.74,-870.17 401.74,-654.17 401.74,-654.17 401.74,-648.17 407.74,-642.17 413.74,-642.17"/>
<text text-anchor="start" x="445.74" y="-861.77" font-family="Helvetica,sans-Serif" font-weight="bold" font-size="13.00">profiles</text>
<polyline fill="none" stroke="black" points="401.74,-852.17 545.74,-852.17 "/>
<text text-anchor="start" x="408.74" y="-838.57" font-family="Helvetica,sans-Serif" font-size="12.00">id* </text>
<text text-anchor="start" x="429.74" y="-838.57" font-family="Helvetica,sans-Serif" font-weight="bold" font-size="12.00">integer</text>
<text text-anchor="start" x="408.74" y="-821.57" font-family="Helvetica,sans-Serif" font-size="12.00">name </text>
<text text-anchor="start" x="447.74" y="-821.57" font-family="Helvetica,sans-Serif" font-weight="bold" font-size="12.00">text</text>
<text text-anchor="start" x="408.74" y="-804.57" font-family="Helvetica,sans-Serif" font-size="12.00">created </text>
<text text-anchor="start" x="458.74" y="-804.57" font-family="Helvetica,sans-Serif" font-weight="bold" font-size="12.00">int</text>
<text text-anchor="start" x="408.74" y="-787.57" font-family="Helvetica,sans-Serif" font-size="12.00">updated </text>
<text text-anchor="start" x="462.74" y="-787.57" font-family="Helvetica,sans-Serif" font-weight="bold" font-size="12.00">int</text>
<text text-anchor="start" x="408.74" y="-770.57" font-family="Helvetica,sans-Serif" font-size="12.00">eula </text>
<text text-anchor="start" x="438.74" y="-770.57" font-family="Helvetica,sans-Serif" font-weight="bold" font-size="12.00">int</text>
<text text-anchor="start" x="408.74" y="-753.57" font-family="Helvetica,sans-Serif" font-size="12.00">gender </text>
<text text-anchor="start" x="455.74" y="-753.57" font-family="Helvetica,sans-Serif" font-weight="bold" font-size="12.00">text</text>
<text text-anchor="start" x="408.74" y="-736.57" font-family="Helvetica,sans-Serif" font-size="12.00">dob </text>
<text text-anchor="start" x="435.74" y="-736.57" font-family="Helvetica,sans-Serif" font-weight="bold" font-size="12.00">date</text>
<text text-anchor="start" x="408.74" y="-719.57" font-family="Helvetica,sans-Serif" font-size="12.00">act_lvl </text>
<text text-anchor="start" x="450.74" y="-719.57" font-family="Helvetica,sans-Serif" font-weight="bold" font-size="12.00">int</text>
<text text-anchor="start" x="408.74" y="-702.57" font-family="Helvetica,sans-Serif" font-size="12.00">goal_wt </text>
<text text-anchor="start" x="458.74" y="-702.57" font-family="Helvetica,sans-Serif" font-weight="bold" font-size="12.00">real</text>
<text text-anchor="start" x="408.74" y="-685.57" font-family="Helvetica,sans-Serif" font-size="12.00">goal_bf </text>
<text text-anchor="start" x="456.74" y="-685.57" font-family="Helvetica,sans-Serif" font-weight="bold" font-size="12.00">real</text>
<text text-anchor="start" x="408.74" y="-668.57" font-family="Helvetica,sans-Serif" font-size="12.00">bmr_eq_id </text>
<text text-anchor="start" x="475.74" y="-668.57" font-family="Helvetica,sans-Serif" font-weight="bold" font-size="12.00">int</text>
<text text-anchor="start" x="408.74" y="-651.57" font-family="Helvetica,sans-Serif" font-size="12.00">bf_eq_id </text>
<text text-anchor="start" x="462.74" y="-651.57" font-family="Helvetica,sans-Serif" font-weight="bold" font-size="12.00">int</text>
</g>
<!-- profiles&#45;&gt;bmr_eqs -->
<g id="edge2" class="edge">
<title>profiles&#45;&gt;bmr_eqs</title>
<path fill="none" stroke="black" stroke-width="0.9" d="M401.37,-764.3C331.14,-766.37 224.78,-769.51 151.95,-771.66"/>
<polygon fill="black" stroke="black" stroke-width="0.9" points="151.59,-768.86 143.68,-771.9 151.76,-774.46 151.59,-768.86"/>
</g>
<!-- profiles&#45;&gt;bf_eqs -->
<g id="edge1" class="edge">
<title>profiles&#45;&gt;bf_eqs</title>
<path fill="none" stroke="black" stroke-width="0.9" d="M546.01,-787.08C583.76,-800.1 630.06,-816.06 668.88,-829.44"/>
<polygon fill="black" stroke="black" stroke-width="0.9" points="668.07,-832.12 676.54,-832.08 669.89,-826.83 668.07,-832.12"/>
</g>
<!-- biometrics -->
<g id="node5" class="node">
<title>biometrics</title>
<path fill="none" stroke="black" d="M133.64,-1375.11C133.64,-1375.11 253.64,-1375.11 253.64,-1375.11 259.64,-1375.11 265.64,-1381.11 265.64,-1387.11 265.64,-1387.11 265.64,-1484.11 265.64,-1484.11 265.64,-1490.11 259.64,-1496.11 253.64,-1496.11 253.64,-1496.11 133.64,-1496.11 133.64,-1496.11 127.64,-1496.11 121.64,-1490.11 121.64,-1484.11 121.64,-1484.11 121.64,-1387.11 121.64,-1387.11 121.64,-1381.11 127.64,-1375.11 133.64,-1375.11"/>
<text text-anchor="start" x="154.64" y="-1475.71" font-family="Helvetica,sans-Serif" font-weight="bold" font-size="13.00">biometrics</text>
<polyline fill="none" stroke="black" points="121.64,-1466.11 265.64,-1466.11 "/>
<text text-anchor="start" x="128.64" y="-1452.01" font-family="Helvetica,sans-Serif" font-size="12.00">id* </text>
<text text-anchor="start" x="149.64" y="-1452.01" font-family="Helvetica,sans-Serif" font-weight="bold" font-size="12.00">integer</text>
<text text-anchor="start" x="128.64" y="-1435.01" font-family="Helvetica,sans-Serif" font-size="12.00">created </text>
<text text-anchor="start" x="178.64" y="-1435.01" font-family="Helvetica,sans-Serif" font-weight="bold" font-size="12.00">int</text>
<text text-anchor="start" x="128.64" y="-1418.01" font-family="Helvetica,sans-Serif" font-size="12.00">updated </text>
<text text-anchor="start" x="182.64" y="-1418.01" font-family="Helvetica,sans-Serif" font-weight="bold" font-size="12.00">int</text>
<text text-anchor="start" x="128.64" y="-1401.01" font-family="Helvetica,sans-Serif" font-size="12.00">name </text>
<text text-anchor="start" x="167.64" y="-1401.01" font-family="Helvetica,sans-Serif" font-weight="bold" font-size="12.00">text</text>
<text text-anchor="start" x="128.64" y="-1384.01" font-family="Helvetica,sans-Serif" font-size="12.00">unit </text>
<text text-anchor="start" x="155.64" y="-1384.01" font-family="Helvetica,sans-Serif" font-weight="bold" font-size="12.00">text</text>
</g>
<!-- biometric_log -->
<g id="node6" class="node">
<title>biometric_log</title>
<path fill="none" stroke="black" d="M500.43,-1029.99C500.43,-1029.99 620.43,-1029.99 620.43,-1029.99 626.43,-1029.99 632.43,-1035.99 632.43,-1041.99 632.43,-1041.99 632.43,-1172.99 632.43,-1172.99 632.43,-1178.99 626.43,-1184.99 620.43,-1184.99 620.43,-1184.99 500.43,-1184.99 500.43,-1184.99 494.43,-1184.99 488.43,-1178.99 488.43,-1172.99 488.43,-1172.99 488.43,-1041.99 488.43,-1041.99 488.43,-1035.99 494.43,-1029.99 500.43,-1029.99"/>
<text text-anchor="start" x="510.43" y="-1164.59" font-family="Helvetica,sans-Serif" font-weight="bold" font-size="13.00">biometric_log</text>
<polyline fill="none" stroke="black" points="488.43,-1154.99 632.43,-1154.99 "/>
<text text-anchor="start" x="495.43" y="-1140.89" font-family="Helvetica,sans-Serif" font-size="12.00">id* </text>
<text text-anchor="start" x="516.43" y="-1140.89" font-family="Helvetica,sans-Serif" font-weight="bold" font-size="12.00">integer</text>
<text text-anchor="start" x="495.43" y="-1123.89" font-family="Helvetica,sans-Serif" font-size="12.00">profile_id </text>
<text text-anchor="start" x="553.43" y="-1123.89" font-family="Helvetica,sans-Serif" font-weight="bold" font-size="12.00">int</text>
<text text-anchor="start" x="495.43" y="-1106.89" font-family="Helvetica,sans-Serif" font-size="12.00">created </text>
<text text-anchor="start" x="545.43" y="-1106.89" font-family="Helvetica,sans-Serif" font-weight="bold" font-size="12.00">int</text>
<text text-anchor="start" x="495.43" y="-1089.89" font-family="Helvetica,sans-Serif" font-size="12.00">updated </text>
<text text-anchor="start" x="549.43" y="-1089.89" font-family="Helvetica,sans-Serif" font-weight="bold" font-size="12.00">int</text>
<text text-anchor="start" x="495.43" y="-1072.89" font-family="Helvetica,sans-Serif" font-size="12.00">date </text>
<text text-anchor="start" x="526.43" y="-1072.89" font-family="Helvetica,sans-Serif" font-weight="bold" font-size="12.00">int</text>
<text text-anchor="start" x="495.43" y="-1055.89" font-family="Helvetica,sans-Serif" font-size="12.00">tags </text>
<text text-anchor="start" x="525.43" y="-1055.89" font-family="Helvetica,sans-Serif" font-weight="bold" font-size="12.00">text</text>
<text text-anchor="start" x="495.43" y="-1038.89" font-family="Helvetica,sans-Serif" font-size="12.00">notes </text>
<text text-anchor="start" x="532.43" y="-1038.89" font-family="Helvetica,sans-Serif" font-weight="bold" font-size="12.00">text</text>
</g>
<!-- biometric_log&#45;&gt;profiles -->
<g id="edge3" class="edge">
<title>biometric_log&#45;&gt;profiles</title>
<path fill="none" stroke="black" stroke-width="0.9" d="M540.86,-1029.56C530.53,-988.39 517.58,-936.81 505.82,-889.96"/>
<polygon fill="black" stroke="black" stroke-width="0.9" points="508.53,-889.26 503.86,-882.18 503.1,-890.62 508.53,-889.26"/>
</g>
<!-- bio_log_entry -->
<g id="node7" class="node">
<title>bio_log_entry</title>
<path fill="none" stroke="black" d="M452.04,-1302.14C452.04,-1302.14 572.04,-1302.14 572.04,-1302.14 578.04,-1302.14 584.04,-1308.14 584.04,-1314.14 584.04,-1314.14 584.04,-1377.14 584.04,-1377.14 584.04,-1383.14 578.04,-1389.14 572.04,-1389.14 572.04,-1389.14 452.04,-1389.14 452.04,-1389.14 446.04,-1389.14 440.04,-1383.14 440.04,-1377.14 440.04,-1377.14 440.04,-1314.14 440.04,-1314.14 440.04,-1308.14 446.04,-1302.14 452.04,-1302.14"/>
<text text-anchor="start" x="463.04" y="-1368.74" font-family="Helvetica,sans-Serif" font-weight="bold" font-size="13.00">bio_log_entry</text>
<polyline fill="none" stroke="black" points="440.04,-1359.14 584.04,-1359.14 "/>
<text text-anchor="start" x="447.04" y="-1345.04" font-family="Helvetica,sans-Serif" font-size="12.00">log_id* </text>
<text text-anchor="start" x="492.04" y="-1345.04" font-family="Helvetica,sans-Serif" font-weight="bold" font-size="12.00">int</text>
<text text-anchor="start" x="447.04" y="-1328.04" font-family="Helvetica,sans-Serif" font-size="12.00">biometric_id* </text>
<text text-anchor="start" x="531.04" y="-1328.04" font-family="Helvetica,sans-Serif" font-weight="bold" font-size="12.00">int</text>
<text text-anchor="start" x="447.04" y="-1311.04" font-family="Helvetica,sans-Serif" font-size="12.00">value </text>
<text text-anchor="start" x="484.04" y="-1311.04" font-family="Helvetica,sans-Serif" font-weight="bold" font-size="12.00">real</text>
</g>
<!-- bio_log_entry&#45;&gt;biometrics -->
<g id="edge4" class="edge">
<title>bio_log_entry&#45;&gt;biometrics</title>
<path fill="none" stroke="black" stroke-width="0.9" d="M439.79,-1366.06C390.31,-1380.04 324.67,-1398.59 273.62,-1413.01"/>
<polygon fill="black" stroke="black" stroke-width="0.9" points="272.82,-1410.33 265.88,-1415.2 274.34,-1415.72 272.82,-1410.33"/>
</g>
<!-- bio_log_entry&#45;&gt;biometric_log -->
<g id="edge5" class="edge">
<title>bio_log_entry&#45;&gt;biometric_log</title>
<path fill="none" stroke="black" stroke-width="0.9" d="M520.92,-1301.96C527.08,-1271.63 535.5,-1230.2 542.98,-1193.37"/>
<polygon fill="black" stroke="black" stroke-width="0.9" points="545.81,-1193.5 544.66,-1185.1 540.32,-1192.39 545.81,-1193.5"/>
</g>
<!-- recipes -->
<g id="node8" class="node">
<title>recipes</title>
<path fill="none" stroke="black" d="M223.92,-104.97C223.92,-104.97 343.92,-104.97 343.92,-104.97 349.92,-104.97 355.92,-110.97 355.92,-116.97 355.92,-116.97 355.92,-213.97 355.92,-213.97 355.92,-219.97 349.92,-225.97 343.92,-225.97 343.92,-225.97 223.92,-225.97 223.92,-225.97 217.92,-225.97 211.92,-219.97 211.92,-213.97 211.92,-213.97 211.92,-116.97 211.92,-116.97 211.92,-110.97 217.92,-104.97 223.92,-104.97"/>
<text text-anchor="start" x="256.92" y="-205.57" font-family="Helvetica,sans-Serif" font-weight="bold" font-size="13.00">recipes</text>
<polyline fill="none" stroke="black" points="211.92,-195.97 355.92,-195.97 "/>
<text text-anchor="start" x="218.92" y="-181.87" font-family="Helvetica,sans-Serif" font-size="12.00">id* </text>
<text text-anchor="start" x="239.92" y="-181.87" font-family="Helvetica,sans-Serif" font-weight="bold" font-size="12.00">integer</text>
<text text-anchor="start" x="218.92" y="-164.87" font-family="Helvetica,sans-Serif" font-size="12.00">created </text>
<text text-anchor="start" x="268.92" y="-164.87" font-family="Helvetica,sans-Serif" font-weight="bold" font-size="12.00">int</text>
<text text-anchor="start" x="218.92" y="-147.87" font-family="Helvetica,sans-Serif" font-size="12.00">updated </text>
<text text-anchor="start" x="272.92" y="-147.87" font-family="Helvetica,sans-Serif" font-weight="bold" font-size="12.00">int</text>
<text text-anchor="start" x="218.92" y="-130.87" font-family="Helvetica,sans-Serif" font-size="12.00">tagname </text>
<text text-anchor="start" x="276.92" y="-130.87" font-family="Helvetica,sans-Serif" font-weight="bold" font-size="12.00">text</text>
<text text-anchor="start" x="218.92" y="-113.87" font-family="Helvetica,sans-Serif" font-size="12.00">name </text>
<text text-anchor="start" x="257.92" y="-113.87" font-family="Helvetica,sans-Serif" font-weight="bold" font-size="12.00">text</text>
</g>
<!-- recipe_dat -->
<g id="node9" class="node">
<title>recipe_dat</title>
<path fill="none" stroke="black" d="M525.58,-0.32C525.58,-0.32 645.58,-0.32 645.58,-0.32 651.58,-0.32 657.58,-6.32 657.58,-12.32 657.58,-12.32 657.58,-92.32 657.58,-92.32 657.58,-98.32 651.58,-104.32 645.58,-104.32 645.58,-104.32 525.58,-104.32 525.58,-104.32 519.58,-104.32 513.58,-98.32 513.58,-92.32 513.58,-92.32 513.58,-12.32 513.58,-12.32 513.58,-6.32 519.58,-0.32 525.58,-0.32"/>
<text text-anchor="start" x="547.58" y="-83.92" font-family="Helvetica,sans-Serif" font-weight="bold" font-size="13.00">recipe_dat</text>
<polyline fill="none" stroke="black" points="513.58,-74.32 657.58,-74.32 "/>
<text text-anchor="start" x="520.58" y="-60.72" font-family="Helvetica,sans-Serif" font-size="12.00">recipe_id* </text>
<text text-anchor="start" x="584.58" y="-60.72" font-family="Helvetica,sans-Serif" font-weight="bold" font-size="12.00">int</text>
<text text-anchor="start" x="520.58" y="-43.72" font-family="Helvetica,sans-Serif" font-size="12.00">food_id* </text>
<text text-anchor="start" x="574.58" y="-43.72" font-family="Helvetica,sans-Serif" font-weight="bold" font-size="12.00">int</text>
<text text-anchor="start" x="520.58" y="-26.72" font-family="Helvetica,sans-Serif" font-size="12.00">grams </text>
<text text-anchor="start" x="563.58" y="-26.72" font-family="Helvetica,sans-Serif" font-weight="bold" font-size="12.00">real</text>
<text text-anchor="start" x="520.58" y="-9.72" font-family="Helvetica,sans-Serif" font-size="12.00">notes </text>
<text text-anchor="start" x="557.58" y="-9.72" font-family="Helvetica,sans-Serif" font-weight="bold" font-size="12.00">text</text>
</g>
<!-- recipe_dat&#45;&gt;recipes -->
<g id="edge6" class="edge">
<title>recipe_dat&#45;&gt;recipes</title>
<path fill="none" stroke="black" stroke-width="0.9" d="M513.32,-79.42C468.25,-96.33 410.18,-118.11 363.75,-135.52"/>
<polygon fill="black" stroke="black" stroke-width="0.9" points="362.61,-132.96 356.11,-138.39 364.58,-138.2 362.61,-132.96"/>
</g>
<!-- custom_foods -->
<g id="node10" class="node">
<title>custom_foods</title>
<path fill="none" stroke="black" d="M722.24,-941.03C722.24,-941.03 842.24,-941.03 842.24,-941.03 848.24,-941.03 854.24,-947.03 854.24,-953.03 854.24,-953.03 854.24,-1050.03 854.24,-1050.03 854.24,-1056.03 848.24,-1062.03 842.24,-1062.03 842.24,-1062.03 722.24,-1062.03 722.24,-1062.03 716.24,-1062.03 710.24,-1056.03 710.24,-1050.03 710.24,-1050.03 710.24,-953.03 710.24,-953.03 710.24,-947.03 716.24,-941.03 722.24,-941.03"/>
<text text-anchor="start" x="732.24" y="-1041.63" font-family="Helvetica,sans-Serif" font-weight="bold" font-size="13.00">custom_foods</text>
<polyline fill="none" stroke="black" points="710.24,-1032.03 854.24,-1032.03 "/>
<text text-anchor="start" x="717.24" y="-1017.93" font-family="Helvetica,sans-Serif" font-size="12.00">id* </text>
<text text-anchor="start" x="738.24" y="-1017.93" font-family="Helvetica,sans-Serif" font-weight="bold" font-size="12.00">integer</text>
<text text-anchor="start" x="717.24" y="-1000.93" font-family="Helvetica,sans-Serif" font-size="12.00">created </text>
<text text-anchor="start" x="767.24" y="-1000.93" font-family="Helvetica,sans-Serif" font-weight="bold" font-size="12.00">int</text>
<text text-anchor="start" x="717.24" y="-983.93" font-family="Helvetica,sans-Serif" font-size="12.00">updated </text>
<text text-anchor="start" x="771.24" y="-983.93" font-family="Helvetica,sans-Serif" font-weight="bold" font-size="12.00">int</text>
<text text-anchor="start" x="717.24" y="-966.93" font-family="Helvetica,sans-Serif" font-size="12.00">tagname </text>
<text text-anchor="start" x="775.24" y="-966.93" font-family="Helvetica,sans-Serif" font-weight="bold" font-size="12.00">text</text>
<text text-anchor="start" x="717.24" y="-949.93" font-family="Helvetica,sans-Serif" font-size="12.00">name </text>
<text text-anchor="start" x="756.24" y="-949.93" font-family="Helvetica,sans-Serif" font-weight="bold" font-size="12.00">text</text>
</g>
<!-- cf_dat -->
<g id="node11" class="node">
<title>cf_dat</title>
<path fill="none" stroke="black" d="M898.26,-923.23C898.26,-923.23 1018.26,-923.23 1018.26,-923.23 1024.26,-923.23 1030.26,-929.23 1030.26,-935.23 1030.26,-935.23 1030.26,-1015.23 1030.26,-1015.23 1030.26,-1021.23 1024.26,-1027.23 1018.26,-1027.23 1018.26,-1027.23 898.26,-1027.23 898.26,-1027.23 892.26,-1027.23 886.26,-1021.23 886.26,-1015.23 886.26,-1015.23 886.26,-935.23 886.26,-935.23 886.26,-929.23 892.26,-923.23 898.26,-923.23"/>
<text text-anchor="start" x="936.26" y="-1006.83" font-family="Helvetica,sans-Serif" font-weight="bold" font-size="13.00">cf_dat</text>
<polyline fill="none" stroke="black" points="886.26,-997.23 1030.26,-997.23 "/>
<text text-anchor="start" x="893.26" y="-983.63" font-family="Helvetica,sans-Serif" font-size="12.00">cf_id* </text>
<text text-anchor="start" x="931.26" y="-983.63" font-family="Helvetica,sans-Serif" font-weight="bold" font-size="12.00">int</text>
<text text-anchor="start" x="893.26" y="-966.63" font-family="Helvetica,sans-Serif" font-size="12.00">nutr_id* </text>
<text text-anchor="start" x="945.26" y="-966.63" font-family="Helvetica,sans-Serif" font-weight="bold" font-size="12.00">int</text>
<text text-anchor="start" x="893.26" y="-949.63" font-family="Helvetica,sans-Serif" font-size="12.00">nutr_val </text>
<text text-anchor="start" x="945.26" y="-949.63" font-family="Helvetica,sans-Serif" font-weight="bold" font-size="12.00">real</text>
<text text-anchor="start" x="893.26" y="-932.63" font-family="Helvetica,sans-Serif" font-size="12.00">notes </text>
<text text-anchor="start" x="930.26" y="-932.63" font-family="Helvetica,sans-Serif" font-weight="bold" font-size="12.00">text</text>
</g>
<!-- cf_dat&#45;&gt;custom_foods -->
<g id="edge7" class="edge">
<title>cf_dat&#45;&gt;custom_foods</title>
<path fill="none" stroke="black" stroke-width="0.9" d="M886.16,-986C878.49,-987.15 870.65,-988.32 862.89,-989.48"/>
<polygon fill="black" stroke="black" stroke-width="0.9" points="862.02,-986.78 854.52,-990.73 862.84,-992.32 862.02,-986.78"/>
</g>
<!-- meal_name -->
<g id="node12" class="node">
<title>meal_name</title>
<path fill="none" stroke="black" d="M16.38,-369.66C16.38,-369.66 136.38,-369.66 136.38,-369.66 142.38,-369.66 148.38,-375.66 148.38,-381.66 148.38,-381.66 148.38,-427.66 148.38,-427.66 148.38,-433.66 142.38,-439.66 136.38,-439.66 136.38,-439.66 16.38,-439.66 16.38,-439.66 10.38,-439.66 4.38,-433.66 4.38,-427.66 4.38,-427.66 4.38,-381.66 4.38,-381.66 4.38,-375.66 10.38,-369.66 16.38,-369.66"/>
<text text-anchor="start" x="34.38" y="-419.26" font-family="Helvetica,sans-Serif" font-weight="bold" font-size="13.00">meal_name</text>
<polyline fill="none" stroke="black" points="4.38,-409.66 148.38,-409.66 "/>
<text text-anchor="start" x="11.38" y="-396.06" font-family="Helvetica,sans-Serif" font-size="12.00">id* </text>
<text text-anchor="start" x="32.38" y="-396.06" font-family="Helvetica,sans-Serif" font-weight="bold" font-size="12.00">integer</text>
<text text-anchor="start" x="11.38" y="-379.06" font-family="Helvetica,sans-Serif" font-size="12.00">name </text>
<text text-anchor="start" x="50.38" y="-379.06" font-family="Helvetica,sans-Serif" font-weight="bold" font-size="12.00">text</text>
</g>
<!-- food_log -->
<g id="node13" class="node">
<title>food_log</title>
<path fill="none" stroke="black" d="M371.22,-362.39C371.22,-362.39 491.22,-362.39 491.22,-362.39 497.22,-362.39 503.22,-368.39 503.22,-374.39 503.22,-374.39 503.22,-539.39 503.22,-539.39 503.22,-545.39 497.22,-551.39 491.22,-551.39 491.22,-551.39 371.22,-551.39 371.22,-551.39 365.22,-551.39 359.22,-545.39 359.22,-539.39 359.22,-539.39 359.22,-374.39 359.22,-374.39 359.22,-368.39 365.22,-362.39 371.22,-362.39"/>
<text text-anchor="start" x="400.22" y="-530.99" font-family="Helvetica,sans-Serif" font-weight="bold" font-size="13.00">food_log</text>
<polyline fill="none" stroke="black" points="359.22,-521.39 503.22,-521.39 "/>
<text text-anchor="start" x="366.22" y="-507.29" font-family="Helvetica,sans-Serif" font-size="12.00">id* </text>
<text text-anchor="start" x="387.22" y="-507.29" font-family="Helvetica,sans-Serif" font-weight="bold" font-size="12.00">integer</text>
<text text-anchor="start" x="366.22" y="-490.29" font-family="Helvetica,sans-Serif" font-size="12.00">profile_id </text>
<text text-anchor="start" x="424.22" y="-490.29" font-family="Helvetica,sans-Serif" font-weight="bold" font-size="12.00">int</text>
<text text-anchor="start" x="366.22" y="-473.29" font-family="Helvetica,sans-Serif" font-size="12.00">created </text>
<text text-anchor="start" x="416.22" y="-473.29" font-family="Helvetica,sans-Serif" font-weight="bold" font-size="12.00">int</text>
<text text-anchor="start" x="366.22" y="-456.29" font-family="Helvetica,sans-Serif" font-size="12.00">updated </text>
<text text-anchor="start" x="420.22" y="-456.29" font-family="Helvetica,sans-Serif" font-weight="bold" font-size="12.00">int</text>
<text text-anchor="start" x="366.22" y="-439.29" font-family="Helvetica,sans-Serif" font-size="12.00">date </text>
<text text-anchor="start" x="397.22" y="-439.29" font-family="Helvetica,sans-Serif" font-weight="bold" font-size="12.00">int</text>
<text text-anchor="start" x="366.22" y="-422.29" font-family="Helvetica,sans-Serif" font-size="12.00">meal_id </text>
<text text-anchor="start" x="417.22" y="-422.29" font-family="Helvetica,sans-Serif" font-weight="bold" font-size="12.00">int</text>
<text text-anchor="start" x="366.22" y="-405.29" font-family="Helvetica,sans-Serif" font-size="12.00">food_id </text>
<text text-anchor="start" x="414.22" y="-405.29" font-family="Helvetica,sans-Serif" font-weight="bold" font-size="12.00">int</text>
<text text-anchor="start" x="366.22" y="-388.29" font-family="Helvetica,sans-Serif" font-size="12.00">msre_id </text>
<text text-anchor="start" x="417.22" y="-388.29" font-family="Helvetica,sans-Serif" font-weight="bold" font-size="12.00">int</text>
<text text-anchor="start" x="366.22" y="-371.29" font-family="Helvetica,sans-Serif" font-size="12.00">amt </text>
<text text-anchor="start" x="394.22" y="-371.29" font-family="Helvetica,sans-Serif" font-weight="bold" font-size="12.00">real</text>
</g>
<!-- food_log&#45;&gt;profiles -->
<g id="edge9" class="edge">
<title>food_log&#45;&gt;profiles</title>
<path fill="none" stroke="black" stroke-width="0.9" d="M444.38,-551.39C448.01,-577.45 452.01,-606.17 455.86,-633.8"/>
<polygon fill="black" stroke="black" stroke-width="0.9" points="453.12,-634.4 456.99,-641.94 458.66,-633.63 453.12,-634.4"/>
</g>
<!-- food_log&#45;&gt;meal_name -->
<g id="edge8" class="edge">
<title>food_log&#45;&gt;meal_name</title>
<path fill="none" stroke="black" stroke-width="0.9" d="M359.01,-396.54C348.95,-390.66 338.36,-385.6 327.59,-382.12 272.22,-364.23 206.64,-370.99 156.37,-381.63"/>
<polygon fill="black" stroke="black" stroke-width="0.9" points="155.66,-378.92 148.44,-383.36 156.85,-384.39 155.66,-378.92"/>
</g>
<!-- recipe_log -->
<g id="node14" class="node">
<title>recipe_log</title>
<path fill="none" stroke="black" d="M192.39,-385.32C192.39,-385.32 312.39,-385.32 312.39,-385.32 318.39,-385.32 324.39,-391.32 324.39,-397.32 324.39,-397.32 324.39,-545.32 324.39,-545.32 324.39,-551.32 318.39,-557.32 312.39,-557.32 312.39,-557.32 192.39,-557.32 192.39,-557.32 186.39,-557.32 180.39,-551.32 180.39,-545.32 180.39,-545.32 180.39,-397.32 180.39,-397.32 180.39,-391.32 186.39,-385.32 192.39,-385.32"/>
<text text-anchor="start" x="214.39" y="-536.92" font-family="Helvetica,sans-Serif" font-weight="bold" font-size="13.00">recipe_log</text>
<polyline fill="none" stroke="black" points="180.39,-527.32 324.39,-527.32 "/>
<text text-anchor="start" x="187.39" y="-513.72" font-family="Helvetica,sans-Serif" font-size="12.00">id* </text>
<text text-anchor="start" x="208.39" y="-513.72" font-family="Helvetica,sans-Serif" font-weight="bold" font-size="12.00">integer</text>
<text text-anchor="start" x="187.39" y="-496.72" font-family="Helvetica,sans-Serif" font-size="12.00">profile_id </text>
<text text-anchor="start" x="245.39" y="-496.72" font-family="Helvetica,sans-Serif" font-weight="bold" font-size="12.00">int</text>
<text text-anchor="start" x="187.39" y="-479.72" font-family="Helvetica,sans-Serif" font-size="12.00">created </text>
<text text-anchor="start" x="237.39" y="-479.72" font-family="Helvetica,sans-Serif" font-weight="bold" font-size="12.00">int</text>
<text text-anchor="start" x="187.39" y="-462.72" font-family="Helvetica,sans-Serif" font-size="12.00">updated </text>
<text text-anchor="start" x="241.39" y="-462.72" font-family="Helvetica,sans-Serif" font-weight="bold" font-size="12.00">int</text>
<text text-anchor="start" x="187.39" y="-445.72" font-family="Helvetica,sans-Serif" font-size="12.00">date </text>
<text text-anchor="start" x="218.39" y="-445.72" font-family="Helvetica,sans-Serif" font-weight="bold" font-size="12.00">int</text>
<text text-anchor="start" x="187.39" y="-428.72" font-family="Helvetica,sans-Serif" font-size="12.00">meal_id </text>
<text text-anchor="start" x="238.39" y="-428.72" font-family="Helvetica,sans-Serif" font-weight="bold" font-size="12.00">int</text>
<text text-anchor="start" x="187.39" y="-411.72" font-family="Helvetica,sans-Serif" font-size="12.00">recipe_id </text>
<text text-anchor="start" x="245.39" y="-411.72" font-family="Helvetica,sans-Serif" font-weight="bold" font-size="12.00">int</text>
<text text-anchor="start" x="187.39" y="-394.72" font-family="Helvetica,sans-Serif" font-size="12.00">grams </text>
<text text-anchor="start" x="230.39" y="-394.72" font-family="Helvetica,sans-Serif" font-weight="bold" font-size="12.00">real</text>
</g>
<!-- recipe_log&#45;&gt;profiles -->
<g id="edge12" class="edge">
<title>recipe_log&#45;&gt;profiles</title>
<path fill="none" stroke="black" stroke-width="0.9" d="M317.91,-557.41C342.58,-589.83 370.88,-627.01 396.53,-660.72"/>
<polygon fill="black" stroke="black" stroke-width="0.9" points="394.55,-662.74 401.62,-667.41 399,-659.35 394.55,-662.74"/>
</g>
<!-- recipe_log&#45;&gt;recipes -->
<g id="edge10" class="edge">
<title>recipe_log&#45;&gt;recipes</title>
<path fill="none" stroke="black" stroke-width="0.9" d="M261.26,-385.31C266.18,-337.57 272.22,-279 276.82,-234.32"/>
<polygon fill="black" stroke="black" stroke-width="0.9" points="279.63,-234.39 277.67,-226.14 274.06,-233.81 279.63,-234.39"/>
</g>
<!-- recipe_log&#45;&gt;meal_name -->
<g id="edge11" class="edge">
<title>recipe_log&#45;&gt;meal_name</title>
<path fill="none" stroke="black" stroke-width="0.9" d="M180.29,-444.02C172.46,-441.05 164.45,-438.02 156.53,-435.02"/>
<polygon fill="black" stroke="black" stroke-width="0.9" points="157.12,-432.25 148.65,-432.03 155.14,-437.49 157.12,-432.25"/>
</g>
<!-- rda -->
<g id="node15" class="node">
<title>rda</title>
<path fill="none" stroke="black" d="M195.19,-1017.08C195.19,-1017.08 315.19,-1017.08 315.19,-1017.08 321.19,-1017.08 327.19,-1023.08 327.19,-1029.08 327.19,-1029.08 327.19,-1092.08 327.19,-1092.08 327.19,-1098.08 321.19,-1104.08 315.19,-1104.08 315.19,-1104.08 195.19,-1104.08 195.19,-1104.08 189.19,-1104.08 183.19,-1098.08 183.19,-1092.08 183.19,-1092.08 183.19,-1029.08 183.19,-1029.08 183.19,-1023.08 189.19,-1017.08 195.19,-1017.08"/>
<text text-anchor="start" x="243.19" y="-1083.68" font-family="Helvetica,sans-Serif" font-weight="bold" font-size="13.00">rda</text>
<polyline fill="none" stroke="black" points="183.19,-1074.08 327.19,-1074.08 "/>
<text text-anchor="start" x="190.19" y="-1059.98" font-family="Helvetica,sans-Serif" font-size="12.00">profile_id* </text>
<text text-anchor="start" x="254.19" y="-1059.98" font-family="Helvetica,sans-Serif" font-weight="bold" font-size="12.00">int</text>
<text text-anchor="start" x="190.19" y="-1042.98" font-family="Helvetica,sans-Serif" font-size="12.00">nutr_id* </text>
<text text-anchor="start" x="242.19" y="-1042.98" font-family="Helvetica,sans-Serif" font-weight="bold" font-size="12.00">int</text>
<text text-anchor="start" x="190.19" y="-1025.98" font-family="Helvetica,sans-Serif" font-size="12.00">rda </text>
<text text-anchor="start" x="214.19" y="-1025.98" font-family="Helvetica,sans-Serif" font-weight="bold" font-size="12.00">real</text>
</g>
<!-- rda&#45;&gt;profiles -->
<g id="edge13" class="edge">
<title>rda&#45;&gt;profiles</title>
<path fill="none" stroke="black" stroke-width="0.9" d="M287.2,-1016.87C315.91,-977.67 359.19,-918.58 396.83,-867.18"/>
<polygon fill="black" stroke="black" stroke-width="0.9" points="399.16,-868.74 401.63,-860.63 394.64,-865.43 399.16,-868.74"/>
</g>
<!-- food_costs -->
<g id="node16" class="node">
<title>food_costs</title>
<path fill="none" stroke="black" d="M652.07,-538.94C652.07,-538.94 772.07,-538.94 772.07,-538.94 778.07,-538.94 784.07,-544.94 784.07,-550.94 784.07,-550.94 784.07,-613.94 784.07,-613.94 784.07,-619.94 778.07,-625.94 772.07,-625.94 772.07,-625.94 652.07,-625.94 652.07,-625.94 646.07,-625.94 640.07,-619.94 640.07,-613.94 640.07,-613.94 640.07,-550.94 640.07,-550.94 640.07,-544.94 646.07,-538.94 652.07,-538.94"/>
<text text-anchor="start" x="673.07" y="-605.54" font-family="Helvetica,sans-Serif" font-weight="bold" font-size="13.00">food_costs</text>
<polyline fill="none" stroke="black" points="640.07,-595.94 784.07,-595.94 "/>
<text text-anchor="start" x="647.07" y="-581.84" font-family="Helvetica,sans-Serif" font-size="12.00">food_id* </text>
<text text-anchor="start" x="701.07" y="-581.84" font-family="Helvetica,sans-Serif" font-weight="bold" font-size="12.00">integer</text>
<text text-anchor="start" x="647.07" y="-564.84" font-family="Helvetica,sans-Serif" font-size="12.00">profile_id* </text>
<text text-anchor="start" x="711.07" y="-564.84" font-family="Helvetica,sans-Serif" font-weight="bold" font-size="12.00">integer</text>
<text text-anchor="start" x="647.07" y="-547.84" font-family="Helvetica,sans-Serif" font-size="12.00">cost </text>
<text text-anchor="start" x="676.07" y="-547.84" font-family="Helvetica,sans-Serif" font-weight="bold" font-size="12.00">real</text>
</g>
<!-- food_costs&#45;&gt;profiles -->
<g id="edge14" class="edge">
<title>food_costs&#45;&gt;profiles</title>
<path fill="none" stroke="black" stroke-width="0.9" d="M654.38,-625.95C623.77,-649.03 585.71,-677.73 552.42,-702.83"/>
<polygon fill="black" stroke="black" stroke-width="0.9" points="550.54,-700.75 545.84,-707.8 553.91,-705.22 550.54,-700.75"/>
</g>
</g>
</svg>
