<?xml version="1.0" encoding="UTF-8" standalone="no"?>
<!DOCTYPE svg PUBLIC "-//W3C//DTD SVG 1.1//EN"
 "http://www.w3.org/Graphics/SVG/1.1/DTD/svg11.dtd">
<!-- Generated by graphviz version 2.43.0 (0)
 -->
<!-- Title: undefined Pages: 1 -->
<svg width="1159pt" height="1311pt"
 viewBox="0.00 0.00 1158.60 1310.60" xmlns="http://www.w3.org/2000/svg" xmlns:xlink="http://www.w3.org/1999/xlink">
<g id="graph0" class="graph" transform="scale(1 1) rotate(0) translate(28.8 1260.8)">
<title>undefined</title>
<polygon fill="white" stroke="transparent" points="-28.8,49.8 -28.8,-1260.8 1129.8,-1260.8 1129.8,49.8 -28.8,49.8"/>
<text text-anchor="start" x="506" y="12.6" font-family="Helvetica,sans-Serif" font-weight="bold" font-size="12.00">sql/nt.sqlite3</text>
<!-- version -->
<g id="node1" class="node">
<title>version</title>
<path fill="none" stroke="black" d="M83.24,-781.64C83.24,-781.64 203.24,-781.64 203.24,-781.64 209.24,-781.64 215.24,-787.64 215.24,-793.64 215.24,-793.64 215.24,-873.64 215.24,-873.64 215.24,-879.64 209.24,-885.64 203.24,-885.64 203.24,-885.64 83.24,-885.64 83.24,-885.64 77.24,-885.64 71.24,-879.64 71.24,-873.64 71.24,-873.64 71.24,-793.64 71.24,-793.64 71.24,-787.64 77.24,-781.64 83.24,-781.64"/>
<text text-anchor="start" x="116.24" y="-865.24" font-family="Helvetica,sans-Serif" font-weight="bold" font-size="13.00">version</text>
<polyline fill="none" stroke="black" points="71.24,-855.64 215.24,-855.64 "/>
<text text-anchor="start" x="78.24" y="-842.04" font-family="Helvetica,sans-Serif" font-size="12.00">id* </text>
<text text-anchor="start" x="99.24" y="-842.04" font-family="Helvetica,sans-Serif" font-weight="bold" font-size="12.00">integer</text>
<text text-anchor="start" x="78.24" y="-825.04" font-family="Helvetica,sans-Serif" font-size="12.00">version </text>
<text text-anchor="start" x="126.24" y="-825.04" font-family="Helvetica,sans-Serif" font-weight="bold" font-size="12.00">text</text>
<text text-anchor="start" x="78.24" y="-808.04" font-family="Helvetica,sans-Serif" font-size="12.00">created </text>
<text text-anchor="start" x="128.24" y="-808.04" font-family="Helvetica,sans-Serif" font-weight="bold" font-size="12.00">date</text>
<text text-anchor="start" x="78.24" y="-791.04" font-family="Helvetica,sans-Serif" font-size="12.00">notes </text>
<text text-anchor="start" x="115.24" y="-791.04" font-family="Helvetica,sans-Serif" font-weight="bold" font-size="12.00">text</text>
</g>
<!-- bmr_eqs -->
<g id="node2" class="node">
<title>bmr_eqs</title>
<path fill="none" stroke="black" d="M237.74,-0.8C237.74,-0.8 357.74,-0.8 357.74,-0.8 363.74,-0.8 369.74,-6.8 369.74,-12.8 369.74,-12.8 369.74,-58.8 369.74,-58.8 369.74,-64.8 363.74,-70.8 357.74,-70.8 357.74,-70.8 237.74,-70.8 237.74,-70.8 231.74,-70.8 225.74,-64.8 225.74,-58.8 225.74,-58.8 225.74,-12.8 225.74,-12.8 225.74,-6.8 231.74,-0.8 237.74,-0.8"/>
<text text-anchor="start" x="266.74" y="-50.4" font-family="Helvetica,sans-Serif" font-weight="bold" font-size="13.00">bmr_eqs</text>
<polyline fill="none" stroke="black" points="225.74,-40.8 369.74,-40.8 "/>
<text text-anchor="start" x="232.74" y="-27.2" font-family="Helvetica,sans-Serif" font-size="12.00">id* </text>
<text text-anchor="start" x="253.74" y="-27.2" font-family="Helvetica,sans-Serif" font-weight="bold" font-size="12.00">integer</text>
<text text-anchor="start" x="232.74" y="-10.2" font-family="Helvetica,sans-Serif" font-size="12.00">name </text>
<text text-anchor="start" x="271.74" y="-10.2" font-family="Helvetica,sans-Serif" font-weight="bold" font-size="12.00">text</text>
</g>
<!-- bf_eqs -->
<g id="node3" class="node">
<title>bf_eqs</title>
<path fill="none" stroke="black" d="M787.99,-237.02C787.99,-237.02 907.99,-237.02 907.99,-237.02 913.99,-237.02 919.99,-243.02 919.99,-249.02 919.99,-249.02 919.99,-295.02 919.99,-295.02 919.99,-301.02 913.99,-307.02 907.99,-307.02 907.99,-307.02 787.99,-307.02 787.99,-307.02 781.99,-307.02 775.99,-301.02 775.99,-295.02 775.99,-295.02 775.99,-249.02 775.99,-249.02 775.99,-243.02 781.99,-237.02 787.99,-237.02"/>
<text text-anchor="start" x="823.99" y="-286.62" font-family="Helvetica,sans-Serif" font-weight="bold" font-size="13.00">bf_eqs</text>
<polyline fill="none" stroke="black" points="775.99,-277.02 919.99,-277.02 "/>
<text text-anchor="start" x="782.99" y="-263.42" font-family="Helvetica,sans-Serif" font-size="12.00">id* </text>
<text text-anchor="start" x="803.99" y="-263.42" font-family="Helvetica,sans-Serif" font-weight="bold" font-size="12.00">integer</text>
<text text-anchor="start" x="782.99" y="-246.42" font-family="Helvetica,sans-Serif" font-size="12.00">name </text>
<text text-anchor="start" x="821.99" y="-246.42" font-family="Helvetica,sans-Serif" font-weight="bold" font-size="12.00">text</text>
</g>
<!-- profiles -->
<g id="node4" class="node">
<title>profiles</title>
<path fill="none" stroke="black" d="M445.13,-311.37C445.13,-311.37 565.13,-311.37 565.13,-311.37 571.13,-311.37 577.13,-317.37 577.13,-323.37 577.13,-323.37 577.13,-505.37 577.13,-505.37 577.13,-511.37 571.13,-517.37 565.13,-517.37 565.13,-517.37 445.13,-517.37 445.13,-517.37 439.13,-517.37 433.13,-511.37 433.13,-505.37 433.13,-505.37 433.13,-323.37 433.13,-323.37 433.13,-317.37 439.13,-311.37 445.13,-311.37"/>
<text text-anchor="start" x="477.13" y="-496.97" font-family="Helvetica,sans-Serif" font-weight="bold" font-size="13.00">profiles</text>
<polyline fill="none" stroke="black" points="433.13,-487.37 577.13,-487.37 "/>
<text text-anchor="start" x="440.13" y="-473.77" font-family="Helvetica,sans-Serif" font-size="12.00">id* </text>
<text text-anchor="start" x="461.13" y="-473.77" font-family="Helvetica,sans-Serif" font-weight="bold" font-size="12.00">integer</text>
<text text-anchor="start" x="440.13" y="-456.77" font-family="Helvetica,sans-Serif" font-size="12.00">name </text>
<text text-anchor="start" x="479.13" y="-456.77" font-family="Helvetica,sans-Serif" font-weight="bold" font-size="12.00">text</text>
<text text-anchor="start" x="440.13" y="-439.77" font-family="Helvetica,sans-Serif" font-size="12.00">gender </text>
<text text-anchor="start" x="487.13" y="-439.77" font-family="Helvetica,sans-Serif" font-weight="bold" font-size="12.00">text</text>
<text text-anchor="start" x="440.13" y="-422.77" font-family="Helvetica,sans-Serif" font-size="12.00">dob </text>
<text text-anchor="start" x="467.13" y="-422.77" font-family="Helvetica,sans-Serif" font-weight="bold" font-size="12.00">date</text>
<text text-anchor="start" x="440.13" y="-405.77" font-family="Helvetica,sans-Serif" font-size="12.00">act_lvl </text>
<text text-anchor="start" x="482.13" y="-405.77" font-family="Helvetica,sans-Serif" font-weight="bold" font-size="12.00">int</text>
<text text-anchor="start" x="440.13" y="-388.77" font-family="Helvetica,sans-Serif" font-size="12.00">goal_wt </text>
<text text-anchor="start" x="490.13" y="-388.77" font-family="Helvetica,sans-Serif" font-weight="bold" font-size="12.00">real</text>
<text text-anchor="start" x="440.13" y="-371.77" font-family="Helvetica,sans-Serif" font-size="12.00">goal_bf </text>
<text text-anchor="start" x="488.13" y="-371.77" font-family="Helvetica,sans-Serif" font-weight="bold" font-size="12.00">real</text>
<text text-anchor="start" x="440.13" y="-354.77" font-family="Helvetica,sans-Serif" font-size="12.00">bmr_eq_id </text>
<text text-anchor="start" x="507.13" y="-354.77" font-family="Helvetica,sans-Serif" font-weight="bold" font-size="12.00">int</text>
<text text-anchor="start" x="440.13" y="-337.77" font-family="Helvetica,sans-Serif" font-size="12.00">bf_eq_id </text>
<text text-anchor="start" x="494.13" y="-337.77" font-family="Helvetica,sans-Serif" font-weight="bold" font-size="12.00">int</text>
<text text-anchor="start" x="440.13" y="-320.77" font-family="Helvetica,sans-Serif" font-size="12.00">created </text>
<text text-anchor="start" x="490.13" y="-320.77" font-family="Helvetica,sans-Serif" font-weight="bold" font-size="12.00">int</text>
</g>
<!-- profiles&#45;&gt;bmr_eqs -->
<g id="edge2" class="edge">
<title>profiles&#45;&gt;bmr_eqs</title>
<path fill="none" stroke="black" stroke-width="0.9" d="M448.46,-310.93C406.57,-234.45 351.68,-134.27 321.03,-78.32"/>
<polygon fill="black" stroke="black" stroke-width="0.9" points="323.35,-76.73 317.06,-71.06 318.44,-79.42 323.35,-76.73"/>
</g>
<!-- profiles&#45;&gt;bf_eqs -->
<g id="edge1" class="edge">
<title>profiles&#45;&gt;bf_eqs</title>
<path fill="none" stroke="black" stroke-width="0.9" d="M577.42,-384.36C633.27,-361.17 710.49,-329.1 768.15,-305.16"/>
<polygon fill="black" stroke="black" stroke-width="0.9" points="769.48,-307.64 775.79,-301.99 767.33,-302.47 769.48,-307.64"/>
</g>
<!-- recipes -->
<g id="node5" class="node">
<title>recipes</title>
<path fill="none" stroke="black" d="M610.86,-1127.64C610.86,-1127.64 730.86,-1127.64 730.86,-1127.64 736.86,-1127.64 742.86,-1133.64 742.86,-1139.64 742.86,-1139.64 742.86,-1219.64 742.86,-1219.64 742.86,-1225.64 736.86,-1231.64 730.86,-1231.64 730.86,-1231.64 610.86,-1231.64 610.86,-1231.64 604.86,-1231.64 598.86,-1225.64 598.86,-1219.64 598.86,-1219.64 598.86,-1139.64 598.86,-1139.64 598.86,-1133.64 604.86,-1127.64 610.86,-1127.64"/>
<text text-anchor="start" x="643.86" y="-1211.24" font-family="Helvetica,sans-Serif" font-weight="bold" font-size="13.00">recipes</text>
<polyline fill="none" stroke="black" points="598.86,-1201.64 742.86,-1201.64 "/>
<text text-anchor="start" x="605.86" y="-1188.04" font-family="Helvetica,sans-Serif" font-size="12.00">id* </text>
<text text-anchor="start" x="626.86" y="-1188.04" font-family="Helvetica,sans-Serif" font-weight="bold" font-size="12.00">integer</text>
<text text-anchor="start" x="605.86" y="-1171.04" font-family="Helvetica,sans-Serif" font-size="12.00">tagname </text>
<text text-anchor="start" x="663.86" y="-1171.04" font-family="Helvetica,sans-Serif" font-weight="bold" font-size="12.00">text</text>
<text text-anchor="start" x="605.86" y="-1154.04" font-family="Helvetica,sans-Serif" font-size="12.00">name </text>
<text text-anchor="start" x="644.86" y="-1154.04" font-family="Helvetica,sans-Serif" font-weight="bold" font-size="12.00">text</text>
<text text-anchor="start" x="605.86" y="-1137.04" font-family="Helvetica,sans-Serif" font-size="12.00">created </text>
<text text-anchor="start" x="655.86" y="-1137.04" font-family="Helvetica,sans-Serif" font-weight="bold" font-size="12.00">int</text>
</g>
<!-- recipe_dat -->
<g id="node6" class="node">
<title>recipe_dat</title>
<path fill="none" stroke="black" d="M860.24,-1062.45C860.24,-1062.45 980.24,-1062.45 980.24,-1062.45 986.24,-1062.45 992.24,-1068.45 992.24,-1074.45 992.24,-1074.45 992.24,-1171.45 992.24,-1171.45 992.24,-1177.45 986.24,-1183.45 980.24,-1183.45 980.24,-1183.45 860.24,-1183.45 860.24,-1183.45 854.24,-1183.45 848.24,-1177.45 848.24,-1171.45 848.24,-1171.45 848.24,-1074.45 848.24,-1074.45 848.24,-1068.45 854.24,-1062.45 860.24,-1062.45"/>
<text text-anchor="start" x="882.24" y="-1163.05" font-family="Helvetica,sans-Serif" font-weight="bold" font-size="13.00">recipe_dat</text>
<polyline fill="none" stroke="black" points="848.24,-1153.45 992.24,-1153.45 "/>
<text text-anchor="start" x="855.24" y="-1139.35" font-family="Helvetica,sans-Serif" font-size="12.00">recipe_id* </text>
<text text-anchor="start" x="919.24" y="-1139.35" font-family="Helvetica,sans-Serif" font-weight="bold" font-size="12.00">int</text>
<text text-anchor="start" x="855.24" y="-1122.35" font-family="Helvetica,sans-Serif" font-size="12.00">food_id* </text>
<text text-anchor="start" x="909.24" y="-1122.35" font-family="Helvetica,sans-Serif" font-weight="bold" font-size="12.00">int</text>
<text text-anchor="start" x="855.24" y="-1105.35" font-family="Helvetica,sans-Serif" font-size="12.00">grams </text>
<text text-anchor="start" x="898.24" y="-1105.35" font-family="Helvetica,sans-Serif" font-weight="bold" font-size="12.00">real</text>
<text text-anchor="start" x="855.24" y="-1088.35" font-family="Helvetica,sans-Serif" font-size="12.00">notes </text>
<text text-anchor="start" x="892.24" y="-1088.35" font-family="Helvetica,sans-Serif" font-weight="bold" font-size="12.00">text</text>
<text text-anchor="start" x="855.24" y="-1071.35" font-family="Helvetica,sans-Serif" font-size="12.00">created </text>
<text text-anchor="start" x="905.24" y="-1071.35" font-family="Helvetica,sans-Serif" font-weight="bold" font-size="12.00">int</text>
</g>
<!-- recipe_dat&#45;&gt;recipes -->
<g id="edge3" class="edge">
<title>recipe_dat&#45;&gt;recipes</title>
<path fill="none" stroke="black" stroke-width="0.9" d="M848.11,-1139.35C817.74,-1146.25 782.28,-1154.31 751.09,-1161.4"/>
<polygon fill="black" stroke="black" stroke-width="0.9" points="750.44,-1158.68 743.26,-1163.18 751.68,-1164.14 750.44,-1158.68"/>
</g>
<!-- custom_foods -->
<g id="node7" class="node">
<title>custom_foods</title>
<path fill="none" stroke="black" d="M793.24,-745.53C793.24,-745.53 913.24,-745.53 913.24,-745.53 919.24,-745.53 925.24,-751.53 925.24,-757.53 925.24,-757.53 925.24,-837.53 925.24,-837.53 925.24,-843.53 919.24,-849.53 913.24,-849.53 913.24,-849.53 793.24,-849.53 793.24,-849.53 787.24,-849.53 781.24,-843.53 781.24,-837.53 781.24,-837.53 781.24,-757.53 781.24,-757.53 781.24,-751.53 787.24,-745.53 793.24,-745.53"/>
<text text-anchor="start" x="803.24" y="-829.13" font-family="Helvetica,sans-Serif" font-weight="bold" font-size="13.00">custom_foods</text>
<polyline fill="none" stroke="black" points="781.24,-819.53 925.24,-819.53 "/>
<text text-anchor="start" x="788.24" y="-805.93" font-family="Helvetica,sans-Serif" font-size="12.00">id* </text>
<text text-anchor="start" x="809.24" y="-805.93" font-family="Helvetica,sans-Serif" font-weight="bold" font-size="12.00">integer</text>
<text text-anchor="start" x="788.24" y="-788.93" font-family="Helvetica,sans-Serif" font-size="12.00">tagname </text>
<text text-anchor="start" x="846.24" y="-788.93" font-family="Helvetica,sans-Serif" font-weight="bold" font-size="12.00">text</text>
<text text-anchor="start" x="788.24" y="-771.93" font-family="Helvetica,sans-Serif" font-size="12.00">name </text>
<text text-anchor="start" x="827.24" y="-771.93" font-family="Helvetica,sans-Serif" font-weight="bold" font-size="12.00">text</text>
<text text-anchor="start" x="788.24" y="-754.93" font-family="Helvetica,sans-Serif" font-size="12.00">created </text>
<text text-anchor="start" x="838.24" y="-754.93" font-family="Helvetica,sans-Serif" font-weight="bold" font-size="12.00">int</text>
</g>
<!-- cf_dat -->
<g id="node8" class="node">
<title>cf_dat</title>
<path fill="none" stroke="black" d="M969.26,-710.73C969.26,-710.73 1089.26,-710.73 1089.26,-710.73 1095.26,-710.73 1101.26,-716.73 1101.26,-722.73 1101.26,-722.73 1101.26,-819.73 1101.26,-819.73 1101.26,-825.73 1095.26,-831.73 1089.26,-831.73 1089.26,-831.73 969.26,-831.73 969.26,-831.73 963.26,-831.73 957.26,-825.73 957.26,-819.73 957.26,-819.73 957.26,-722.73 957.26,-722.73 957.26,-716.73 963.26,-710.73 969.26,-710.73"/>
<text text-anchor="start" x="1007.26" y="-811.33" font-family="Helvetica,sans-Serif" font-weight="bold" font-size="13.00">cf_dat</text>
<polyline fill="none" stroke="black" points="957.26,-801.73 1101.26,-801.73 "/>
<text text-anchor="start" x="964.26" y="-787.63" font-family="Helvetica,sans-Serif" font-size="12.00">cf_id* </text>
<text text-anchor="start" x="1002.26" y="-787.63" font-family="Helvetica,sans-Serif" font-weight="bold" font-size="12.00">int</text>
<text text-anchor="start" x="964.26" y="-770.63" font-family="Helvetica,sans-Serif" font-size="12.00">nutr_id* </text>
<text text-anchor="start" x="1016.26" y="-770.63" font-family="Helvetica,sans-Serif" font-weight="bold" font-size="12.00">int</text>
<text text-anchor="start" x="964.26" y="-753.63" font-family="Helvetica,sans-Serif" font-size="12.00">nutr_val </text>
<text text-anchor="start" x="1016.26" y="-753.63" font-family="Helvetica,sans-Serif" font-weight="bold" font-size="12.00">real</text>
<text text-anchor="start" x="964.26" y="-736.63" font-family="Helvetica,sans-Serif" font-size="12.00">notes </text>
<text text-anchor="start" x="1001.26" y="-736.63" font-family="Helvetica,sans-Serif" font-weight="bold" font-size="12.00">text</text>
<text text-anchor="start" x="964.26" y="-719.63" font-family="Helvetica,sans-Serif" font-size="12.00">created </text>
<text text-anchor="start" x="1014.26" y="-719.63" font-family="Helvetica,sans-Serif" font-weight="bold" font-size="12.00">int</text>
</g>
<!-- cf_dat&#45;&gt;custom_foods -->
<g id="edge4" class="edge">
<title>cf_dat&#45;&gt;custom_foods</title>
<path fill="none" stroke="black" stroke-width="0.9" d="M957.16,-782C949.49,-783.15 941.65,-784.32 933.89,-785.48"/>
<polygon fill="black" stroke="black" stroke-width="0.9" points="933.02,-782.78 925.52,-786.73 933.84,-788.32 933.02,-782.78"/>
</g>
<!-- meal_name -->
<g id="node9" class="node">
<title>meal_name</title>
<path fill="none" stroke="black" d="M243.03,-941.68C243.03,-941.68 363.03,-941.68 363.03,-941.68 369.03,-941.68 375.03,-947.68 375.03,-953.68 375.03,-953.68 375.03,-999.68 375.03,-999.68 375.03,-1005.68 369.03,-1011.68 363.03,-1011.68 363.03,-1011.68 243.03,-1011.68 243.03,-1011.68 237.03,-1011.68 231.03,-1005.68 231.03,-999.68 231.03,-999.68 231.03,-953.68 231.03,-953.68 231.03,-947.68 237.03,-941.68 243.03,-941.68"/>
<text text-anchor="start" x="261.03" y="-991.28" font-family="Helvetica,sans-Serif" font-weight="bold" font-size="13.00">meal_name</text>
<polyline fill="none" stroke="black" points="231.03,-981.68 375.03,-981.68 "/>
<text text-anchor="start" x="238.03" y="-968.08" font-family="Helvetica,sans-Serif" font-size="12.00">id* </text>
<text text-anchor="start" x="259.03" y="-968.08" font-family="Helvetica,sans-Serif" font-weight="bold" font-size="12.00">integer</text>
<text text-anchor="start" x="238.03" y="-951.08" font-family="Helvetica,sans-Serif" font-size="12.00">name </text>
<text text-anchor="start" x="277.03" y="-951.08" font-family="Helvetica,sans-Serif" font-weight="bold" font-size="12.00">text</text>
</g>
<!-- food_log -->
<g id="node10" class="node">
<title>food_log</title>
<path fill="none" stroke="black" d="M328.62,-550.4C328.62,-550.4 448.62,-550.4 448.62,-550.4 454.62,-550.4 460.62,-556.4 460.62,-562.4 460.62,-562.4 460.62,-710.4 460.62,-710.4 460.62,-716.4 454.62,-722.4 448.62,-722.4 448.62,-722.4 328.62,-722.4 328.62,-722.4 322.62,-722.4 316.62,-716.4 316.62,-710.4 316.62,-710.4 316.62,-562.4 316.62,-562.4 316.62,-556.4 322.62,-550.4 328.62,-550.4"/>
<text text-anchor="start" x="357.62" y="-702" font-family="Helvetica,sans-Serif" font-weight="bold" font-size="13.00">food_log</text>
<polyline fill="none" stroke="black" points="316.62,-692.4 460.62,-692.4 "/>
<text text-anchor="start" x="323.62" y="-678.8" font-family="Helvetica,sans-Serif" font-size="12.00">id* </text>
<text text-anchor="start" x="344.62" y="-678.8" font-family="Helvetica,sans-Serif" font-weight="bold" font-size="12.00">integer</text>
<text text-anchor="start" x="323.62" y="-661.8" font-family="Helvetica,sans-Serif" font-size="12.00">profile_id </text>
<text text-anchor="start" x="381.62" y="-661.8" font-family="Helvetica,sans-Serif" font-weight="bold" font-size="12.00">int</text>
<text text-anchor="start" x="323.62" y="-644.8" font-family="Helvetica,sans-Serif" font-size="12.00">date </text>
<text text-anchor="start" x="354.62" y="-644.8" font-family="Helvetica,sans-Serif" font-weight="bold" font-size="12.00">int</text>
<text text-anchor="start" x="323.62" y="-627.8" font-family="Helvetica,sans-Serif" font-size="12.00">meal_id </text>
<text text-anchor="start" x="374.62" y="-627.8" font-family="Helvetica,sans-Serif" font-weight="bold" font-size="12.00">int</text>
<text text-anchor="start" x="323.62" y="-610.8" font-family="Helvetica,sans-Serif" font-size="12.00">food_id </text>
<text text-anchor="start" x="371.62" y="-610.8" font-family="Helvetica,sans-Serif" font-weight="bold" font-size="12.00">int</text>
<text text-anchor="start" x="323.62" y="-593.8" font-family="Helvetica,sans-Serif" font-size="12.00">msre_id </text>
<text text-anchor="start" x="374.62" y="-593.8" font-family="Helvetica,sans-Serif" font-weight="bold" font-size="12.00">int</text>
<text text-anchor="start" x="323.62" y="-576.8" font-family="Helvetica,sans-Serif" font-size="12.00">amt </text>
<text text-anchor="start" x="351.62" y="-576.8" font-family="Helvetica,sans-Serif" font-weight="bold" font-size="12.00">real</text>
<text text-anchor="start" x="323.62" y="-559.8" font-family="Helvetica,sans-Serif" font-size="12.00">created </text>
<text text-anchor="start" x="373.62" y="-559.8" font-family="Helvetica,sans-Serif" font-weight="bold" font-size="12.00">int</text>
</g>
<!-- food_log&#45;&gt;profiles -->
<g id="edge6" class="edge">
<title>food_log&#45;&gt;profiles</title>
<path fill="none" stroke="black" stroke-width="0.9" d="M433.83,-550.24C438.23,-541.86 442.73,-533.28 447.23,-524.7"/>
<polygon fill="black" stroke="black" stroke-width="0.9" points="449.77,-525.89 451.01,-517.51 444.81,-523.29 449.77,-525.89"/>
</g>
<!-- food_log&#45;&gt;meal_name -->
<g id="edge5" class="edge">
<title>food_log&#45;&gt;meal_name</title>
<path fill="none" stroke="black" stroke-width="0.9" d="M366.91,-722.7C349.95,-790.13 327.11,-880.97 313.83,-933.74"/>
<polygon fill="black" stroke="black" stroke-width="0.9" points="311.1,-933.12 311.87,-941.56 316.53,-934.49 311.1,-933.12"/>
</g>
<!-- recipe_log -->
<g id="node11" class="node">
<title>recipe_log</title>
<path fill="none" stroke="black" d="M553.17,-719.69C553.17,-719.69 673.17,-719.69 673.17,-719.69 679.17,-719.69 685.17,-725.69 685.17,-731.69 685.17,-731.69 685.17,-862.69 685.17,-862.69 685.17,-868.69 679.17,-874.69 673.17,-874.69 673.17,-874.69 553.17,-874.69 553.17,-874.69 547.17,-874.69 541.17,-868.69 541.17,-862.69 541.17,-862.69 541.17,-731.69 541.17,-731.69 541.17,-725.69 547.17,-719.69 553.17,-719.69"/>
<text text-anchor="start" x="575.17" y="-854.29" font-family="Helvetica,sans-Serif" font-weight="bold" font-size="13.00">recipe_log</text>
<polyline fill="none" stroke="black" points="541.17,-844.69 685.17,-844.69 "/>
<text text-anchor="start" x="548.17" y="-830.59" font-family="Helvetica,sans-Serif" font-size="12.00">id* </text>
<text text-anchor="start" x="569.17" y="-830.59" font-family="Helvetica,sans-Serif" font-weight="bold" font-size="12.00">integer</text>
<text text-anchor="start" x="548.17" y="-813.59" font-family="Helvetica,sans-Serif" font-size="12.00">profile_id </text>
<text text-anchor="start" x="606.17" y="-813.59" font-family="Helvetica,sans-Serif" font-weight="bold" font-size="12.00">int</text>
<text text-anchor="start" x="548.17" y="-796.59" font-family="Helvetica,sans-Serif" font-size="12.00">date </text>
<text text-anchor="start" x="579.17" y="-796.59" font-family="Helvetica,sans-Serif" font-weight="bold" font-size="12.00">int</text>
<text text-anchor="start" x="548.17" y="-779.59" font-family="Helvetica,sans-Serif" font-size="12.00">meal_id </text>
<text text-anchor="start" x="599.17" y="-779.59" font-family="Helvetica,sans-Serif" font-weight="bold" font-size="12.00">int</text>
<text text-anchor="start" x="548.17" y="-762.59" font-family="Helvetica,sans-Serif" font-size="12.00">recipe_id </text>
<text text-anchor="start" x="606.17" y="-762.59" font-family="Helvetica,sans-Serif" font-weight="bold" font-size="12.00">int</text>
<text text-anchor="start" x="548.17" y="-745.59" font-family="Helvetica,sans-Serif" font-size="12.00">grams </text>
<text text-anchor="start" x="591.17" y="-745.59" font-family="Helvetica,sans-Serif" font-weight="bold" font-size="12.00">real</text>
<text text-anchor="start" x="548.17" y="-728.59" font-family="Helvetica,sans-Serif" font-size="12.00">created </text>
<text text-anchor="start" x="598.17" y="-728.59" font-family="Helvetica,sans-Serif" font-weight="bold" font-size="12.00">int</text>
</g>
<!-- recipe_log&#45;&gt;profiles -->
<g id="edge9" class="edge">
<title>recipe_log&#45;&gt;profiles</title>
<path fill="none" stroke="black" stroke-width="0.9" d="M591.18,-719.26C575.44,-663.5 554.03,-587.62 536.5,-525.51"/>
<polygon fill="black" stroke="black" stroke-width="0.9" points="539.14,-524.56 534.27,-517.62 533.75,-526.08 539.14,-524.56"/>
</g>
<!-- recipe_log&#45;&gt;recipes -->
<g id="edge7" class="edge">
<title>recipe_log&#45;&gt;recipes</title>
<path fill="none" stroke="black" stroke-width="0.9" d="M624.92,-875.05C635.82,-947.31 651.81,-1053.37 661.77,-1119.37"/>
<polygon fill="black" stroke="black" stroke-width="0.9" points="659.05,-1120.12 663.01,-1127.62 664.59,-1119.29 659.05,-1120.12"/>
</g>
<!-- recipe_log&#45;&gt;meal_name -->
<g id="edge8" class="edge">
<title>recipe_log&#45;&gt;meal_name</title>
<path fill="none" stroke="black" stroke-width="0.9" d="M540.85,-839.05C489.48,-868.78 420.98,-908.42 370.69,-937.53"/>
<polygon fill="black" stroke="black" stroke-width="0.9" points="369.24,-935.13 363.72,-941.56 372.04,-939.98 369.24,-935.13"/>
</g>
<!-- rda -->
<g id="node12" class="node">
<title>rda</title>
<path fill="none" stroke="black" d="M18.78,-247.93C18.78,-247.93 138.78,-247.93 138.78,-247.93 144.78,-247.93 150.78,-253.93 150.78,-259.93 150.78,-259.93 150.78,-322.93 150.78,-322.93 150.78,-328.93 144.78,-334.93 138.78,-334.93 138.78,-334.93 18.78,-334.93 18.78,-334.93 12.78,-334.93 6.78,-328.93 6.78,-322.93 6.78,-322.93 6.78,-259.93 6.78,-259.93 6.78,-253.93 12.78,-247.93 18.78,-247.93"/>
<text text-anchor="start" x="66.78" y="-314.53" font-family="Helvetica,sans-Serif" font-weight="bold" font-size="13.00">rda</text>
<polyline fill="none" stroke="black" points="6.78,-304.93 150.78,-304.93 "/>
<text text-anchor="start" x="13.78" y="-290.83" font-family="Helvetica,sans-Serif" font-size="12.00">profile_id* </text>
<text text-anchor="start" x="77.78" y="-290.83" font-family="Helvetica,sans-Serif" font-weight="bold" font-size="12.00">int</text>
<text text-anchor="start" x="13.78" y="-273.83" font-family="Helvetica,sans-Serif" font-size="12.00">nutr_id* </text>
<text text-anchor="start" x="65.78" y="-273.83" font-family="Helvetica,sans-Serif" font-weight="bold" font-size="12.00">int</text>
<text text-anchor="start" x="13.78" y="-256.83" font-family="Helvetica,sans-Serif" font-size="12.00">rda </text>
<text text-anchor="start" x="37.78" y="-256.83" font-family="Helvetica,sans-Serif" font-weight="bold" font-size="12.00">real</text>
</g>
<!-- rda&#45;&gt;profiles -->
<g id="edge10" class="edge">
<title>rda&#45;&gt;profiles</title>
<path fill="none" stroke="black" stroke-width="0.9" d="M151.11,-312.29C227.02,-334.18 346.06,-368.51 424.84,-391.22"/>
<polygon fill="black" stroke="black" stroke-width="0.9" points="424.35,-393.99 432.81,-393.52 425.9,-388.61 424.35,-393.99"/>
</g>
<!-- food_cost -->
<g id="node13" class="node">
<title>food_cost</title>
<path fill="none" stroke="black" d="M587.84,-2.72C587.84,-2.72 707.84,-2.72 707.84,-2.72 713.84,-2.72 719.84,-8.72 719.84,-14.72 719.84,-14.72 719.84,-77.72 719.84,-77.72 719.84,-83.72 713.84,-89.72 707.84,-89.72 707.84,-89.72 587.84,-89.72 587.84,-89.72 581.84,-89.72 575.84,-83.72 575.84,-77.72 575.84,-77.72 575.84,-14.72 575.84,-14.72 575.84,-8.72 581.84,-2.72 587.84,-2.72"/>
<text text-anchor="start" x="612.84" y="-69.32" font-family="Helvetica,sans-Serif" font-weight="bold" font-size="13.00">food_cost</text>
<polyline fill="none" stroke="black" points="575.84,-59.72 719.84,-59.72 "/>
<text text-anchor="start" x="582.84" y="-45.62" font-family="Helvetica,sans-Serif" font-size="12.00">food_id* </text>
<text text-anchor="start" x="636.84" y="-45.62" font-family="Helvetica,sans-Serif" font-weight="bold" font-size="12.00">int</text>
<text text-anchor="start" x="582.84" y="-28.62" font-family="Helvetica,sans-Serif" font-size="12.00">profile_id* </text>
<text text-anchor="start" x="646.84" y="-28.62" font-family="Helvetica,sans-Serif" font-weight="bold" font-size="12.00">int</text>
<text text-anchor="start" x="582.84" y="-11.62" font-family="Helvetica,sans-Serif" font-size="12.00">cost </text>
<text text-anchor="start" x="611.84" y="-11.62" font-family="Helvetica,sans-Serif" font-weight="bold" font-size="12.00">real</text>
</g>
<!-- food_cost&#45;&gt;profiles -->
<g id="edge11" class="edge">
<title>food_cost&#45;&gt;profiles</title>
<path fill="none" stroke="black" stroke-width="0.9" d="M630.91,-89.9C610.65,-142.18 575.96,-231.67 548.14,-303.44"/>
<polygon fill="black" stroke="black" stroke-width="0.9" points="545.4,-302.74 545.12,-311.21 550.62,-304.76 545.4,-302.74"/>
</g>
<!-- bug -->
<g id="node14" class="node">
<title>bug</title>
<path fill="none" stroke="black" d="M735.35,-476.61C735.35,-476.61 855.35,-476.61 855.35,-476.61 861.35,-476.61 867.35,-482.61 867.35,-488.61 867.35,-488.61 867.35,-653.61 867.35,-653.61 867.35,-659.61 861.35,-665.61 855.35,-665.61 855.35,-665.61 735.35,-665.61 735.35,-665.61 729.35,-665.61 723.35,-659.61 723.35,-653.61 723.35,-653.61 723.35,-488.61 723.35,-488.61 723.35,-482.61 729.35,-476.61 735.35,-476.61"/>
<text text-anchor="start" x="781.35" y="-645.21" font-family="Helvetica,sans-Serif" font-weight="bold" font-size="13.00">bug</text>
<polyline fill="none" stroke="black" points="723.35,-635.61 867.35,-635.61 "/>
<text text-anchor="start" x="730.35" y="-621.51" font-family="Helvetica,sans-Serif" font-size="12.00">id* </text>
<text text-anchor="start" x="751.35" y="-621.51" font-family="Helvetica,sans-Serif" font-weight="bold" font-size="12.00">integer</text>
<text text-anchor="start" x="730.35" y="-604.51" font-family="Helvetica,sans-Serif" font-size="12.00">profile_id </text>
<text text-anchor="start" x="788.35" y="-604.51" font-family="Helvetica,sans-Serif" font-weight="bold" font-size="12.00">int</text>
<text text-anchor="start" x="730.35" y="-587.51" font-family="Helvetica,sans-Serif" font-size="12.00">created </text>
<text text-anchor="start" x="780.35" y="-587.51" font-family="Helvetica,sans-Serif" font-weight="bold" font-size="12.00">int</text>
<text text-anchor="start" x="730.35" y="-570.51" font-family="Helvetica,sans-Serif" font-size="12.00">arguments </text>
<text text-anchor="start" x="799.35" y="-570.51" font-family="Helvetica,sans-Serif" font-weight="bold" font-size="12.00">text</text>
<text text-anchor="start" x="730.35" y="-553.51" font-family="Helvetica,sans-Serif" font-size="12.00">stack </text>
<text text-anchor="start" x="766.35" y="-553.51" font-family="Helvetica,sans-Serif" font-weight="bold" font-size="12.00">text</text>
<text text-anchor="start" x="730.35" y="-536.51" font-family="Helvetica,sans-Serif" font-size="12.00">os </text>
<text text-anchor="start" x="748.35" y="-536.51" font-family="Helvetica,sans-Serif" font-weight="bold" font-size="12.00">text</text>
<text text-anchor="start" x="730.35" y="-519.51" font-family="Helvetica,sans-Serif" font-size="12.00">py_ver </text>
<text text-anchor="start" x="774.35" y="-519.51" font-family="Helvetica,sans-Serif" font-weight="bold" font-size="12.00">text</text>
<text text-anchor="start" x="730.35" y="-502.51" font-family="Helvetica,sans-Serif" font-size="12.00">user_details </text>
<text text-anchor="start" x="806.35" y="-502.51" font-family="Helvetica,sans-Serif" font-weight="bold" font-size="12.00">text</text>
<text text-anchor="start" x="730.35" y="-485.51" font-family="Helvetica,sans-Serif" font-size="12.00">submitted </text>
<text text-anchor="start" x="794.35" y="-485.51" font-family="Helvetica,sans-Serif" font-weight="bold" font-size="12.00">tinyint</text>
</g>
<!-- bug&#45;&gt;profiles -->
<g id="edge12" class="edge">
<title>bug&#45;&gt;profiles</title>
<path fill="none" stroke="black" stroke-width="0.9" d="M723.23,-532.17C681.09,-509.41 627.85,-480.65 584.52,-457.25"/>
<polygon fill="black" stroke="black" stroke-width="0.9" points="585.75,-454.73 577.38,-453.39 583.08,-459.66 585.75,-454.73"/>
</g>
<!-- msg -->
<g id="node15" class="node">
<title>msg</title>
<path fill="none" stroke="black" d="M11.85,-516.13C11.85,-516.13 131.85,-516.13 131.85,-516.13 137.85,-516.13 143.85,-522.13 143.85,-528.13 143.85,-528.13 143.85,-659.13 143.85,-659.13 143.85,-665.13 137.85,-671.13 131.85,-671.13 131.85,-671.13 11.85,-671.13 11.85,-671.13 5.85,-671.13 -0.15,-665.13 -0.15,-659.13 -0.15,-659.13 -0.15,-528.13 -0.15,-528.13 -0.15,-522.13 5.85,-516.13 11.85,-516.13"/>
<text text-anchor="start" x="56.85" y="-650.73" font-family="Helvetica,sans-Serif" font-weight="bold" font-size="13.00">msg</text>
<polyline fill="none" stroke="black" points="-0.15,-641.13 143.85,-641.13 "/>
<text text-anchor="start" x="6.85" y="-627.03" font-family="Helvetica,sans-Serif" font-size="12.00">id* </text>
<text text-anchor="start" x="27.85" y="-627.03" font-family="Helvetica,sans-Serif" font-weight="bold" font-size="12.00">integer</text>
<text text-anchor="start" x="6.85" y="-610.03" font-family="Helvetica,sans-Serif" font-size="12.00">profile_id </text>
<text text-anchor="start" x="64.85" y="-610.03" font-family="Helvetica,sans-Serif" font-weight="bold" font-size="12.00">int</text>
<text text-anchor="start" x="6.85" y="-593.03" font-family="Helvetica,sans-Serif" font-size="12.00">msg_id </text>
<text text-anchor="start" x="52.85" y="-593.03" font-family="Helvetica,sans-Serif" font-weight="bold" font-size="12.00">int</text>
<text text-anchor="start" x="6.85" y="-576.03" font-family="Helvetica,sans-Serif" font-size="12.00">created </text>
<text text-anchor="start" x="56.85" y="-576.03" font-family="Helvetica,sans-Serif" font-weight="bold" font-size="12.00">int</text>
<text text-anchor="start" x="6.85" y="-559.03" font-family="Helvetica,sans-Serif" font-size="12.00">received </text>
<text text-anchor="start" x="61.85" y="-559.03" font-family="Helvetica,sans-Serif" font-weight="bold" font-size="12.00">int</text>
<text text-anchor="start" x="6.85" y="-542.03" font-family="Helvetica,sans-Serif" font-size="12.00">header </text>
<text text-anchor="start" x="53.85" y="-542.03" font-family="Helvetica,sans-Serif" font-weight="bold" font-size="12.00">text</text>
<text text-anchor="start" x="6.85" y="-525.03" font-family="Helvetica,sans-Serif" font-size="12.00">body </text>
<text text-anchor="start" x="40.85" y="-525.03" font-family="Helvetica,sans-Serif" font-weight="bold" font-size="12.00">text</text>
</g>
<!-- msg&#45;&gt;profiles -->
<g id="edge13" class="edge">
<title>msg&#45;&gt;profiles</title>
<path fill="none" stroke="black" stroke-width="0.9" d="M143.89,-563.83C221.52,-531.71 344.73,-480.73 425.27,-447.41"/>
<polygon fill="black" stroke="black" stroke-width="0.9" points="426.61,-449.89 432.93,-444.25 424.46,-444.72 426.61,-449.89"/>
</g>
</g>
</svg>
